{"glyphs":{"0":{"ha":832,"x_min":89,"x_max":743,"o":"m 416 -12 q 174 111 258 -12 q 89 514 89 234 q 173 917 89 794 q 416 1040 257 1040 q 659 917 575 1040 q 743 514 743 794 q 658 111 743 234 q 416 -12 574 -12 m 416 33 q 565 78 504 33 q 659 228 626 122 q 693 511 693 333 q 659 799 693 692 q 565 950 626 906 q 416 994 504 994 q 267 950 328 994 q 173 800 206 906 q 139 517 139 694 q 173 229 139 336 q 267 78 206 122 q 416 33 328 33 z "},"1":{"ha":467,"x_min":16,"x_max":328,"o":"m 299 1031 l 328 1031 l 328 0 l 281 0 l 281 963 l 16 768 l 16 822 l 299 1031 z "},"2":{"ha":650,"x_min":35,"x_max":601,"o":"m 601 44 l 601 0 l 47 0 l 47 28 l 347 441 q 460 627 427 550 q 494 778 494 704 q 434 943 494 892 q 256 994 375 994 q 35 953 138 994 l 35 1001 q 136 1030 78 1019 q 256 1040 194 1040 q 468 977 394 1040 q 542 783 542 914 q 527 671 542 725 q 478 556 513 617 q 381 410 443 494 l 114 44 l 601 44 z "},"3":{"ha":673,"x_min":40,"x_max":619,"o":"m 388 536 q 560 445 501 513 q 619 273 619 378 q 531 62 619 136 q 276 -12 443 -12 q 155 -2 215 -12 q 40 28 94 8 l 40 76 q 277 33 158 33 q 495 94 421 33 q 570 273 570 156 q 499 445 570 384 q 287 506 428 506 l 180 506 l 180 551 l 218 551 q 454 613 372 551 q 536 788 536 674 q 473 942 536 889 q 289 994 409 994 q 67 956 173 994 l 67 1003 q 173 1031 115 1021 q 289 1040 230 1040 q 508 974 431 1040 q 585 788 585 908 q 533 631 585 697 q 388 536 481 565 z "},"4":{"ha":783,"x_min":38,"x_max":751,"o":"m 751 311 l 751 267 l 599 267 l 599 0 l 551 0 l 551 267 l 38 267 l 38 294 l 460 1028 l 513 1028 l 99 311 l 551 311 l 561 681 l 599 681 l 599 311 l 751 311 z "},"5":{"ha":679,"x_min":58,"x_max":637,"o":"m 240 574 q 466 532 378 566 q 595 435 553 497 q 637 281 637 374 q 550 63 637 138 q 295 -12 463 -12 q 172 -2 233 -12 q 58 28 110 9 l 58 76 q 297 33 176 33 q 515 95 442 33 q 588 281 588 158 q 552 413 588 361 q 437 493 516 465 q 228 528 358 521 l 99 536 l 133 1028 l 594 1028 l 594 983 l 177 983 l 149 580 l 240 574 z "},"6":{"ha":759,"x_min":97,"x_max":715,"o":"m 404 575 q 568 542 498 575 q 676 444 638 510 q 715 281 715 378 q 678 119 715 185 q 576 20 641 53 q 429 -12 512 -12 q 184 103 271 -12 q 97 481 97 219 q 197 905 97 769 q 496 1040 298 1040 q 670 1010 599 1040 l 670 963 q 587 987 633 979 q 495 994 541 994 q 301 942 378 994 q 185 779 224 890 q 145 489 145 667 l 145 487 q 261 551 192 528 q 404 575 331 575 m 430 33 q 601 94 537 33 q 666 279 666 156 q 596 467 666 406 q 401 529 526 529 q 263 505 332 529 q 146 433 193 481 q 226 125 153 217 q 430 33 299 33 z "},"7":{"ha":619,"x_min":8,"x_max":578,"o":"m 8 1028 l 578 1028 l 578 1000 l 176 0 l 125 0 l 522 983 l 8 983 l 8 1028 z "},"8":{"ha":832,"x_min":76,"x_max":756,"o":"m 531 512 q 703 411 650 472 q 756 255 756 350 q 716 113 756 174 q 602 20 677 53 q 424 -12 527 -12 q 167 58 257 -12 q 76 258 76 128 q 131 430 76 356 q 281 540 185 503 q 152 639 192 580 q 112 783 112 698 q 148 920 112 862 q 252 1009 185 978 q 413 1040 320 1040 q 576 1009 507 1040 q 683 919 646 978 q 719 782 719 861 q 671 621 719 689 q 531 512 622 553 m 162 784 q 188 672 162 718 q 274 594 214 626 q 438 538 334 561 q 474 528 462 532 q 625 631 578 572 q 672 781 672 690 q 604 940 672 885 q 412 994 535 994 q 226 939 291 994 q 162 784 162 883 m 424 33 q 632 90 559 33 q 706 251 706 147 q 679 361 706 317 q 593 436 653 406 q 431 491 534 467 q 333 519 374 504 q 180 419 233 487 q 126 260 126 352 q 202 91 126 149 q 424 33 278 33 z "},"9":{"ha":759,"x_min":44,"x_max":663,"o":"m 330 1040 q 575 925 488 1040 q 663 547 663 809 q 562 123 663 258 q 263 -12 461 -12 q 89 17 160 -12 l 89 65 q 172 41 126 49 q 264 33 218 33 q 458 85 381 33 q 574 249 535 138 q 614 539 614 360 l 614 541 q 498 476 567 500 q 355 453 428 453 q 191 485 261 453 q 83 584 122 518 q 44 747 44 650 q 81 909 44 843 q 183 1008 118 975 q 330 1040 247 1040 m 358 499 q 497 523 427 499 q 613 595 566 547 q 533 903 606 811 q 329 994 460 994 q 158 933 222 994 q 93 749 93 872 q 163 560 93 622 q 358 499 233 499 z "},"\u0000":{"ha":0,"x_min":0,"x_max":0,"o":""},"\r":{"ha":334,"x_min":0,"x_max":0,"o":""}," ":{"ha":334,"x_min":0,"x_max":0,"o":""},"A":{"ha":893,"x_min":26,"x_max":867,"o":"m 815 0 l 677 367 l 215 367 l 76 0 l 26 0 l 417 1028 l 476 1028 l 867 0 l 815 0 m 232 413 l 660 413 l 446 978 l 232 413 z "},"Á":{"ha":893,"x_min":26,"x_max":867,"o":"m 815 0 l 677 367 l 215 367 l 76 0 l 26 0 l 417 1028 l 476 1028 l 867 0 l 815 0 m 232 413 l 660 413 l 446 978 l 232 413 m 425 1122 l 547 1311 l 601 1311 l 469 1122 l 425 1122 z "},"Ă":{"ha":893,"x_min":26,"x_max":867,"o":"m 815 0 l 677 367 l 215 367 l 76 0 l 26 0 l 417 1028 l 476 1028 l 867 0 l 815 0 m 232 413 l 660 413 l 446 978 l 232 413 m 449 1131 q 308 1173 358 1131 q 251 1292 258 1216 l 292 1292 q 336 1201 300 1231 q 449 1172 372 1172 q 560 1201 525 1172 q 603 1292 596 1231 l 643 1292 q 588 1173 637 1215 q 449 1131 540 1131 z "},"Ắ":{"ha":893,"x_min":26,"x_max":867,"o":"m 815 0 l 677 367 l 215 367 l 76 0 l 26 0 l 417 1028 l 476 1028 l 867 0 l 815 0 m 232 413 l 660 413 l 446 978 l 232 413 m 425 1282 l 547 1457 l 601 1457 l 469 1282 l 425 1282 m 448 1131 q 307 1173 356 1131 q 251 1292 258 1215 l 292 1292 q 335 1201 299 1231 q 448 1172 371 1172 q 559 1201 524 1172 q 603 1292 594 1231 l 643 1292 q 588 1173 637 1215 q 448 1131 538 1131 z "},"Ặ":{"ha":893,"x_min":26,"x_max":867,"o":"m 815 0 l 677 367 l 215 367 l 76 0 l 26 0 l 417 1028 l 476 1028 l 867 0 l 815 0 m 232 413 l 660 413 l 446 978 l 232 413 m 447 -215 q 416 -203 428 -215 q 404 -172 404 -192 q 416 -140 404 -153 q 447 -128 428 -128 q 478 -140 466 -128 q 490 -172 490 -153 q 478 -203 490 -192 q 447 -215 466 -215 m 449 1131 q 308 1173 358 1131 q 251 1292 258 1216 l 292 1292 q 336 1201 300 1231 q 449 1172 372 1172 q 560 1201 525 1172 q 603 1292 596 1231 l 643 1292 q 588 1173 637 1215 q 449 1131 540 1131 z "},"Ằ":{"ha":893,"x_min":26,"x_max":867,"o":"m 815 0 l 677 367 l 215 367 l 76 0 l 26 0 l 417 1028 l 476 1028 l 867 0 l 815 0 m 232 413 l 660 413 l 446 978 l 232 413 m 425 1282 l 293 1457 l 348 1457 l 469 1282 l 425 1282 m 447 1131 q 306 1173 355 1131 q 251 1292 258 1215 l 292 1292 q 334 1201 299 1231 q 447 1172 370 1172 q 559 1201 523 1172 q 603 1292 594 1231 l 643 1292 q 587 1173 637 1216 q 447 1131 537 1131 z "},"Ẳ":{"ha":893,"x_min":26,"x_max":867,"o":"m 815 0 l 677 367 l 215 367 l 76 0 l 26 0 l 417 1028 l 476 1028 l 867 0 l 815 0 m 232 413 l 660 413 l 446 978 l 232 413 m 425 1282 q 436 1315 426 1302 q 459 1336 446 1328 q 494 1353 472 1344 q 530 1373 519 1364 q 542 1397 542 1381 q 523 1424 542 1415 q 458 1433 505 1433 q 389 1427 421 1433 q 321 1408 356 1421 l 321 1446 q 458 1471 378 1471 q 551 1451 520 1471 q 583 1397 583 1431 q 567 1356 583 1370 q 521 1329 551 1342 q 483 1309 496 1318 q 469 1282 471 1299 l 425 1282 m 446 1131 q 306 1173 355 1131 q 251 1292 258 1215 l 292 1292 q 334 1201 299 1231 q 446 1172 369 1172 q 558 1201 522 1172 q 603 1292 594 1231 l 643 1292 q 587 1173 637 1216 q 446 1131 537 1131 z "},"Ẵ":{"ha":893,"x_min":26,"x_max":867,"o":"m 815 0 l 677 367 l 215 367 l 76 0 l 26 0 l 417 1028 l 476 1028 l 867 0 l 815 0 m 232 413 l 660 413 l 446 978 l 232 413 m 540 1343 q 492 1350 515 1343 q 437 1372 469 1358 q 391 1390 409 1384 q 355 1396 372 1396 q 299 1384 324 1396 q 251 1347 274 1372 l 251 1393 q 355 1435 290 1435 q 402 1428 379 1435 q 458 1407 426 1421 q 504 1389 485 1394 q 540 1383 522 1383 q 596 1395 571 1383 q 643 1432 621 1407 l 643 1385 q 540 1343 605 1343 m 446 1131 q 306 1173 355 1131 q 251 1292 258 1215 l 292 1292 q 334 1201 299 1231 q 446 1172 369 1172 q 558 1201 522 1172 q 603 1292 594 1231 l 643 1292 q 587 1173 637 1216 q 446 1131 537 1131 z "},"Â":{"ha":893,"x_min":26,"x_max":867,"o":"m 815 0 l 677 367 l 215 367 l 76 0 l 26 0 l 417 1028 l 476 1028 l 867 0 l 815 0 m 232 413 l 660 413 l 446 978 l 232 413 m 640 1122 l 584 1122 l 447 1281 l 310 1122 l 254 1122 l 421 1311 l 474 1311 l 640 1122 z "},"Ấ":{"ha":893,"x_min":26,"x_max":867,"o":"m 815 0 l 677 367 l 215 367 l 76 0 l 26 0 l 417 1028 l 476 1028 l 867 0 l 815 0 m 232 413 l 660 413 l 446 978 l 232 413 m 717 1433 l 772 1433 l 640 1244 l 596 1244 l 717 1433 m 421 1311 l 474 1311 l 640 1122 l 584 1122 l 447 1281 l 310 1122 l 254 1122 l 421 1311 z "},"Ậ":{"ha":893,"x_min":26,"x_max":867,"o":"m 815 0 l 677 367 l 215 367 l 76 0 l 26 0 l 417 1028 l 476 1028 l 867 0 l 815 0 m 232 413 l 660 413 l 446 978 l 232 413 m 447 -215 q 416 -203 428 -215 q 404 -172 404 -192 q 416 -140 404 -153 q 447 -128 428 -128 q 478 -140 466 -128 q 490 -172 490 -153 q 478 -203 490 -192 q 447 -215 466 -215 m 640 1122 l 584 1122 l 447 1281 l 310 1122 l 254 1122 l 421 1311 l 474 1311 l 640 1122 z "},"Ầ":{"ha":893,"x_min":26,"x_max":867,"o":"m 815 0 l 677 367 l 215 367 l 76 0 l 26 0 l 417 1028 l 476 1028 l 867 0 l 815 0 m 232 413 l 660 413 l 446 978 l 232 413 m 654 1244 l 610 1244 l 478 1433 l 533 1433 l 654 1244 m 421 1311 l 474 1311 l 640 1122 l 584 1122 l 447 1281 l 310 1122 l 254 1122 l 421 1311 z "},"Ẩ":{"ha":893,"x_min":26,"x_max":867,"o":"m 815 0 l 677 367 l 215 367 l 76 0 l 26 0 l 417 1028 l 476 1028 l 867 0 l 815 0 m 232 413 l 660 413 l 446 978 l 232 413 m 628 1433 q 722 1413 691 1433 q 753 1360 753 1393 q 738 1319 753 1333 q 692 1292 722 1305 q 654 1271 667 1281 q 640 1244 642 1262 l 596 1244 q 607 1278 597 1265 q 630 1299 617 1291 q 665 1315 643 1306 q 701 1335 690 1326 q 713 1359 713 1344 q 694 1386 713 1377 q 628 1396 676 1396 q 559 1390 592 1396 q 492 1370 527 1383 l 492 1408 q 628 1433 549 1433 m 421 1311 l 474 1311 l 640 1122 l 584 1122 l 447 1281 l 310 1122 l 254 1122 l 421 1311 z "},"Ẫ":{"ha":893,"x_min":26,"x_max":867,"o":"m 815 0 l 677 367 l 215 367 l 76 0 l 26 0 l 417 1028 l 476 1028 l 867 0 l 815 0 m 232 413 l 660 413 l 446 978 l 232 413 m 538 1383 q 593 1395 569 1383 q 640 1432 618 1407 l 640 1385 q 596 1354 622 1365 q 538 1343 570 1343 q 491 1350 514 1343 q 437 1372 468 1358 q 391 1390 408 1384 q 356 1396 374 1396 q 301 1384 326 1396 q 254 1347 276 1372 l 254 1393 q 298 1424 272 1413 q 356 1435 324 1435 q 403 1428 381 1435 q 458 1407 426 1421 q 503 1389 486 1394 q 538 1383 521 1383 m 421 1311 l 474 1311 l 640 1122 l 584 1122 l 447 1281 l 310 1122 l 254 1122 l 421 1311 z "},"Ȁ":{"ha":893,"x_min":26,"x_max":867,"o":"m 815 0 l 677 367 l 215 367 l 76 0 l 26 0 l 417 1028 l 476 1028 l 867 0 l 815 0 m 232 413 l 660 413 l 446 978 l 232 413 m 324 1122 l 233 1311 l 281 1311 l 366 1122 l 324 1122 m 528 1122 l 438 1311 l 485 1311 l 571 1122 l 528 1122 z "},"Ä":{"ha":893,"x_min":26,"x_max":867,"o":"m 815 0 l 677 367 l 215 367 l 76 0 l 26 0 l 417 1028 l 476 1028 l 867 0 l 815 0 m 232 413 l 660 413 l 446 978 l 232 413 m 294 1174 q 264 1185 276 1174 q 251 1217 251 1197 q 264 1249 251 1236 q 294 1261 276 1261 q 325 1249 313 1261 q 338 1217 338 1236 q 325 1185 338 1197 q 294 1174 313 1174 m 600 1174 q 569 1185 581 1174 q 557 1217 557 1197 q 569 1249 557 1236 q 600 1261 581 1261 q 631 1249 619 1261 q 643 1217 643 1236 q 631 1185 643 1197 q 600 1174 619 1174 z "},"Ạ":{"ha":893,"x_min":26,"x_max":867,"o":"m 815 0 l 677 367 l 215 367 l 76 0 l 26 0 l 417 1028 l 476 1028 l 867 0 l 815 0 m 232 413 l 660 413 l 446 978 l 232 413 m 447 -215 q 416 -203 428 -215 q 404 -172 404 -192 q 416 -140 404 -153 q 447 -128 428 -128 q 478 -140 466 -128 q 490 -172 490 -153 q 478 -203 490 -192 q 447 -215 466 -215 z "},"À":{"ha":893,"x_min":26,"x_max":867,"o":"m 815 0 l 677 367 l 215 367 l 76 0 l 26 0 l 417 1028 l 476 1028 l 867 0 l 815 0 m 232 413 l 660 413 l 446 978 l 232 413 m 425 1122 l 293 1311 l 348 1311 l 469 1122 l 425 1122 z "},"Ả":{"ha":893,"x_min":26,"x_max":867,"o":"m 815 0 l 677 367 l 215 367 l 76 0 l 26 0 l 417 1028 l 476 1028 l 867 0 l 815 0 m 232 413 l 660 413 l 446 978 l 232 413 m 425 1122 q 436 1156 426 1142 q 459 1176 446 1169 q 494 1193 472 1184 q 530 1213 519 1204 q 542 1237 542 1222 q 523 1264 542 1255 q 458 1274 505 1274 q 389 1267 421 1274 q 321 1248 356 1261 l 321 1286 q 458 1311 378 1311 q 551 1291 520 1311 q 583 1238 583 1271 q 567 1197 583 1210 q 521 1169 551 1183 q 483 1149 496 1158 q 469 1122 471 1140 l 425 1122 z "},"Ȃ":{"ha":893,"x_min":26,"x_max":867,"o":"m 815 0 l 677 367 l 215 367 l 76 0 l 26 0 l 417 1028 l 476 1028 l 867 0 l 815 0 m 232 413 l 660 413 l 446 978 l 232 413 m 251 1142 q 306 1260 258 1218 q 446 1303 355 1303 q 587 1260 537 1303 q 643 1142 637 1217 l 603 1142 q 558 1232 594 1203 q 446 1262 522 1262 q 334 1232 369 1262 q 292 1142 299 1203 l 251 1142 z "},"Ā":{"ha":893,"x_min":26,"x_max":867,"o":"m 815 0 l 677 367 l 215 367 l 76 0 l 26 0 l 417 1028 l 476 1028 l 867 0 l 815 0 m 232 413 l 660 413 l 446 978 l 232 413 m 260 1197 l 260 1238 l 635 1238 l 635 1197 l 260 1197 z "},"Ą":{"ha":893,"x_min":26,"x_max":954,"o":"m 836 -242 q 890 -235 863 -242 q 954 -213 917 -228 l 954 -251 q 838 -278 896 -278 q 731 -247 769 -278 q 693 -160 693 -217 q 721 -70 693 -112 q 811 10 749 -28 l 677 367 l 215 367 l 76 0 l 26 0 l 417 1028 l 476 1028 l 867 0 q 762 -77 792 -40 q 732 -158 732 -115 q 758 -220 732 -199 q 836 -242 785 -242 m 232 413 l 660 413 l 446 978 l 232 413 z "},"Å":{"ha":893,"x_min":26,"x_max":867,"o":"m 677 367 l 215 367 l 76 0 l 26 0 l 406 1001 q 345 1046 368 1013 q 322 1122 322 1078 q 338 1187 322 1158 q 384 1233 355 1216 q 449 1249 413 1249 q 515 1233 485 1249 q 560 1187 544 1216 q 577 1122 577 1158 q 552 1043 577 1076 q 488 999 528 1010 l 867 0 l 815 0 l 677 367 m 359 1122 q 384 1055 359 1079 q 449 1030 409 1030 q 515 1055 490 1030 q 540 1122 540 1079 q 515 1189 540 1164 q 449 1213 490 1213 q 384 1189 409 1213 q 359 1122 359 1164 m 232 413 l 660 413 l 446 978 l 232 413 z "},"Ǻ":{"ha":893,"x_min":26,"x_max":867,"o":"m 677 367 l 215 367 l 76 0 l 26 0 l 406 1001 q 345 1046 368 1013 q 322 1122 322 1079 q 338 1188 322 1158 q 384 1233 355 1217 q 449 1250 413 1250 q 521 1230 488 1250 l 617 1325 l 673 1325 l 549 1205 q 570 1167 563 1189 q 577 1122 577 1146 q 552 1044 577 1077 q 487 999 528 1011 l 867 0 l 815 0 l 677 367 m 359 1122 q 384 1055 359 1080 q 449 1031 409 1031 q 515 1055 490 1031 q 540 1122 540 1080 q 515 1189 540 1165 q 449 1214 490 1214 q 384 1189 409 1214 q 359 1122 359 1165 m 232 413 l 660 413 l 446 978 l 232 413 z "},"Ã":{"ha":893,"x_min":26,"x_max":867,"o":"m 815 0 l 677 367 l 215 367 l 76 0 l 26 0 l 417 1028 l 476 1028 l 867 0 l 815 0 m 232 413 l 660 413 l 446 978 l 232 413 m 547 1178 q 495 1186 520 1178 q 438 1207 471 1193 q 388 1225 408 1219 q 347 1231 367 1231 q 288 1219 313 1231 q 240 1182 263 1208 l 240 1228 q 347 1271 278 1271 q 399 1264 374 1271 q 457 1242 424 1256 q 507 1224 487 1230 q 547 1218 527 1218 q 607 1230 581 1218 q 655 1267 632 1242 l 655 1221 q 547 1178 617 1178 z "},"Æ":{"ha":1219,"x_min":26,"x_max":1169,"o":"m 683 46 l 1169 46 l 1169 0 l 638 0 l 614 367 l 218 367 l 76 0 l 26 0 l 424 1028 l 1163 1028 l 1163 982 l 622 982 l 649 551 l 1097 551 l 1097 506 l 653 506 l 683 46 m 235 413 l 611 413 l 575 982 l 455 982 l 235 413 z "},"Ǽ":{"ha":1219,"x_min":26,"x_max":1169,"o":"m 683 46 l 1169 46 l 1169 0 l 638 0 l 614 367 l 218 367 l 76 0 l 26 0 l 424 1028 l 1163 1028 l 1163 982 l 622 982 l 649 551 l 1097 551 l 1097 506 l 653 506 l 683 46 m 235 413 l 611 413 l 575 982 l 455 982 l 235 413 m 575 1122 l 697 1311 l 751 1311 l 619 1122 l 575 1122 z "},"B":{"ha":844,"x_min":132,"x_max":786,"o":"m 565 531 q 732 444 678 512 q 786 274 786 377 q 743 118 786 180 q 608 25 701 56 q 365 -7 515 -7 q 249 -4 303 -7 q 132 7 195 -1 l 132 1014 q 253 1032 194 1026 q 387 1038 313 1038 q 668 972 580 1038 q 756 771 756 907 q 711 617 756 680 q 565 531 665 553 m 386 992 q 179 976 267 992 l 179 551 l 412 551 q 639 605 569 551 q 708 771 708 659 q 676 899 708 851 q 573 969 644 947 q 386 992 503 992 m 366 39 q 585 65 504 39 q 702 141 667 90 q 738 274 738 192 q 663 449 738 392 q 431 506 588 506 l 179 506 l 179 50 q 366 39 257 39 z "},"C":{"ha":765,"x_min":82,"x_max":740,"o":"m 506 -12 q 193 110 305 -12 q 82 513 82 232 q 194 915 82 789 q 517 1040 307 1040 q 740 1008 630 1040 l 740 960 q 514 994 633 994 q 305 948 389 994 q 176 795 221 901 q 132 515 132 690 q 177 230 132 336 q 305 78 222 123 q 506 33 387 33 q 621 43 567 33 q 740 75 676 53 l 740 28 q 506 -12 630 -12 z "},"Ć":{"ha":765,"x_min":82,"x_max":740,"o":"m 506 -12 q 193 110 305 -12 q 82 513 82 232 q 194 915 82 789 q 517 1040 307 1040 q 740 1008 630 1040 l 740 960 q 514 994 633 994 q 305 948 389 994 q 176 795 221 901 q 132 515 132 690 q 177 230 132 336 q 305 78 222 123 q 506 33 387 33 q 621 43 567 33 q 740 75 676 53 l 740 28 q 506 -12 630 -12 m 446 1122 l 567 1311 l 622 1311 l 490 1122 l 446 1122 z "},"Č":{"ha":765,"x_min":82,"x_max":740,"o":"m 506 -12 q 193 110 305 -12 q 82 513 82 232 q 194 915 82 789 q 517 1040 307 1040 q 740 1008 630 1040 l 740 960 q 514 994 633 994 q 305 948 389 994 q 176 795 221 901 q 132 515 132 690 q 177 230 132 336 q 305 78 222 123 q 506 33 387 33 q 621 43 567 33 q 740 75 676 53 l 740 28 q 506 -12 630 -12 m 605 1311 l 661 1311 l 494 1122 l 442 1122 l 275 1311 l 331 1311 l 468 1153 l 605 1311 z "},"Ç":{"ha":765,"x_min":82,"x_max":740,"o":"m 514 994 q 305 948 389 994 q 176 795 221 901 q 132 515 132 690 q 177 230 132 336 q 305 78 222 123 q 506 33 387 33 q 621 43 567 33 q 740 75 676 53 l 740 28 q 506 -12 630 -12 l 498 -12 l 498 -78 q 586 -106 553 -80 q 619 -178 619 -131 q 584 -252 619 -226 q 487 -278 548 -278 q 420 -271 454 -278 q 357 -251 385 -264 l 357 -212 q 425 -235 394 -228 q 487 -242 456 -242 q 556 -226 532 -242 q 581 -178 581 -210 q 485 -114 581 -114 l 459 -114 l 459 -11 q 181 125 279 2 q 82 513 82 249 q 194 915 82 789 q 517 1040 307 1040 q 740 1008 630 1040 l 740 960 q 514 994 633 994 z "},"Ḉ":{"ha":765,"x_min":82,"x_max":740,"o":"m 622 1311 l 490 1122 l 446 1122 l 567 1311 l 622 1311 m 514 994 q 305 948 389 994 q 176 795 221 901 q 132 515 132 690 q 177 230 132 336 q 305 78 222 123 q 506 33 387 33 q 621 43 567 33 q 740 75 676 53 l 740 28 q 506 -12 630 -12 l 498 -12 l 498 -78 q 586 -106 553 -80 q 619 -178 619 -131 q 584 -252 619 -226 q 487 -278 548 -278 q 420 -271 454 -278 q 357 -251 385 -264 l 357 -212 q 425 -235 394 -228 q 487 -242 456 -242 q 556 -226 532 -242 q 581 -178 581 -210 q 485 -114 581 -114 l 459 -114 l 459 -11 q 181 125 279 2 q 82 513 82 249 q 194 915 82 789 q 517 1040 307 1040 q 740 1008 630 1040 l 740 960 q 514 994 633 994 z "},"Ĉ":{"ha":765,"x_min":82,"x_max":740,"o":"m 506 -12 q 193 110 305 -12 q 82 513 82 232 q 194 915 82 789 q 517 1040 307 1040 q 740 1008 630 1040 l 740 960 q 514 994 633 994 q 305 948 389 994 q 176 795 221 901 q 132 515 132 690 q 177 230 132 336 q 305 78 222 123 q 506 33 387 33 q 621 43 567 33 q 740 75 676 53 l 740 28 q 506 -12 630 -12 m 661 1122 l 605 1122 l 468 1281 l 331 1122 l 275 1122 l 442 1311 l 494 1311 l 661 1122 z "},"Ċ":{"ha":765,"x_min":82,"x_max":740,"o":"m 506 -12 q 193 110 305 -12 q 82 513 82 232 q 194 915 82 789 q 517 1040 307 1040 q 740 1008 630 1040 l 740 960 q 514 994 633 994 q 305 948 389 994 q 176 795 221 901 q 132 515 132 690 q 177 230 132 336 q 305 78 222 123 q 506 33 387 33 q 621 43 567 33 q 740 75 676 53 l 740 28 q 506 -12 630 -12 m 468 1174 q 437 1185 449 1174 q 425 1217 425 1197 q 437 1249 425 1236 q 468 1261 449 1261 q 499 1249 487 1261 q 511 1217 511 1236 q 499 1185 511 1197 q 468 1174 487 1174 z "},"D":{"ha":933,"x_min":132,"x_max":851,"o":"m 353 -7 q 248 -4 297 -7 q 132 7 199 -1 l 132 1015 q 367 1038 252 1038 q 729 908 608 1038 q 851 514 851 778 q 726 120 851 247 q 353 -7 601 -7 m 354 39 q 603 89 505 39 q 751 243 702 138 q 801 514 801 348 q 693 876 801 760 q 364 992 586 992 q 179 976 282 992 l 179 50 q 354 39 256 39 z "},"Ǳ":{"ha":1665,"x_min":132,"x_max":1621,"o":"m 353 -7 q 248 -4 297 -7 q 132 7 199 -1 l 132 1015 q 367 1038 252 1038 q 729 908 608 1038 q 851 514 851 778 q 726 120 851 247 q 353 -7 601 -7 m 354 39 q 603 89 505 39 q 751 243 702 138 q 801 514 801 348 q 693 876 801 760 q 364 992 586 992 q 179 976 282 992 l 179 50 q 354 39 256 39 m 1008 44 l 1621 44 l 1621 0 l 942 0 l 942 28 l 1547 983 l 951 983 l 951 1028 l 1613 1028 l 1613 1000 l 1008 44 z "},"Ǆ":{"ha":1665,"x_min":132,"x_max":1621,"o":"m 353 -7 q 248 -4 297 -7 q 132 7 199 -1 l 132 1015 q 367 1038 252 1038 q 729 908 608 1038 q 851 514 851 778 q 726 120 851 247 q 353 -7 601 -7 m 354 39 q 603 89 505 39 q 751 243 702 138 q 801 514 801 348 q 693 876 801 760 q 364 992 586 992 q 179 976 282 992 l 179 50 q 354 39 256 39 m 1008 44 l 1621 44 l 1621 0 l 942 0 l 942 28 l 1547 983 l 951 983 l 951 1028 l 1613 1028 l 1613 1000 l 1008 44 m 1419 1311 l 1475 1311 l 1308 1122 l 1256 1122 l 1089 1311 l 1145 1311 l 1282 1153 l 1419 1311 z "},"Ð":{"ha":933,"x_min":1,"x_max":851,"o":"m 367 1038 q 729 908 608 1038 q 851 514 851 778 q 726 120 851 247 q 353 -7 601 -7 q 248 -4 297 -7 q 132 7 199 -1 l 132 508 l 1 508 l 1 550 l 132 550 l 132 1015 q 367 1038 252 1038 m 354 39 q 603 89 505 39 q 751 243 702 138 q 801 514 801 348 q 693 876 801 760 q 364 992 586 992 q 179 976 282 992 l 179 550 l 432 550 l 432 508 l 179 508 l 179 50 q 354 39 256 39 z "},"Ď":{"ha":933,"x_min":132,"x_max":851,"o":"m 353 -7 q 248 -4 297 -7 q 132 7 199 -1 l 132 1015 q 367 1038 252 1038 q 729 908 608 1038 q 851 514 851 778 q 726 120 851 247 q 353 -7 601 -7 m 354 39 q 603 89 505 39 q 751 243 702 138 q 801 514 801 348 q 693 876 801 760 q 364 992 586 992 q 179 976 282 992 l 179 50 q 354 39 256 39 m 561 1311 l 617 1311 l 451 1122 l 398 1122 l 231 1311 l 288 1311 l 424 1153 l 561 1311 z "},"Đ":{"ha":933,"x_min":1,"x_max":851,"o":"m 367 1038 q 729 908 608 1038 q 851 514 851 778 q 726 120 851 247 q 353 -7 601 -7 q 248 -4 297 -7 q 132 7 199 -1 l 132 508 l 1 508 l 1 550 l 132 550 l 132 1015 q 367 1038 252 1038 m 354 39 q 603 89 505 39 q 751 243 702 138 q 801 514 801 348 q 693 876 801 760 q 364 992 586 992 q 179 976 282 992 l 179 550 l 432 550 l 432 508 l 179 508 l 179 50 q 354 39 256 39 z "},"Ḍ":{"ha":933,"x_min":132,"x_max":851,"o":"m 353 -7 q 248 -4 297 -7 q 132 7 199 -1 l 132 1015 q 367 1038 252 1038 q 729 908 608 1038 q 851 514 851 778 q 726 120 851 247 q 353 -7 601 -7 m 354 39 q 603 89 505 39 q 751 243 702 138 q 801 514 801 348 q 693 876 801 760 q 364 992 586 992 q 179 976 282 992 l 179 50 q 354 39 256 39 m 424 -215 q 393 -203 406 -215 q 381 -172 381 -192 q 393 -140 381 -153 q 424 -128 406 -128 q 455 -140 443 -128 q 467 -172 467 -153 q 455 -203 467 -192 q 424 -215 443 -215 z "},"Ḏ":{"ha":933,"x_min":132,"x_max":851,"o":"m 353 -7 q 248 -4 297 -7 q 132 7 199 -1 l 132 1015 q 367 1038 252 1038 q 729 908 608 1038 q 851 514 851 778 q 726 120 851 247 q 353 -7 601 -7 m 354 39 q 603 89 505 39 q 751 243 702 138 q 801 514 801 348 q 693 876 801 760 q 364 992 586 992 q 179 976 282 992 l 179 50 q 354 39 256 39 m 237 -193 l 237 -152 l 612 -152 l 612 -193 l 237 -193 z "},"ǲ":{"ha":1533,"x_min":132,"x_max":1494,"o":"m 353 -7 q 248 -4 297 -7 q 132 7 199 -1 l 132 1015 q 367 1038 252 1038 q 729 908 608 1038 q 851 514 851 778 q 726 120 851 247 q 353 -7 601 -7 m 354 39 q 603 89 505 39 q 751 243 702 138 q 801 514 801 348 q 693 876 801 760 q 364 992 586 992 q 179 976 282 992 l 179 50 q 354 39 256 39 m 1040 44 l 1494 44 l 1494 0 l 975 0 l 975 28 l 1421 706 l 983 706 l 983 750 l 1485 750 l 1485 722 l 1040 44 z "},"ǅ":{"ha":1533,"x_min":132,"x_max":1494,"o":"m 353 -7 q 248 -4 297 -7 q 132 7 199 -1 l 132 1015 q 367 1038 252 1038 q 729 908 608 1038 q 851 514 851 778 q 726 120 851 247 q 353 -7 601 -7 m 354 39 q 603 89 505 39 q 751 243 702 138 q 801 514 801 348 q 693 876 801 760 q 364 992 586 992 q 179 976 282 992 l 179 50 q 354 39 256 39 m 1040 44 l 1494 44 l 1494 0 l 975 0 l 975 28 l 1421 706 l 983 706 l 983 750 l 1485 750 l 1485 722 l 1040 44 m 1372 1089 l 1428 1089 l 1261 900 l 1208 900 l 1042 1089 l 1098 1089 l 1235 931 l 1372 1089 z "},"E":{"ha":774,"x_min":132,"x_max":725,"o":"m 179 46 l 725 46 l 725 0 l 132 0 l 132 1028 l 718 1028 l 718 982 l 179 982 l 179 551 l 652 551 l 652 506 l 179 506 l 179 46 z "},"É":{"ha":774,"x_min":132,"x_max":725,"o":"m 179 46 l 725 46 l 725 0 l 132 0 l 132 1028 l 718 1028 l 718 982 l 179 982 l 179 551 l 652 551 l 652 506 l 179 506 l 179 46 m 418 1122 l 540 1311 l 594 1311 l 463 1122 l 418 1122 z "},"Ĕ":{"ha":774,"x_min":132,"x_max":725,"o":"m 179 46 l 725 46 l 725 0 l 132 0 l 132 1028 l 718 1028 l 718 982 l 179 982 l 179 551 l 652 551 l 652 506 l 179 506 l 179 46 m 442 1131 q 301 1173 351 1131 q 244 1292 251 1216 l 285 1292 q 329 1201 293 1231 q 442 1172 365 1172 q 553 1201 518 1172 q 596 1292 589 1231 l 636 1292 q 581 1173 630 1215 q 442 1131 533 1131 z "},"Ě":{"ha":774,"x_min":132,"x_max":725,"o":"m 179 46 l 725 46 l 725 0 l 132 0 l 132 1028 l 718 1028 l 718 982 l 179 982 l 179 551 l 652 551 l 652 506 l 179 506 l 179 46 m 577 1311 l 633 1311 l 467 1122 l 414 1122 l 247 1311 l 303 1311 l 440 1153 l 577 1311 z "},"Ḝ":{"ha":774,"x_min":132,"x_max":725,"o":"m 442 1131 q 301 1173 351 1131 q 244 1292 251 1216 l 285 1292 q 329 1201 293 1231 q 442 1172 365 1172 q 553 1201 518 1172 q 596 1292 589 1231 l 636 1292 q 581 1173 630 1215 q 442 1131 533 1131 m 461 0 l 461 -78 q 550 -106 517 -80 q 583 -178 583 -131 q 547 -252 583 -226 q 450 -278 511 -278 q 383 -271 417 -278 q 320 -251 349 -264 l 320 -212 q 388 -235 358 -228 q 450 -242 419 -242 q 519 -226 495 -242 q 544 -178 544 -210 q 449 -114 544 -114 l 422 -114 l 422 0 l 132 0 l 132 1028 l 718 1028 l 718 982 l 179 982 l 179 551 l 652 551 l 652 506 l 179 506 l 179 46 l 725 46 l 725 0 l 461 0 z "},"Ê":{"ha":774,"x_min":132,"x_max":725,"o":"m 179 46 l 725 46 l 725 0 l 132 0 l 132 1028 l 718 1028 l 718 982 l 179 982 l 179 551 l 652 551 l 652 506 l 179 506 l 179 46 m 633 1122 l 577 1122 l 440 1281 l 303 1122 l 247 1122 l 414 1311 l 467 1311 l 633 1122 z "},"Ế":{"ha":774,"x_min":132,"x_max":765,"o":"m 179 46 l 725 46 l 725 0 l 132 0 l 132 1028 l 718 1028 l 718 982 l 179 982 l 179 551 l 652 551 l 652 506 l 179 506 l 179 46 m 710 1433 l 765 1433 l 633 1244 l 589 1244 l 710 1433 m 414 1311 l 467 1311 l 633 1122 l 577 1122 l 440 1281 l 303 1122 l 247 1122 l 414 1311 z "},"Ệ":{"ha":774,"x_min":132,"x_max":725,"o":"m 179 46 l 725 46 l 725 0 l 132 0 l 132 1028 l 718 1028 l 718 982 l 179 982 l 179 551 l 652 551 l 652 506 l 179 506 l 179 46 m 442 -215 q 411 -203 423 -215 q 399 -172 399 -192 q 411 -140 399 -153 q 442 -128 423 -128 q 473 -140 460 -128 q 485 -172 485 -153 q 473 -203 485 -192 q 442 -215 460 -215 m 633 1122 l 577 1122 l 440 1281 l 303 1122 l 247 1122 l 414 1311 l 467 1311 l 633 1122 z "},"Ề":{"ha":774,"x_min":132,"x_max":725,"o":"m 179 46 l 725 46 l 725 0 l 132 0 l 132 1028 l 718 1028 l 718 982 l 179 982 l 179 551 l 652 551 l 652 506 l 179 506 l 179 46 m 647 1244 l 603 1244 l 471 1433 l 526 1433 l 647 1244 m 414 1311 l 467 1311 l 633 1122 l 577 1122 l 440 1281 l 303 1122 l 247 1122 l 414 1311 z "},"Ể":{"ha":774,"x_min":132,"x_max":747,"o":"m 179 46 l 725 46 l 725 0 l 132 0 l 132 1028 l 718 1028 l 718 982 l 179 982 l 179 551 l 652 551 l 652 506 l 179 506 l 179 46 m 622 1433 q 715 1413 684 1433 q 747 1360 747 1393 q 731 1319 747 1333 q 685 1292 715 1305 q 647 1271 660 1281 q 633 1244 635 1262 l 589 1244 q 600 1278 590 1265 q 623 1299 610 1291 q 658 1315 636 1306 q 694 1335 683 1326 q 706 1359 706 1344 q 687 1386 706 1377 q 622 1396 669 1396 q 552 1390 585 1396 q 485 1370 520 1383 l 485 1408 q 622 1433 542 1433 m 414 1311 l 467 1311 l 633 1122 l 577 1122 l 440 1281 l 303 1122 l 247 1122 l 414 1311 z "},"Ễ":{"ha":774,"x_min":132,"x_max":725,"o":"m 179 46 l 725 46 l 725 0 l 132 0 l 132 1028 l 718 1028 l 718 982 l 179 982 l 179 551 l 652 551 l 652 506 l 179 506 l 179 46 m 531 1383 q 586 1395 562 1383 q 633 1432 611 1407 l 633 1385 q 589 1354 615 1365 q 531 1343 563 1343 q 484 1350 507 1343 q 430 1372 461 1358 q 384 1390 401 1384 q 349 1396 367 1396 q 294 1384 319 1396 q 247 1347 269 1372 l 247 1393 q 291 1424 265 1413 q 349 1435 317 1435 q 397 1428 374 1435 q 451 1407 419 1421 q 497 1389 479 1394 q 531 1383 514 1383 m 414 1311 l 467 1311 l 633 1122 l 577 1122 l 440 1281 l 303 1122 l 247 1122 l 414 1311 z "},"Ȅ":{"ha":774,"x_min":132,"x_max":725,"o":"m 179 46 l 725 46 l 725 0 l 132 0 l 132 1028 l 718 1028 l 718 982 l 179 982 l 179 551 l 652 551 l 652 506 l 179 506 l 179 46 m 317 1122 l 226 1311 l 274 1311 l 359 1122 l 317 1122 m 522 1122 l 431 1311 l 478 1311 l 564 1122 l 522 1122 z "},"Ë":{"ha":774,"x_min":132,"x_max":725,"o":"m 179 46 l 725 46 l 725 0 l 132 0 l 132 1028 l 718 1028 l 718 982 l 179 982 l 179 551 l 652 551 l 652 506 l 179 506 l 179 46 m 288 1174 q 257 1185 269 1174 q 244 1217 244 1197 q 257 1249 244 1236 q 288 1261 269 1261 q 318 1249 306 1261 q 331 1217 331 1236 q 318 1185 331 1197 q 288 1174 306 1174 m 593 1174 q 562 1185 574 1174 q 550 1217 550 1197 q 562 1249 550 1236 q 593 1261 574 1261 q 624 1249 612 1261 q 636 1217 636 1236 q 624 1185 636 1197 q 593 1174 612 1174 z "},"Ė":{"ha":774,"x_min":132,"x_max":725,"o":"m 179 46 l 725 46 l 725 0 l 132 0 l 132 1028 l 718 1028 l 718 982 l 179 982 l 179 551 l 652 551 l 652 506 l 179 506 l 179 46 m 440 1174 q 409 1185 422 1174 q 397 1217 397 1197 q 409 1249 397 1236 q 440 1261 422 1261 q 471 1249 459 1261 q 483 1217 483 1236 q 471 1185 483 1197 q 440 1174 459 1174 z "},"Ẹ":{"ha":774,"x_min":132,"x_max":725,"o":"m 179 46 l 725 46 l 725 0 l 132 0 l 132 1028 l 718 1028 l 718 982 l 179 982 l 179 551 l 652 551 l 652 506 l 179 506 l 179 46 m 442 -215 q 411 -203 423 -215 q 399 -172 399 -192 q 411 -140 399 -153 q 442 -128 423 -128 q 473 -140 460 -128 q 485 -172 485 -153 q 473 -203 485 -192 q 442 -215 460 -215 z "},"È":{"ha":774,"x_min":132,"x_max":725,"o":"m 179 46 l 725 46 l 725 0 l 132 0 l 132 1028 l 718 1028 l 718 982 l 179 982 l 179 551 l 652 551 l 652 506 l 179 506 l 179 46 m 418 1122 l 286 1311 l 341 1311 l 463 1122 l 418 1122 z "},"Ẻ":{"ha":774,"x_min":132,"x_max":725,"o":"m 179 46 l 725 46 l 725 0 l 132 0 l 132 1028 l 718 1028 l 718 982 l 179 982 l 179 551 l 652 551 l 652 506 l 179 506 l 179 46 m 418 1122 q 429 1156 419 1142 q 452 1176 439 1169 q 487 1193 465 1184 q 523 1213 512 1204 q 535 1237 535 1222 q 516 1264 535 1255 q 451 1274 498 1274 q 382 1267 414 1274 q 314 1248 349 1261 l 314 1286 q 451 1311 372 1311 q 544 1291 513 1311 q 576 1238 576 1271 q 560 1197 576 1210 q 514 1169 544 1183 q 476 1149 489 1158 q 462 1122 464 1140 l 418 1122 z "},"Ȇ":{"ha":774,"x_min":132,"x_max":725,"o":"m 179 46 l 725 46 l 725 0 l 132 0 l 132 1028 l 718 1028 l 718 982 l 179 982 l 179 551 l 652 551 l 652 506 l 179 506 l 179 46 m 244 1142 q 299 1260 251 1218 q 439 1303 348 1303 q 580 1260 530 1303 q 636 1142 630 1217 l 596 1142 q 551 1232 588 1203 q 439 1262 515 1262 q 327 1232 363 1262 q 285 1142 292 1203 l 244 1142 z "},"Ē":{"ha":774,"x_min":132,"x_max":725,"o":"m 179 46 l 725 46 l 725 0 l 132 0 l 132 1028 l 718 1028 l 718 982 l 179 982 l 179 551 l 652 551 l 652 506 l 179 506 l 179 46 m 253 1197 l 253 1238 l 628 1238 l 628 1197 l 253 1197 z "},"Ḗ":{"ha":774,"x_min":132,"x_max":725,"o":"m 179 46 l 725 46 l 725 0 l 132 0 l 132 1028 l 718 1028 l 718 982 l 179 982 l 179 551 l 652 551 l 652 506 l 179 506 l 179 46 m 418 1308 l 539 1469 l 594 1469 l 463 1308 l 418 1308 m 253 1197 l 253 1238 l 628 1238 l 628 1197 l 253 1197 z "},"Ḕ":{"ha":774,"x_min":132,"x_max":725,"o":"m 179 46 l 725 46 l 725 0 l 132 0 l 132 1028 l 718 1028 l 718 982 l 179 982 l 179 551 l 652 551 l 652 506 l 179 506 l 179 46 m 418 1308 l 286 1469 l 341 1469 l 463 1308 l 418 1308 m 253 1197 l 253 1238 l 628 1238 l 628 1197 l 253 1197 z "},"Ę":{"ha":774,"x_min":132,"x_max":756,"o":"m 638 -242 q 692 -235 665 -242 q 756 -213 719 -228 l 756 -251 q 640 -278 698 -278 q 533 -247 571 -278 q 495 -160 495 -217 q 519 -76 495 -115 q 597 0 543 -37 l 132 0 l 132 1028 l 718 1028 l 718 982 l 179 982 l 179 551 l 652 551 l 652 506 l 179 506 l 179 46 l 725 46 l 725 0 l 669 0 q 564 -77 594 -40 q 534 -158 534 -115 q 560 -220 534 -199 q 638 -242 587 -242 z "},"Ẽ":{"ha":774,"x_min":132,"x_max":725,"o":"m 179 46 l 725 46 l 725 0 l 132 0 l 132 1028 l 718 1028 l 718 982 l 179 982 l 179 551 l 652 551 l 652 506 l 179 506 l 179 46 m 540 1178 q 489 1186 513 1178 q 431 1207 464 1193 q 381 1225 401 1219 q 340 1231 360 1231 q 281 1219 306 1231 q 233 1182 256 1208 l 233 1228 q 340 1271 271 1271 q 392 1264 367 1271 q 450 1242 417 1256 q 500 1224 480 1230 q 540 1218 520 1218 q 600 1230 574 1218 q 648 1267 625 1242 l 648 1221 q 540 1178 610 1178 z "},"F":{"ha":746,"x_min":132,"x_max":711,"o":"m 711 982 l 179 982 l 179 551 l 645 551 l 645 506 l 179 506 l 179 0 l 132 0 l 132 1028 l 711 1028 l 711 982 z "},"G":{"ha":903,"x_min":81,"x_max":789,"o":"m 789 500 l 789 12 q 678 -3 726 1 q 574 -7 629 -7 q 206 118 328 -7 q 82 513 83 242 q 203 914 81 788 q 540 1040 325 1040 q 769 1008 651 1040 l 769 960 q 650 987 705 979 q 539 994 595 994 q 239 882 346 994 q 132 516 132 770 q 181 241 132 347 q 327 88 230 136 q 574 39 424 39 q 742 53 666 39 l 742 500 l 789 500 z "},"Ǵ":{"ha":903,"x_min":82,"x_max":789,"o":"m 789 500 l 789 12 q 678 -3 726 1 q 574 -7 629 -7 q 206 118 328 -7 q 82 513 83 242 q 203 914 81 788 q 540 1040 325 1040 q 769 1008 651 1040 l 769 960 q 650 987 705 979 q 539 994 595 994 q 239 882 346 994 q 132 516 132 770 q 181 241 132 347 q 327 88 230 136 q 574 39 424 39 q 742 53 666 39 l 742 500 l 789 500 m 470 1122 l 592 1311 l 647 1311 l 515 1122 l 470 1122 z "},"Ğ":{"ha":903,"x_min":82,"x_max":789,"o":"m 789 500 l 789 12 q 678 -3 726 1 q 574 -7 629 -7 q 206 118 328 -7 q 82 513 83 242 q 203 914 81 788 q 540 1040 325 1040 q 769 1008 651 1040 l 769 960 q 650 987 705 979 q 539 994 595 994 q 239 882 346 994 q 132 516 132 770 q 181 241 132 347 q 327 88 230 136 q 574 39 424 39 q 742 53 666 39 l 742 500 l 789 500 m 494 1131 q 353 1173 403 1131 q 297 1292 303 1216 l 337 1292 q 381 1201 345 1231 q 494 1172 417 1172 q 606 1201 570 1172 q 648 1292 641 1231 l 688 1292 q 633 1173 682 1215 q 494 1131 585 1131 z "},"Ǧ":{"ha":903,"x_min":82,"x_max":789,"o":"m 789 500 l 789 12 q 678 -3 726 1 q 574 -7 629 -7 q 206 118 328 -7 q 82 513 83 242 q 203 914 81 788 q 540 1040 325 1040 q 769 1008 651 1040 l 769 960 q 650 987 705 979 q 539 994 595 994 q 239 882 346 994 q 132 516 132 770 q 181 241 132 347 q 327 88 230 136 q 574 39 424 39 q 742 53 666 39 l 742 500 l 789 500 m 629 1311 l 685 1311 l 519 1122 l 466 1122 l 299 1311 l 356 1311 l 492 1153 l 629 1311 z "},"Ĝ":{"ha":903,"x_min":82,"x_max":789,"o":"m 789 500 l 789 12 q 678 -3 726 1 q 574 -7 629 -7 q 206 118 328 -7 q 82 513 83 242 q 203 914 81 788 q 540 1040 325 1040 q 769 1008 651 1040 l 769 960 q 650 987 705 979 q 539 994 595 994 q 239 882 346 994 q 132 516 132 770 q 181 241 132 347 q 327 88 230 136 q 574 39 424 39 q 742 53 666 39 l 742 500 l 789 500 m 685 1122 l 629 1122 l 492 1281 l 356 1122 l 299 1122 l 466 1311 l 519 1311 l 685 1122 z "},"Ģ":{"ha":903,"x_min":82,"x_max":789,"o":"m 789 500 l 789 12 q 678 -3 726 1 q 574 -7 629 -7 q 206 118 328 -7 q 82 513 83 242 q 203 914 81 788 q 540 1040 325 1040 q 769 1008 651 1040 l 769 960 q 650 987 705 979 q 539 994 595 994 q 239 882 346 994 q 132 516 132 770 q 181 241 132 347 q 327 88 230 136 q 574 39 424 39 q 742 53 666 39 l 742 500 l 789 500 m 490 -128 q 523 -143 511 -128 q 535 -187 535 -158 q 528 -247 535 -214 q 505 -311 520 -281 l 474 -311 q 497 -215 494 -262 l 492 -215 q 461 -203 474 -215 q 449 -171 449 -190 q 461 -140 449 -152 q 490 -128 472 -128 z "},"Ġ":{"ha":903,"x_min":82,"x_max":789,"o":"m 789 500 l 789 12 q 678 -3 726 1 q 574 -7 629 -7 q 206 118 328 -7 q 82 513 83 242 q 203 914 81 788 q 540 1040 325 1040 q 769 1008 651 1040 l 769 960 q 650 987 705 979 q 539 994 595 994 q 239 882 346 994 q 132 516 132 770 q 181 241 132 347 q 327 88 230 136 q 574 39 424 39 q 742 53 666 39 l 742 500 l 789 500 m 492 1174 q 461 1185 474 1174 q 449 1217 449 1197 q 461 1249 449 1236 q 492 1261 474 1261 q 523 1249 511 1261 q 535 1217 535 1236 q 523 1185 535 1197 q 492 1174 511 1174 z "},"Ḡ":{"ha":903,"x_min":82,"x_max":789,"o":"m 789 500 l 789 12 q 678 -3 726 1 q 574 -7 629 -7 q 206 118 328 -7 q 82 513 83 242 q 203 914 81 788 q 540 1040 325 1040 q 769 1008 651 1040 l 769 960 q 650 987 705 979 q 539 994 595 994 q 239 882 346 994 q 132 516 132 770 q 181 241 132 347 q 327 88 230 136 q 574 39 424 39 q 742 53 666 39 l 742 500 l 789 500 m 305 1197 l 305 1238 l 680 1238 l 680 1197 l 305 1197 z "},"H":{"ha":971,"x_min":132,"x_max":839,"o":"m 132 0 l 132 1028 l 179 1028 l 179 551 l 792 551 l 792 1028 l 839 1028 l 839 0 l 792 0 l 792 506 l 179 506 l 179 0 l 132 0 z "},"Ħ":{"ha":971,"x_min":1,"x_max":969,"o":"m 969 813 l 969 771 l 839 771 l 839 0 l 792 0 l 792 506 l 179 506 l 179 0 l 132 0 l 132 771 l 1 771 l 1 813 l 132 813 l 132 1028 l 179 1028 l 179 813 l 792 813 l 792 1028 l 839 1028 l 839 813 l 969 813 m 792 551 l 792 771 l 179 771 l 179 551 l 792 551 z "},"Ḫ":{"ha":971,"x_min":132,"x_max":839,"o":"m 132 0 l 132 1028 l 179 1028 l 179 551 l 792 551 l 792 1028 l 839 1028 l 839 0 l 792 0 l 792 506 l 179 506 l 179 0 l 132 0 m 487 -278 q 342 -233 392 -278 q 290 -111 291 -188 l 330 -111 q 371 -205 333 -173 q 487 -237 408 -237 q 602 -205 565 -237 q 641 -111 639 -173 l 681 -111 q 631 -233 680 -189 q 487 -278 581 -278 z "},"Ĥ":{"ha":971,"x_min":132,"x_max":839,"o":"m 132 0 l 132 1028 l 179 1028 l 179 551 l 792 551 l 792 1028 l 839 1028 l 839 0 l 792 0 l 792 506 l 179 506 l 179 0 l 132 0 m 678 1122 l 622 1122 l 485 1281 l 349 1122 l 292 1122 l 459 1311 l 512 1311 l 678 1122 z "},"Ḥ":{"ha":971,"x_min":132,"x_max":839,"o":"m 132 0 l 132 1028 l 179 1028 l 179 551 l 792 551 l 792 1028 l 839 1028 l 839 0 l 792 0 l 792 506 l 179 506 l 179 0 l 132 0 m 485 -215 q 455 -203 467 -215 q 442 -172 442 -192 q 455 -140 442 -153 q 485 -128 467 -128 q 516 -140 504 -128 q 528 -172 528 -153 q 516 -203 528 -192 q 485 -215 504 -215 z "},"I":{"ha":311,"x_min":132,"x_max":179,"o":"m 132 0 l 132 1028 l 179 1028 l 179 0 l 132 0 z "},"Í":{"ha":311,"x_min":132,"x_max":310,"o":"m 132 0 l 132 1028 l 179 1028 l 179 0 l 132 0 m 133 1122 l 255 1311 l 310 1311 l 178 1122 l 133 1122 z "},"Ĭ":{"ha":311,"x_min":-40,"x_max":351,"o":"m 132 0 l 132 1028 l 179 1028 l 179 0 l 132 0 m 157 1131 q 16 1173 66 1131 q -40 1292 -34 1216 l 0 1292 q 44 1201 8 1231 q 157 1172 81 1172 q 269 1201 233 1172 q 311 1292 304 1231 l 351 1292 q 297 1173 345 1215 q 157 1131 248 1131 z "},"Î":{"ha":311,"x_min":-37,"x_max":349,"o":"m 132 0 l 132 1028 l 179 1028 l 179 0 l 132 0 m 349 1122 l 292 1122 l 156 1281 l 19 1122 l -37 1122 l 129 1311 l 182 1311 l 349 1122 z "},"Ȉ":{"ha":311,"x_min":-58,"x_max":279,"o":"m 132 0 l 132 1028 l 179 1028 l 179 0 l 132 0 m 32 1122 l -58 1311 l -11 1311 l 74 1122 l 32 1122 m 237 1122 l 147 1311 l 194 1311 l 279 1122 l 237 1122 z "},"Ï":{"ha":311,"x_min":-40,"x_max":351,"o":"m 132 0 l 132 1028 l 179 1028 l 179 0 l 132 0 m 3 1174 q -28 1185 -16 1174 q -40 1217 -40 1197 q -28 1249 -40 1236 q 3 1261 -16 1261 q 34 1249 22 1261 q 46 1217 46 1236 q 34 1185 46 1197 q 3 1174 22 1174 m 308 1174 q 277 1185 290 1174 q 265 1217 265 1197 q 277 1249 265 1236 q 308 1261 290 1261 q 339 1249 327 1261 q 351 1217 351 1236 q 339 1185 351 1197 q 308 1174 327 1174 z "},"Ḯ":{"ha":311,"x_min":-40,"x_max":351,"o":"m 132 0 l 132 1028 l 179 1028 l 179 0 l 132 0 m 133 1308 l 254 1469 l 310 1469 l 178 1308 l 133 1308 m 3 1174 q -28 1185 -16 1174 q -40 1217 -40 1197 q -28 1249 -40 1236 q 3 1261 -16 1261 q 34 1249 22 1261 q 46 1217 46 1236 q 34 1185 46 1197 q 3 1174 22 1174 m 308 1174 q 277 1185 290 1174 q 265 1217 265 1197 q 277 1249 265 1236 q 308 1261 290 1261 q 339 1249 327 1261 q 351 1217 351 1236 q 339 1185 351 1197 q 308 1174 327 1174 z "},"İ":{"ha":311,"x_min":113,"x_max":199,"o":"m 132 0 l 132 1028 l 179 1028 l 179 0 l 132 0 m 156 1174 q 125 1185 137 1174 q 113 1217 113 1197 q 125 1249 113 1236 q 156 1261 137 1261 q 186 1249 174 1261 q 199 1217 199 1236 q 186 1185 199 1197 q 156 1174 174 1174 z "},"Ị":{"ha":311,"x_min":113,"x_max":199,"o":"m 132 0 l 132 1028 l 179 1028 l 179 0 l 132 0 m 156 -215 q 125 -203 137 -215 q 113 -172 113 -192 q 125 -140 113 -153 q 156 -128 137 -128 q 186 -140 174 -128 q 199 -172 199 -153 q 186 -203 199 -192 q 156 -215 174 -215 z "},"Ì":{"ha":311,"x_min":1,"x_max":179,"o":"m 132 0 l 132 1028 l 179 1028 l 179 0 l 132 0 m 133 1122 l 1 1311 l 56 1311 l 178 1122 l 133 1122 z "},"Ỉ":{"ha":311,"x_min":29,"x_max":291,"o":"m 132 0 l 132 1028 l 179 1028 l 179 0 l 132 0 m 133 1122 q 144 1156 134 1142 q 167 1176 154 1169 q 202 1193 181 1184 q 239 1213 227 1204 q 250 1237 250 1222 q 232 1264 250 1255 q 166 1274 213 1274 q 97 1267 129 1274 q 29 1248 65 1261 l 29 1286 q 166 1311 87 1311 q 260 1291 228 1311 q 291 1238 291 1271 q 275 1197 291 1210 q 229 1169 260 1183 q 192 1149 204 1158 q 177 1122 179 1140 l 133 1122 z "},"Ȋ":{"ha":311,"x_min":-40,"x_max":351,"o":"m 132 0 l 132 1028 l 179 1028 l 179 0 l 132 0 m -40 1142 q 15 1260 -34 1218 q 154 1303 63 1303 q 295 1260 245 1303 q 351 1142 345 1217 l 311 1142 q 267 1232 303 1203 q 154 1262 231 1262 q 42 1232 78 1262 q 0 1142 7 1203 l -40 1142 z "},"Ī":{"ha":311,"x_min":-32,"x_max":343,"o":"m 132 0 l 132 1028 l 179 1028 l 179 0 l 132 0 m -32 1197 l -32 1238 l 343 1238 l 343 1197 l -32 1197 z "},"Į":{"ha":311,"x_min":5,"x_max":266,"o":"m 148 -242 q 202 -235 175 -242 q 266 -213 229 -228 l 266 -251 q 150 -278 208 -278 q 43 -247 81 -278 q 5 -160 5 -217 q 35 -67 5 -110 q 132 16 65 -24 l 132 1028 l 179 1028 l 179 0 q 74 -77 104 -40 q 44 -158 44 -115 q 70 -220 44 -199 q 148 -242 97 -242 z "},"Ĩ":{"ha":311,"x_min":-52,"x_max":363,"o":"m 132 0 l 132 1028 l 179 1028 l 179 0 l 132 0 m 256 1178 q 204 1186 228 1178 q 146 1207 179 1193 q 96 1225 116 1219 q 56 1231 76 1231 q -4 1219 22 1231 q -52 1182 -29 1208 l -52 1228 q 56 1271 -14 1271 q 107 1264 83 1271 q 165 1242 132 1256 q 215 1224 195 1230 q 256 1218 235 1218 q 315 1230 290 1218 q 363 1267 340 1242 l 363 1221 q 256 1178 325 1178 z "},"J":{"ha":311,"x_min":-1,"x_max":179,"o":"m -1 -212 q 101 -20 69 -115 q 132 199 132 75 l 132 1028 l 179 1028 l 179 176 q 141 -41 174 53 q 33 -236 108 -135 l -1 -212 z "},"Ĵ":{"ha":311,"x_min":-37,"x_max":349,"o":"m -1 -212 q 101 -20 69 -115 q 132 199 132 75 l 132 1028 l 179 1028 l 179 176 q 141 -41 174 53 q 33 -236 108 -135 l -1 -212 m 349 1122 l 292 1122 l 156 1281 l 19 1122 l -37 1122 l 129 1311 l 182 1311 l 349 1122 z "},"K":{"ha":822,"x_min":132,"x_max":828,"o":"m 769 0 l 356 506 l 179 506 l 179 0 l 132 0 l 132 1028 l 179 1028 l 179 551 l 358 551 l 742 1028 l 799 1028 l 397 529 l 828 0 l 769 0 z "},"Ķ":{"ha":822,"x_min":132,"x_max":828,"o":"m 769 0 l 356 506 l 179 506 l 179 0 l 132 0 l 132 1028 l 179 1028 l 179 551 l 358 551 l 742 1028 l 799 1028 l 397 529 l 828 0 l 769 0 m 425 -128 q 459 -143 447 -128 q 471 -187 471 -158 q 463 -247 471 -214 q 440 -311 456 -281 l 410 -311 q 433 -215 429 -262 l 428 -215 q 397 -203 409 -215 q 385 -171 385 -190 q 396 -140 385 -152 q 425 -128 408 -128 z "},"L":{"ha":713,"x_min":132,"x_max":704,"o":"m 132 0 l 132 1028 l 179 1028 l 179 46 l 704 46 l 704 0 l 132 0 z "},"Ǉ":{"ha":1024,"x_min":132,"x_max":892,"o":"m 132 0 l 132 1028 l 179 1028 l 179 46 l 704 46 l 704 0 l 132 0 m 713 -212 q 814 -20 783 -115 q 845 199 845 75 l 845 1028 l 892 1028 l 892 176 q 854 -41 887 53 q 747 -236 821 -135 l 713 -212 z "},"Ĺ":{"ha":713,"x_min":132,"x_max":704,"o":"m 132 0 l 132 1028 l 179 1028 l 179 46 l 704 46 l 704 0 l 132 0 m 133 1122 l 255 1311 l 310 1311 l 178 1122 l 133 1122 z "},"Ľ":{"ha":713,"x_min":132,"x_max":704,"o":"m 132 0 l 132 1028 l 179 1028 l 179 46 l 704 46 l 704 0 l 132 0 m 450 792 q 460 938 458 858 q 463 1122 463 1018 l 507 1122 q 482 792 507 919 l 450 792 z "},"Ļ":{"ha":713,"x_min":132,"x_max":704,"o":"m 132 0 l 132 1028 l 179 1028 l 179 46 l 704 46 l 704 0 l 132 0 m 416 -128 q 450 -143 438 -128 q 462 -187 462 -158 q 454 -247 462 -214 q 431 -311 447 -281 l 401 -311 q 424 -215 420 -262 l 419 -215 q 388 -203 400 -215 q 376 -171 376 -190 q 387 -140 376 -152 q 416 -128 399 -128 z "},"Ŀ":{"ha":713,"x_min":132,"x_max":704,"o":"m 132 0 l 132 1028 l 179 1028 l 179 46 l 704 46 l 704 0 l 132 0 m 505 493 q 474 505 486 493 q 462 536 462 517 q 474 568 462 556 q 505 581 486 581 q 536 568 524 581 q 548 536 548 556 q 536 505 548 517 q 505 493 524 493 z "},"Ḷ":{"ha":713,"x_min":132,"x_max":704,"o":"m 132 0 l 132 1028 l 179 1028 l 179 46 l 704 46 l 704 0 l 132 0 m 419 -215 q 388 -203 400 -215 q 376 -172 376 -192 q 388 -140 376 -153 q 419 -128 400 -128 q 450 -140 438 -128 q 462 -172 462 -153 q 450 -203 462 -192 q 419 -215 438 -215 z "},"ǈ":{"ha":997,"x_min":132,"x_max":898,"o":"m 132 0 l 132 1028 l 179 1028 l 179 46 l 704 46 l 704 0 l 132 0 m 699 -295 q 800 -103 769 -199 q 831 115 831 -8 l 831 750 l 878 750 l 878 120 q 844 -114 878 -13 q 733 -319 810 -214 l 699 -295 m 855 949 q 824 960 836 949 q 812 992 812 972 q 824 1024 812 1011 q 855 1036 836 1036 q 886 1024 874 1036 q 898 992 898 1011 q 886 960 898 972 q 855 949 874 949 z "},"Ḻ":{"ha":713,"x_min":132,"x_max":704,"o":"m 132 0 l 132 1028 l 179 1028 l 179 46 l 704 46 l 704 0 l 132 0 m 231 -193 l 231 -152 l 606 -152 l 606 -193 l 231 -193 z "},"Ł":{"ha":713,"x_min":1,"x_max":704,"o":"m 179 46 l 704 46 l 704 0 l 132 0 l 132 485 l 28 394 l 1 426 l 132 541 l 132 1028 l 179 1028 l 179 582 l 371 750 l 398 719 l 179 527 l 179 46 z "},"M":{"ha":1175,"x_min":135,"x_max":1040,"o":"m 988 1028 l 1040 1028 l 1040 0 l 994 0 l 994 935 l 614 139 l 561 139 l 181 933 l 181 0 l 135 0 l 135 1028 l 187 1028 l 589 185 l 988 1028 z "},"Ṃ":{"ha":1175,"x_min":135,"x_max":1040,"o":"m 988 1028 l 1040 1028 l 1040 0 l 994 0 l 994 935 l 614 139 l 561 139 l 181 933 l 181 0 l 135 0 l 135 1028 l 187 1028 l 589 185 l 988 1028 m 588 -215 q 557 -203 569 -215 q 544 -172 544 -192 q 557 -140 544 -153 q 588 -128 569 -128 q 618 -140 606 -128 q 631 -172 631 -153 q 618 -203 631 -192 q 588 -215 606 -215 z "},"N":{"ha":991,"x_min":132,"x_max":859,"o":"m 813 1028 l 859 1028 l 859 0 l 807 0 l 178 953 l 178 0 l 132 0 l 132 1028 l 184 1028 l 813 74 l 813 1028 z "},"Ǌ":{"ha":1302,"x_min":132,"x_max":1170,"o":"m 813 1028 l 859 1028 l 859 0 l 807 0 l 178 953 l 178 0 l 132 0 l 132 1028 l 184 1028 l 813 74 l 813 1028 m 990 -212 q 1092 -20 1060 -115 q 1123 199 1123 75 l 1123 1028 l 1170 1028 l 1170 176 q 1132 -41 1165 53 q 1024 -236 1099 -135 l 990 -212 z "},"Ń":{"ha":991,"x_min":132,"x_max":859,"o":"m 813 1028 l 859 1028 l 859 0 l 807 0 l 178 953 l 178 0 l 132 0 l 132 1028 l 184 1028 l 813 74 l 813 1028 m 474 1122 l 595 1311 l 650 1311 l 518 1122 l 474 1122 z "},"Ň":{"ha":991,"x_min":132,"x_max":859,"o":"m 813 1028 l 859 1028 l 859 0 l 807 0 l 178 953 l 178 0 l 132 0 l 132 1028 l 184 1028 l 813 74 l 813 1028 m 633 1311 l 689 1311 l 522 1122 l 469 1122 l 303 1311 l 359 1311 l 496 1153 l 633 1311 z "},"Ņ":{"ha":991,"x_min":132,"x_max":859,"o":"m 813 1028 l 859 1028 l 859 0 l 807 0 l 178 953 l 178 0 l 132 0 l 132 1028 l 184 1028 l 813 74 l 813 1028 m 493 -128 q 527 -143 515 -128 q 539 -187 539 -158 q 531 -247 539 -214 q 508 -311 524 -281 l 478 -311 q 501 -215 497 -262 l 496 -215 q 465 -203 477 -215 q 453 -171 453 -190 q 464 -140 453 -152 q 493 -128 476 -128 z "},"Ṅ":{"ha":991,"x_min":132,"x_max":859,"o":"m 813 1028 l 859 1028 l 859 0 l 807 0 l 178 953 l 178 0 l 132 0 l 132 1028 l 184 1028 l 813 74 l 813 1028 m 496 1174 q 465 1185 477 1174 q 453 1217 453 1197 q 465 1249 453 1236 q 496 1261 477 1261 q 527 1249 515 1261 q 539 1217 539 1236 q 527 1185 539 1197 q 496 1174 515 1174 z "},"Ṇ":{"ha":991,"x_min":132,"x_max":859,"o":"m 813 1028 l 859 1028 l 859 0 l 807 0 l 178 953 l 178 0 l 132 0 l 132 1028 l 184 1028 l 813 74 l 813 1028 m 496 -215 q 465 -203 477 -215 q 453 -172 453 -192 q 465 -140 453 -153 q 496 -128 477 -128 q 527 -140 515 -128 q 539 -172 539 -153 q 527 -203 539 -192 q 496 -215 515 -215 z "},"Ŋ":{"ha":991,"x_min":132,"x_max":859,"o":"m 859 1028 l 859 120 q 825 -114 859 -13 q 713 -319 790 -214 l 679 -295 q 763 -151 733 -222 q 806 1 794 -80 l 178 953 l 178 0 l 132 0 l 132 1028 l 184 1028 l 813 76 q 813 115 813 89 l 813 1028 l 859 1028 z "},"ǋ":{"ha":1274,"x_min":132,"x_max":1176,"o":"m 813 1028 l 859 1028 l 859 0 l 807 0 l 178 953 l 178 0 l 132 0 l 132 1028 l 184 1028 l 813 74 l 813 1028 m 976 -295 q 1078 -103 1047 -199 q 1109 115 1109 -8 l 1109 750 l 1156 750 l 1156 120 q 1122 -114 1156 -13 q 1010 -319 1088 -214 l 976 -295 m 1133 949 q 1102 960 1114 949 q 1090 992 1090 972 q 1102 1024 1090 1011 q 1133 1036 1114 1036 q 1164 1024 1151 1036 q 1176 992 1176 1011 q 1164 960 1176 972 q 1133 949 1151 949 z "},"Ṉ":{"ha":991,"x_min":132,"x_max":859,"o":"m 813 1028 l 859 1028 l 859 0 l 807 0 l 178 953 l 178 0 l 132 0 l 132 1028 l 184 1028 l 813 74 l 813 1028 m 308 -193 l 308 -152 l 683 -152 l 683 -193 l 308 -193 z "},"Ñ":{"ha":991,"x_min":132,"x_max":859,"o":"m 813 1028 l 859 1028 l 859 0 l 807 0 l 178 953 l 178 0 l 132 0 l 132 1028 l 184 1028 l 813 74 l 813 1028 m 596 1178 q 544 1186 569 1178 q 486 1207 519 1193 q 436 1225 456 1219 q 396 1231 416 1231 q 336 1219 362 1231 q 288 1182 311 1208 l 288 1228 q 396 1271 326 1271 q 448 1264 423 1271 q 506 1242 472 1256 q 556 1224 535 1230 q 596 1218 576 1218 q 655 1230 630 1218 q 703 1267 681 1242 l 703 1221 q 596 1178 665 1178 z "},"O":{"ha":950,"x_min":82,"x_max":868,"o":"m 475 -12 q 185 114 289 -12 q 82 514 82 241 q 186 913 82 786 q 475 1040 290 1040 q 765 914 661 1040 q 868 514 868 787 q 764 115 868 242 q 475 -12 660 -12 m 475 34 q 728 145 638 34 q 818 511 818 257 q 728 881 818 769 q 475 994 639 994 q 222 882 312 994 q 132 517 132 771 q 222 147 132 259 q 475 34 311 34 z "},"Ó":{"ha":950,"x_min":82,"x_max":868,"o":"m 475 -12 q 185 114 289 -12 q 82 514 82 241 q 186 913 82 786 q 475 1040 290 1040 q 765 914 661 1040 q 868 514 868 787 q 764 115 868 242 q 475 -12 660 -12 m 475 34 q 728 145 638 34 q 818 511 818 257 q 728 881 818 769 q 475 994 639 994 q 222 882 312 994 q 132 517 132 771 q 222 147 132 259 q 475 34 311 34 m 453 1122 l 574 1311 l 629 1311 l 497 1122 l 453 1122 z "},"Ŏ":{"ha":950,"x_min":82,"x_max":868,"o":"m 475 -12 q 185 114 289 -12 q 82 514 82 241 q 186 913 82 786 q 475 1040 290 1040 q 765 914 661 1040 q 868 514 868 787 q 764 115 868 242 q 475 -12 660 -12 m 475 34 q 728 145 638 34 q 818 511 818 257 q 728 881 818 769 q 475 994 639 994 q 222 882 312 994 q 132 517 132 771 q 222 147 132 259 q 475 34 311 34 m 476 1131 q 335 1173 385 1131 q 279 1292 285 1216 l 319 1292 q 364 1201 328 1231 q 476 1172 400 1172 q 588 1201 553 1172 q 631 1292 624 1231 l 671 1292 q 616 1173 665 1215 q 476 1131 567 1131 z "},"Ô":{"ha":950,"x_min":82,"x_max":868,"o":"m 475 -12 q 185 114 289 -12 q 82 514 82 241 q 186 913 82 786 q 475 1040 290 1040 q 765 914 661 1040 q 868 514 868 787 q 764 115 868 242 q 475 -12 660 -12 m 475 34 q 728 145 638 34 q 818 511 818 257 q 728 881 818 769 q 475 994 639 994 q 222 882 312 994 q 132 517 132 771 q 222 147 132 259 q 475 34 311 34 m 668 1122 l 612 1122 l 475 1281 l 338 1122 l 282 1122 l 449 1311 l 501 1311 l 668 1122 z "},"Ố":{"ha":950,"x_min":82,"x_max":868,"o":"m 475 -12 q 185 114 289 -12 q 82 514 82 241 q 186 913 82 786 q 475 1040 290 1040 q 765 914 661 1040 q 868 514 868 787 q 764 115 868 242 q 475 -12 660 -12 m 475 34 q 728 145 638 34 q 818 511 818 257 q 728 881 818 769 q 475 994 639 994 q 222 882 312 994 q 132 517 132 771 q 222 147 132 259 q 475 34 311 34 m 745 1433 l 800 1433 l 668 1244 l 624 1244 l 745 1433 m 449 1311 l 501 1311 l 668 1122 l 612 1122 l 475 1281 l 338 1122 l 282 1122 l 449 1311 z "},"Ộ":{"ha":950,"x_min":82,"x_max":868,"o":"m 475 -12 q 185 114 289 -12 q 82 514 82 241 q 186 913 82 786 q 475 1040 290 1040 q 765 914 661 1040 q 868 514 868 787 q 764 115 868 242 q 475 -12 660 -12 m 475 34 q 728 145 638 34 q 818 511 818 257 q 728 881 818 769 q 475 994 639 994 q 222 882 312 994 q 132 517 132 771 q 222 147 132 259 q 475 34 311 34 m 475 -215 q 444 -203 456 -215 q 432 -172 432 -192 q 444 -140 432 -153 q 475 -128 456 -128 q 506 -140 494 -128 q 518 -172 518 -153 q 506 -203 518 -192 q 475 -215 494 -215 m 668 1122 l 612 1122 l 475 1281 l 338 1122 l 282 1122 l 449 1311 l 501 1311 l 668 1122 z "},"Ồ":{"ha":950,"x_min":82,"x_max":868,"o":"m 475 -12 q 185 114 289 -12 q 82 514 82 241 q 186 913 82 786 q 475 1040 290 1040 q 765 914 661 1040 q 868 514 868 787 q 764 115 868 242 q 475 -12 660 -12 m 475 34 q 728 145 638 34 q 818 511 818 257 q 728 881 818 769 q 475 994 639 994 q 222 882 312 994 q 132 517 132 771 q 222 147 132 259 q 475 34 311 34 m 682 1244 l 638 1244 l 506 1433 l 560 1433 l 682 1244 m 449 1311 l 501 1311 l 668 1122 l 612 1122 l 475 1281 l 338 1122 l 282 1122 l 449 1311 z "},"Ổ":{"ha":950,"x_min":82,"x_max":868,"o":"m 475 -12 q 185 114 289 -12 q 82 514 82 241 q 186 913 82 786 q 475 1040 290 1040 q 765 914 661 1040 q 868 514 868 787 q 764 115 868 242 q 475 -12 660 -12 m 475 34 q 728 145 638 34 q 818 511 818 257 q 728 881 818 769 q 475 994 639 994 q 222 882 312 994 q 132 517 132 771 q 222 147 132 259 q 475 34 311 34 m 656 1433 q 750 1413 719 1433 q 781 1360 781 1393 q 766 1319 781 1333 q 719 1292 750 1305 q 682 1271 694 1281 q 667 1244 669 1262 l 624 1244 q 634 1278 624 1265 q 658 1299 644 1291 q 692 1315 671 1306 q 729 1335 717 1326 q 740 1359 740 1344 q 722 1386 740 1377 q 656 1396 703 1396 q 587 1390 619 1396 q 519 1370 555 1383 l 519 1408 q 656 1433 577 1433 m 449 1311 l 501 1311 l 668 1122 l 612 1122 l 475 1281 l 338 1122 l 282 1122 l 449 1311 z "},"Ỗ":{"ha":950,"x_min":82,"x_max":868,"o":"m 475 -12 q 185 114 289 -12 q 82 514 82 241 q 186 913 82 786 q 475 1040 290 1040 q 765 914 661 1040 q 868 514 868 787 q 764 115 868 242 q 475 -12 660 -12 m 475 34 q 728 145 638 34 q 818 511 818 257 q 728 881 818 769 q 475 994 639 994 q 222 882 312 994 q 132 517 132 771 q 222 147 132 259 q 475 34 311 34 m 566 1383 q 621 1395 597 1383 q 668 1432 646 1407 l 668 1385 q 624 1354 650 1365 q 566 1343 598 1343 q 519 1350 542 1343 q 465 1372 496 1358 q 419 1390 436 1384 q 384 1396 401 1396 q 329 1384 353 1396 q 282 1347 304 1372 l 282 1393 q 326 1424 300 1413 q 384 1435 352 1435 q 431 1428 408 1435 q 485 1407 454 1421 q 531 1389 514 1394 q 566 1383 549 1383 m 449 1311 l 501 1311 l 668 1122 l 612 1122 l 475 1281 l 338 1122 l 282 1122 l 449 1311 z "},"Ȍ":{"ha":950,"x_min":82,"x_max":868,"o":"m 475 -12 q 185 114 289 -12 q 82 514 82 241 q 186 913 82 786 q 475 1040 290 1040 q 765 914 661 1040 q 868 514 868 787 q 764 115 868 242 q 475 -12 660 -12 m 475 34 q 728 145 638 34 q 818 511 818 257 q 728 881 818 769 q 475 994 639 994 q 222 882 312 994 q 132 517 132 771 q 222 147 132 259 q 475 34 311 34 m 351 1122 l 261 1311 l 308 1311 l 394 1122 l 351 1122 m 556 1122 l 466 1311 l 513 1311 l 599 1122 l 556 1122 z "},"Ö":{"ha":950,"x_min":82,"x_max":868,"o":"m 475 -12 q 185 114 289 -12 q 82 514 82 241 q 186 913 82 786 q 475 1040 290 1040 q 765 914 661 1040 q 868 514 868 787 q 764 115 868 242 q 475 -12 660 -12 m 475 34 q 728 145 638 34 q 818 511 818 257 q 728 881 818 769 q 475 994 639 994 q 222 882 312 994 q 132 517 132 771 q 222 147 132 259 q 475 34 311 34 m 322 1174 q 291 1185 303 1174 q 279 1217 279 1197 q 291 1249 279 1236 q 322 1261 303 1261 q 353 1249 341 1261 q 365 1217 365 1236 q 353 1185 365 1197 q 322 1174 341 1174 m 628 1174 q 597 1185 609 1174 q 585 1217 585 1197 q 597 1249 585 1236 q 628 1261 609 1261 q 659 1249 647 1261 q 671 1217 671 1236 q 659 1185 671 1197 q 628 1174 647 1174 z "},"Ȫ":{"ha":950,"x_min":82,"x_max":868,"o":"m 475 -12 q 185 114 289 -12 q 82 514 82 241 q 186 913 82 786 q 475 1040 290 1040 q 765 914 661 1040 q 868 514 868 787 q 764 115 868 242 q 475 -12 660 -12 m 475 34 q 728 145 638 34 q 818 511 818 257 q 728 881 818 769 q 475 994 639 994 q 222 882 312 994 q 132 517 132 771 q 222 147 132 259 q 475 34 311 34 m 322 1174 q 291 1185 303 1174 q 279 1217 279 1197 q 291 1249 279 1236 q 322 1261 303 1261 q 353 1249 341 1261 q 365 1217 365 1236 q 353 1185 365 1197 q 322 1174 341 1174 m 628 1174 q 597 1185 609 1174 q 585 1217 585 1197 q 597 1249 585 1236 q 628 1261 609 1261 q 659 1249 647 1261 q 671 1217 671 1236 q 659 1185 671 1197 q 628 1174 647 1174 m 288 1355 l 288 1396 l 663 1396 l 663 1355 l 288 1355 z "},"Ȱ":{"ha":950,"x_min":82,"x_max":868,"o":"m 475 -12 q 185 114 289 -12 q 82 514 82 241 q 186 913 82 786 q 475 1040 290 1040 q 765 914 661 1040 q 868 514 868 787 q 764 115 868 242 q 475 -12 660 -12 m 475 34 q 728 145 638 34 q 818 511 818 257 q 728 881 818 769 q 475 994 639 994 q 222 882 312 994 q 132 517 132 771 q 222 147 132 259 q 475 34 311 34 m 475 1174 q 444 1185 456 1174 q 432 1217 432 1197 q 444 1249 432 1236 q 475 1261 456 1261 q 506 1249 494 1261 q 518 1217 518 1236 q 506 1185 518 1197 q 475 1174 494 1174 m 288 1355 l 288 1396 l 663 1396 l 663 1355 l 288 1355 z "},"Ọ":{"ha":950,"x_min":82,"x_max":868,"o":"m 475 -12 q 185 114 289 -12 q 82 514 82 241 q 186 913 82 786 q 475 1040 290 1040 q 765 914 661 1040 q 868 514 868 787 q 764 115 868 242 q 475 -12 660 -12 m 475 34 q 728 145 638 34 q 818 511 818 257 q 728 881 818 769 q 475 994 639 994 q 222 882 312 994 q 132 517 132 771 q 222 147 132 259 q 475 34 311 34 m 475 -215 q 444 -203 456 -215 q 432 -172 432 -192 q 444 -140 432 -153 q 475 -128 456 -128 q 506 -140 494 -128 q 518 -172 518 -153 q 506 -203 518 -192 q 475 -215 494 -215 z "},"Ò":{"ha":950,"x_min":82,"x_max":868,"o":"m 475 -12 q 185 114 289 -12 q 82 514 82 241 q 186 913 82 786 q 475 1040 290 1040 q 765 914 661 1040 q 868 514 868 787 q 764 115 868 242 q 475 -12 660 -12 m 475 34 q 728 145 638 34 q 818 511 818 257 q 728 881 818 769 q 475 994 639 994 q 222 882 312 994 q 132 517 132 771 q 222 147 132 259 q 475 34 311 34 m 453 1122 l 321 1311 l 376 1311 l 497 1122 l 453 1122 z "},"Ỏ":{"ha":950,"x_min":82,"x_max":868,"o":"m 475 -12 q 185 114 289 -12 q 82 514 82 241 q 186 913 82 786 q 475 1040 290 1040 q 765 914 661 1040 q 868 514 868 787 q 764 115 868 242 q 475 -12 660 -12 m 475 34 q 728 145 638 34 q 818 511 818 257 q 728 881 818 769 q 475 994 639 994 q 222 882 312 994 q 132 517 132 771 q 222 147 132 259 q 475 34 311 34 m 453 1122 q 464 1156 453 1142 q 487 1176 474 1169 q 522 1193 500 1184 q 558 1213 547 1204 q 569 1237 569 1222 q 551 1264 569 1255 q 485 1274 533 1274 q 416 1267 449 1274 q 349 1248 384 1261 l 349 1286 q 485 1311 406 1311 q 579 1291 548 1311 q 610 1238 610 1271 q 595 1197 610 1210 q 549 1169 579 1183 q 511 1149 524 1158 q 497 1122 499 1140 l 453 1122 z "},"Ơ":{"ha":950,"x_min":82,"x_max":868,"o":"m 697 978 q 824 805 780 920 q 868 514 868 690 q 764 113 868 239 q 475 -12 660 -12 q 186 115 290 -12 q 82 514 82 242 q 186 913 82 786 q 475 1040 290 1040 q 528 1038 501 1040 q 578 1032 554 1035 q 684 1024 643 1024 q 786 1051 749 1024 q 822 1135 822 1079 q 818 1184 822 1162 q 805 1233 814 1206 l 851 1233 q 864 1186 860 1208 q 868 1133 868 1163 q 823 1023 868 1064 q 697 978 778 981 m 475 34 q 728 145 638 34 q 818 511 818 257 q 728 881 818 769 q 475 994 639 994 q 222 882 312 994 q 132 517 132 771 q 222 147 132 259 q 475 34 311 34 z "},"Ớ":{"ha":950,"x_min":82,"x_max":868,"o":"m 697 978 q 824 805 780 920 q 868 514 868 690 q 764 113 868 239 q 475 -12 660 -12 q 186 115 290 -12 q 82 514 82 242 q 186 913 82 786 q 475 1040 290 1040 q 528 1038 501 1040 q 578 1032 554 1035 q 684 1024 643 1024 q 786 1051 749 1024 q 822 1135 822 1079 q 818 1184 822 1162 q 805 1233 814 1206 l 851 1233 q 864 1186 860 1208 q 868 1133 868 1163 q 823 1023 868 1064 q 697 978 778 981 m 475 34 q 728 145 638 34 q 818 511 818 257 q 728 881 818 769 q 475 994 639 994 q 222 882 312 994 q 132 517 132 771 q 222 147 132 259 q 475 34 311 34 m 453 1122 l 574 1311 l 629 1311 l 497 1122 l 453 1122 z "},"Ợ":{"ha":950,"x_min":82,"x_max":868,"o":"m 697 978 q 824 805 780 920 q 868 514 868 690 q 764 113 868 239 q 475 -12 660 -12 q 186 115 290 -12 q 82 514 82 242 q 186 913 82 786 q 475 1040 290 1040 q 528 1038 501 1040 q 578 1032 554 1035 q 684 1024 643 1024 q 786 1051 749 1024 q 822 1135 822 1079 q 818 1184 822 1162 q 805 1233 814 1206 l 851 1233 q 864 1186 860 1208 q 868 1133 868 1163 q 823 1023 868 1064 q 697 978 778 981 m 475 34 q 728 145 638 34 q 818 511 818 257 q 728 881 818 769 q 475 994 639 994 q 222 882 312 994 q 132 517 132 771 q 222 147 132 259 q 475 34 311 34 m 475 -215 q 444 -203 456 -215 q 432 -172 432 -192 q 444 -140 432 -153 q 475 -128 456 -128 q 506 -140 494 -128 q 518 -172 518 -153 q 506 -203 518 -192 q 475 -215 494 -215 z "},"Ờ":{"ha":950,"x_min":82,"x_max":868,"o":"m 697 978 q 824 805 780 920 q 868 514 868 690 q 764 113 868 239 q 475 -12 660 -12 q 186 115 290 -12 q 82 514 82 242 q 186 913 82 786 q 475 1040 290 1040 q 528 1038 501 1040 q 578 1032 554 1035 q 684 1024 643 1024 q 786 1051 749 1024 q 822 1135 822 1079 q 818 1184 822 1162 q 805 1233 814 1206 l 851 1233 q 864 1186 860 1208 q 868 1133 868 1163 q 823 1023 868 1064 q 697 978 778 981 m 475 34 q 728 145 638 34 q 818 511 818 257 q 728 881 818 769 q 475 994 639 994 q 222 882 312 994 q 132 517 132 771 q 222 147 132 259 q 475 34 311 34 m 453 1122 l 321 1311 l 376 1311 l 497 1122 l 453 1122 z "},"Ở":{"ha":950,"x_min":82,"x_max":868,"o":"m 697 978 q 824 805 780 920 q 868 514 868 690 q 764 113 868 239 q 475 -12 660 -12 q 186 115 290 -12 q 82 514 82 242 q 186 913 82 786 q 475 1040 290 1040 q 528 1038 501 1040 q 578 1032 554 1035 q 684 1024 643 1024 q 786 1051 749 1024 q 822 1135 822 1079 q 818 1184 822 1162 q 805 1233 814 1206 l 851 1233 q 864 1186 860 1208 q 868 1133 868 1163 q 823 1023 868 1064 q 697 978 778 981 m 475 34 q 728 145 638 34 q 818 511 818 257 q 728 881 818 769 q 475 994 639 994 q 222 882 312 994 q 132 517 132 771 q 222 147 132 259 q 475 34 311 34 m 453 1122 q 464 1156 453 1142 q 487 1176 474 1169 q 522 1193 500 1184 q 558 1213 547 1204 q 569 1237 569 1222 q 551 1264 569 1255 q 485 1274 533 1274 q 416 1267 449 1274 q 349 1248 384 1261 l 349 1286 q 485 1311 406 1311 q 579 1291 548 1311 q 610 1238 610 1271 q 595 1197 610 1210 q 549 1169 579 1183 q 511 1149 524 1158 q 497 1122 499 1140 l 453 1122 z "},"Ỡ":{"ha":950,"x_min":82,"x_max":868,"o":"m 375 1231 q 316 1219 341 1231 q 267 1182 290 1208 l 267 1228 q 375 1271 306 1271 q 427 1264 402 1271 q 485 1242 451 1256 q 535 1224 515 1230 q 575 1218 555 1218 q 634 1230 609 1218 q 683 1267 660 1242 l 683 1221 q 575 1178 644 1178 q 523 1186 548 1178 q 465 1207 499 1193 q 415 1225 435 1219 q 375 1231 395 1231 m 697 978 q 824 805 780 920 q 868 514 868 690 q 764 113 868 239 q 475 -12 660 -12 q 186 115 290 -12 q 82 514 82 242 q 186 913 82 786 q 475 1040 290 1040 q 528 1038 501 1040 q 578 1032 554 1035 q 684 1024 643 1024 q 786 1051 749 1024 q 822 1135 822 1079 q 818 1184 822 1162 q 805 1233 814 1206 l 851 1233 q 864 1186 860 1208 q 868 1133 868 1163 q 823 1023 868 1064 q 697 978 778 981 m 475 34 q 728 145 638 34 q 818 511 818 257 q 728 881 818 769 q 475 994 639 994 q 222 882 312 994 q 132 517 132 771 q 222 147 132 259 q 475 34 311 34 z "},"Ő":{"ha":950,"x_min":82,"x_max":868,"o":"m 475 -12 q 185 114 289 -12 q 82 514 82 241 q 186 913 82 786 q 475 1040 290 1040 q 765 914 661 1040 q 868 514 868 787 q 764 115 868 242 q 475 -12 660 -12 m 475 34 q 728 145 638 34 q 818 511 818 257 q 728 881 818 769 q 475 994 639 994 q 222 882 312 994 q 132 517 132 771 q 222 147 132 259 q 475 34 311 34 m 351 1122 l 437 1311 l 484 1311 l 394 1122 l 351 1122 m 556 1122 l 642 1311 l 689 1311 l 599 1122 l 556 1122 z "},"Ȏ":{"ha":950,"x_min":82,"x_max":868,"o":"m 475 -12 q 185 114 289 -12 q 82 514 82 241 q 186 913 82 786 q 475 1040 290 1040 q 765 914 661 1040 q 868 514 868 787 q 764 115 868 242 q 475 -12 660 -12 m 475 34 q 728 145 638 34 q 818 511 818 257 q 728 881 818 769 q 475 994 639 994 q 222 882 312 994 q 132 517 132 771 q 222 147 132 259 q 475 34 311 34 m 279 1142 q 334 1260 285 1218 q 474 1303 383 1303 q 615 1260 565 1303 q 671 1142 665 1217 l 631 1142 q 586 1232 622 1203 q 474 1262 550 1262 q 362 1232 397 1262 q 319 1142 326 1203 l 279 1142 z "},"Ō":{"ha":950,"x_min":82,"x_max":868,"o":"m 475 -12 q 185 114 289 -12 q 82 514 82 241 q 186 913 82 786 q 475 1040 290 1040 q 765 914 661 1040 q 868 514 868 787 q 764 115 868 242 q 475 -12 660 -12 m 475 34 q 728 145 638 34 q 818 511 818 257 q 728 881 818 769 q 475 994 639 994 q 222 882 312 994 q 132 517 132 771 q 222 147 132 259 q 475 34 311 34 m 288 1197 l 288 1238 l 663 1238 l 663 1197 l 288 1197 z "},"Ṓ":{"ha":950,"x_min":82,"x_max":868,"o":"m 475 -12 q 185 114 289 -12 q 82 514 82 241 q 186 913 82 786 q 475 1040 290 1040 q 765 914 661 1040 q 868 514 868 787 q 764 115 868 242 q 475 -12 660 -12 m 475 34 q 728 145 638 34 q 818 511 818 257 q 728 881 818 769 q 475 994 639 994 q 222 882 312 994 q 132 517 132 771 q 222 147 132 259 q 475 34 311 34 m 453 1308 l 574 1469 l 629 1469 l 498 1308 l 453 1308 m 288 1197 l 288 1238 l 663 1238 l 663 1197 l 288 1197 z "},"Ṑ":{"ha":950,"x_min":82,"x_max":868,"o":"m 475 -12 q 185 114 289 -12 q 82 514 82 241 q 186 913 82 786 q 475 1040 290 1040 q 765 914 661 1040 q 868 514 868 787 q 764 115 868 242 q 475 -12 660 -12 m 475 34 q 728 145 638 34 q 818 511 818 257 q 728 881 818 769 q 475 994 639 994 q 222 882 312 994 q 132 517 132 771 q 222 147 132 259 q 475 34 311 34 m 453 1308 l 321 1469 l 376 1469 l 497 1308 l 453 1308 m 288 1197 l 288 1238 l 663 1238 l 663 1197 l 288 1197 z "},"Ǫ":{"ha":950,"x_min":82,"x_max":868,"o":"m 622 10 q 490 -67 529 -24 q 451 -158 451 -109 q 477 -220 451 -199 q 555 -242 503 -242 q 609 -235 582 -242 q 673 -213 636 -228 l 673 -251 q 557 -278 615 -278 q 449 -247 487 -278 q 410 -160 410 -217 q 432 -81 410 -117 q 501 -12 453 -44 l 478 -12 q 186 114 290 -12 q 82 514 82 241 q 186 913 82 786 q 475 1040 290 1040 q 764 914 660 1040 q 868 514 868 788 q 622 10 868 104 m 475 34 q 728 145 638 34 q 818 511 818 257 q 728 881 818 769 q 475 994 639 994 q 222 882 312 994 q 132 517 132 771 q 222 147 132 259 q 475 34 311 34 z "},"Ø":{"ha":950,"x_min":82,"x_max":868,"o":"m 778 895 q 868 514 868 763 q 764 115 868 242 q 475 -12 660 -12 q 200 97 299 -12 l 122 -11 l 87 14 l 172 133 q 82 514 82 265 q 186 913 82 786 q 475 1040 290 1040 q 750 931 651 1040 l 828 1039 l 863 1014 l 778 895 m 132 517 q 203 174 132 294 l 721 891 q 475 994 635 994 q 222 882 312 994 q 132 517 132 771 m 475 34 q 728 145 638 34 q 818 511 818 257 q 747 853 818 733 l 229 137 q 475 34 315 34 z "},"Ǿ":{"ha":950,"x_min":82,"x_max":868,"o":"m 778 895 q 868 514 868 763 q 764 115 868 242 q 475 -12 660 -12 q 200 97 299 -12 l 122 -11 l 87 14 l 172 133 q 82 514 82 265 q 186 913 82 786 q 475 1040 290 1040 q 750 931 651 1040 l 828 1039 l 863 1014 l 778 895 m 132 517 q 203 174 132 294 l 721 891 q 475 994 635 994 q 222 882 312 994 q 132 517 132 771 m 475 34 q 728 145 638 34 q 818 511 818 257 q 747 853 818 733 l 229 137 q 475 34 315 34 m 450 1122 l 572 1311 l 626 1311 l 494 1122 l 450 1122 z "},"Õ":{"ha":950,"x_min":82,"x_max":868,"o":"m 475 -12 q 185 114 289 -12 q 82 514 82 241 q 186 913 82 786 q 475 1040 290 1040 q 765 914 661 1040 q 868 514 868 787 q 764 115 868 242 q 475 -12 660 -12 m 475 34 q 728 145 638 34 q 818 511 818 257 q 728 881 818 769 q 475 994 639 994 q 222 882 312 994 q 132 517 132 771 q 222 147 132 259 q 475 34 311 34 m 575 1178 q 523 1186 548 1178 q 465 1207 499 1193 q 415 1225 435 1219 q 375 1231 395 1231 q 316 1219 341 1231 q 267 1182 290 1208 l 267 1228 q 375 1271 306 1271 q 427 1264 402 1271 q 485 1242 451 1256 q 535 1224 515 1230 q 575 1218 555 1218 q 634 1230 609 1218 q 683 1267 660 1242 l 683 1221 q 575 1178 644 1178 z "},"Ṍ":{"ha":950,"x_min":82,"x_max":868,"o":"m 475 -12 q 185 114 289 -12 q 82 514 82 241 q 186 913 82 786 q 475 1040 290 1040 q 765 914 661 1040 q 868 514 868 787 q 764 115 868 242 q 475 -12 660 -12 m 475 34 q 728 145 638 34 q 818 511 818 257 q 728 881 818 769 q 475 994 639 994 q 222 882 312 994 q 132 517 132 771 q 222 147 132 259 q 475 34 311 34 m 453 1308 l 574 1469 l 629 1469 l 498 1308 l 453 1308 m 575 1178 q 523 1186 548 1178 q 465 1207 499 1193 q 415 1225 435 1219 q 375 1231 395 1231 q 316 1219 341 1231 q 267 1182 290 1208 l 267 1228 q 375 1271 306 1271 q 427 1264 402 1271 q 485 1242 451 1256 q 535 1224 515 1230 q 575 1218 555 1218 q 634 1230 609 1218 q 683 1267 660 1242 l 683 1221 q 575 1178 644 1178 z "},"Ṏ":{"ha":950,"x_min":82,"x_max":868,"o":"m 475 -12 q 185 114 289 -12 q 82 514 82 241 q 186 913 82 786 q 475 1040 290 1040 q 765 914 661 1040 q 868 514 868 787 q 764 115 868 242 q 475 -12 660 -12 m 475 34 q 728 145 638 34 q 818 511 818 257 q 728 881 818 769 q 475 994 639 994 q 222 882 312 994 q 132 517 132 771 q 222 147 132 259 q 475 34 311 34 m 575 1178 q 523 1186 548 1178 q 465 1207 499 1193 q 415 1225 435 1219 q 375 1231 395 1231 q 316 1219 341 1231 q 267 1182 290 1208 l 267 1228 q 375 1271 306 1271 q 427 1264 402 1271 q 485 1242 451 1256 q 535 1224 515 1230 q 575 1218 555 1218 q 634 1230 609 1218 q 683 1267 660 1242 l 683 1221 q 575 1178 644 1178 m 322 1332 q 291 1344 303 1332 q 279 1375 279 1356 q 291 1407 279 1394 q 322 1419 303 1419 q 353 1407 341 1419 q 365 1375 365 1394 q 353 1344 365 1356 q 322 1332 341 1332 m 628 1332 q 597 1344 609 1332 q 585 1375 585 1356 q 597 1407 585 1394 q 628 1419 609 1419 q 659 1407 647 1419 q 671 1375 671 1394 q 659 1344 671 1356 q 628 1332 647 1332 z "},"Ȭ":{"ha":950,"x_min":82,"x_max":868,"o":"m 475 -12 q 185 114 289 -12 q 82 514 82 241 q 186 913 82 786 q 475 1040 290 1040 q 765 914 661 1040 q 868 514 868 787 q 764 115 868 242 q 475 -12 660 -12 m 475 34 q 728 145 638 34 q 818 511 818 257 q 728 881 818 769 q 475 994 639 994 q 222 882 312 994 q 132 517 132 771 q 222 147 132 259 q 475 34 311 34 m 575 1178 q 523 1186 548 1178 q 465 1207 499 1193 q 415 1225 435 1219 q 375 1231 395 1231 q 316 1219 341 1231 q 267 1182 290 1208 l 267 1228 q 375 1271 306 1271 q 427 1264 402 1271 q 485 1242 451 1256 q 535 1224 515 1230 q 575 1218 555 1218 q 634 1230 609 1218 q 683 1267 660 1242 l 683 1221 q 575 1178 644 1178 m 288 1355 l 288 1396 l 663 1396 l 663 1355 l 288 1355 z "},"Œ":{"ha":1351,"x_min":82,"x_max":1302,"o":"m 1302 46 l 1302 0 l 775 0 q 688 -3 753 0 q 568 -7 613 -7 q 205 120 328 -7 q 82 514 82 248 q 202 907 82 777 q 556 1038 322 1038 q 675 1032 600 1038 q 766 1028 740 1028 l 1295 1028 l 1295 982 l 778 982 l 778 551 l 1229 551 l 1229 506 l 778 506 l 778 46 l 1302 46 m 731 981 q 559 992 646 992 q 238 876 344 992 q 132 514 132 760 q 240 153 132 267 q 567 39 349 39 q 731 47 673 39 l 731 981 z "},"P":{"ha":822,"x_min":132,"x_max":753,"o":"m 132 1015 q 368 1038 256 1038 q 656 955 559 1038 q 753 699 753 872 q 652 445 753 531 q 335 360 551 360 q 179 367 255 360 l 179 0 l 132 0 l 132 1015 m 337 406 q 616 477 528 406 q 703 697 703 549 q 621 921 703 850 q 368 992 539 992 q 179 976 269 992 l 179 415 q 337 406 250 406 z "},"Þ":{"ha":829,"x_min":132,"x_max":753,"o":"m 132 1028 l 179 1028 l 179 851 q 368 867 268 867 q 656 784 559 867 q 753 528 753 701 q 652 275 753 360 q 335 189 551 189 q 179 197 255 189 l 179 0 l 132 0 l 132 1028 m 337 235 q 616 307 528 235 q 703 526 703 378 q 621 750 703 679 q 368 821 539 821 q 179 806 269 821 l 179 244 q 337 235 250 235 z "},"Q":{"ha":950,"x_min":82,"x_max":868,"o":"m 868 514 q 766 115 868 248 q 465 -10 663 -17 q 849 -79 610 -60 l 842 -125 q 382 -26 544 -94 q 151 169 219 42 q 82 514 82 297 q 186 913 82 786 q 475 1040 290 1040 q 764 914 660 1040 q 868 514 868 788 m 132 517 q 222 147 132 259 q 475 34 311 34 q 728 145 638 34 q 818 511 818 257 q 728 881 818 769 q 475 994 639 994 q 222 882 312 994 q 132 517 132 771 z "},"R":{"ha":879,"x_min":132,"x_max":831,"o":"m 774 0 l 418 455 q 341 452 385 452 q 179 459 265 452 l 179 0 l 132 0 l 132 1015 q 251 1032 194 1026 q 378 1038 308 1038 q 663 967 571 1038 q 755 749 755 897 q 470 460 757 502 l 831 0 l 774 0 m 340 497 q 551 525 469 497 q 670 607 632 552 q 708 747 708 662 q 674 888 708 835 q 567 967 640 942 q 376 992 494 992 q 273 988 317 992 q 179 975 229 983 l 179 504 q 261 499 228 500 q 340 497 293 497 z "},"Ŕ":{"ha":879,"x_min":132,"x_max":831,"o":"m 774 0 l 418 455 q 341 452 385 452 q 179 459 265 452 l 179 0 l 132 0 l 132 1015 q 251 1032 194 1026 q 378 1038 308 1038 q 663 967 571 1038 q 755 749 755 897 q 470 460 757 502 l 831 0 l 774 0 m 340 497 q 551 525 469 497 q 670 607 632 552 q 708 747 708 662 q 674 888 708 835 q 567 967 640 942 q 376 992 494 992 q 273 988 317 992 q 179 975 229 983 l 179 504 q 261 499 228 500 q 340 497 293 497 m 396 1122 l 517 1311 l 572 1311 l 440 1122 l 396 1122 z "},"Ř":{"ha":879,"x_min":132,"x_max":831,"o":"m 774 0 l 418 455 q 341 452 385 452 q 179 459 265 452 l 179 0 l 132 0 l 132 1015 q 251 1032 194 1026 q 378 1038 308 1038 q 663 967 571 1038 q 755 749 755 897 q 470 460 757 502 l 831 0 l 774 0 m 340 497 q 551 525 469 497 q 670 607 632 552 q 708 747 708 662 q 674 888 708 835 q 567 967 640 942 q 376 992 494 992 q 273 988 317 992 q 179 975 229 983 l 179 504 q 261 499 228 500 q 340 497 293 497 m 555 1311 l 611 1311 l 444 1122 l 392 1122 l 225 1311 l 281 1311 l 418 1153 l 555 1311 z "},"Ŗ":{"ha":879,"x_min":132,"x_max":831,"o":"m 774 0 l 418 455 q 341 452 385 452 q 179 459 265 452 l 179 0 l 132 0 l 132 1015 q 251 1032 194 1026 q 378 1038 308 1038 q 663 967 571 1038 q 755 749 755 897 q 470 460 757 502 l 831 0 l 774 0 m 340 497 q 551 525 469 497 q 670 607 632 552 q 708 747 708 662 q 674 888 708 835 q 567 967 640 942 q 376 992 494 992 q 273 988 317 992 q 179 975 229 983 l 179 504 q 261 499 228 500 q 340 497 293 497 m 456 -128 q 489 -143 477 -128 q 501 -187 501 -158 q 494 -247 501 -214 q 471 -311 486 -281 l 440 -311 q 463 -215 460 -262 l 458 -215 q 427 -203 440 -215 q 415 -171 415 -190 q 427 -140 415 -152 q 456 -128 438 -128 z "},"Ȑ":{"ha":879,"x_min":132,"x_max":831,"o":"m 774 0 l 418 455 q 341 452 385 452 q 179 459 265 452 l 179 0 l 132 0 l 132 1015 q 251 1032 194 1026 q 378 1038 308 1038 q 663 967 571 1038 q 755 749 755 897 q 470 460 757 502 l 831 0 l 774 0 m 340 497 q 551 525 469 497 q 670 607 632 552 q 708 747 708 662 q 674 888 708 835 q 567 967 640 942 q 376 992 494 992 q 273 988 317 992 q 179 975 229 983 l 179 504 q 261 499 228 500 q 340 497 293 497 m 294 1122 l 204 1311 l 251 1311 l 337 1122 l 294 1122 m 499 1122 l 409 1311 l 456 1311 l 542 1122 l 499 1122 z "},"Ṛ":{"ha":879,"x_min":132,"x_max":831,"o":"m 774 0 l 418 455 q 341 452 385 452 q 179 459 265 452 l 179 0 l 132 0 l 132 1015 q 251 1032 194 1026 q 378 1038 308 1038 q 663 967 571 1038 q 755 749 755 897 q 470 460 757 502 l 831 0 l 774 0 m 340 497 q 551 525 469 497 q 670 607 632 552 q 708 747 708 662 q 674 888 708 835 q 567 967 640 942 q 376 992 494 992 q 273 988 317 992 q 179 975 229 983 l 179 504 q 261 499 228 500 q 340 497 293 497 m 458 -215 q 427 -203 440 -215 q 415 -172 415 -192 q 427 -140 415 -153 q 458 -128 440 -128 q 489 -140 477 -128 q 501 -172 501 -153 q 489 -203 501 -192 q 458 -215 477 -215 z "},"Ȓ":{"ha":879,"x_min":132,"x_max":831,"o":"m 774 0 l 418 455 q 341 452 385 452 q 179 459 265 452 l 179 0 l 132 0 l 132 1015 q 251 1032 194 1026 q 378 1038 308 1038 q 663 967 571 1038 q 755 749 755 897 q 470 460 757 502 l 831 0 l 774 0 m 340 497 q 551 525 469 497 q 670 607 632 552 q 708 747 708 662 q 674 888 708 835 q 567 967 640 942 q 376 992 494 992 q 273 988 317 992 q 179 975 229 983 l 179 504 q 261 499 228 500 q 340 497 293 497 m 222 1142 q 277 1260 228 1218 q 417 1303 326 1303 q 558 1260 508 1303 q 614 1142 608 1217 l 574 1142 q 529 1232 565 1203 q 417 1262 493 1262 q 305 1232 340 1262 q 263 1142 269 1203 l 222 1142 z "},"Ṟ":{"ha":879,"x_min":132,"x_max":831,"o":"m 774 0 l 418 455 q 341 452 385 452 q 179 459 265 452 l 179 0 l 132 0 l 132 1015 q 251 1032 194 1026 q 378 1038 308 1038 q 663 967 571 1038 q 755 749 755 897 q 470 460 757 502 l 831 0 l 774 0 m 340 497 q 551 525 469 497 q 670 607 632 552 q 708 747 708 662 q 674 888 708 835 q 567 967 640 942 q 376 992 494 992 q 273 988 317 992 q 179 975 229 983 l 179 504 q 261 499 228 500 q 340 497 293 497 m 271 -193 l 271 -152 l 646 -152 l 646 -193 l 271 -193 z "},"S":{"ha":701,"x_min":59,"x_max":642,"o":"m 304 -12 q 188 -2 249 -12 q 70 27 126 8 l 70 74 q 307 33 191 33 q 520 91 449 33 q 592 262 592 149 q 568 368 592 326 q 494 439 544 410 q 357 490 443 468 l 314 501 q 122 600 184 535 q 59 772 59 666 q 97 916 59 856 q 208 1008 134 976 q 390 1040 282 1040 q 500 1032 444 1040 q 602 1009 556 1024 l 602 962 q 387 994 498 994 q 179 938 249 994 q 109 775 109 882 q 131 670 109 713 q 201 599 153 628 q 331 549 249 570 l 374 538 q 578 437 513 502 q 642 264 642 372 q 555 59 642 131 q 304 -12 467 -12 z "},"Ś":{"ha":701,"x_min":59,"x_max":642,"o":"m 304 -12 q 188 -2 249 -12 q 70 27 126 8 l 70 74 q 307 33 191 33 q 520 91 449 33 q 592 262 592 149 q 568 368 592 326 q 494 439 544 410 q 357 490 443 468 l 314 501 q 122 600 184 535 q 59 772 59 666 q 97 916 59 856 q 208 1008 134 976 q 390 1040 282 1040 q 500 1032 444 1040 q 602 1009 556 1024 l 602 962 q 387 994 498 994 q 179 938 249 994 q 109 775 109 882 q 131 670 109 713 q 201 599 153 628 q 331 549 249 570 l 374 538 q 578 437 513 502 q 642 264 642 372 q 555 59 642 131 q 304 -12 467 -12 m 333 1122 l 455 1311 l 510 1311 l 378 1122 l 333 1122 z "},"Ṥ":{"ha":701,"x_min":59,"x_max":642,"o":"m 304 -12 q 188 -2 249 -12 q 70 27 126 8 l 70 74 q 307 33 191 33 q 520 91 449 33 q 592 262 592 149 q 568 368 592 326 q 494 439 544 410 q 357 490 443 468 l 314 501 q 122 600 184 535 q 59 772 59 666 q 97 916 59 856 q 208 1008 134 976 q 390 1040 282 1040 q 500 1032 444 1040 q 602 1009 556 1024 l 602 962 q 387 994 498 994 q 179 938 249 994 q 109 775 109 882 q 131 670 109 713 q 201 599 153 628 q 331 549 249 570 l 374 538 q 578 437 513 502 q 642 264 642 372 q 555 59 642 131 q 304 -12 467 -12 m 328 1283 q 297 1295 309 1283 q 285 1326 285 1307 q 297 1358 285 1346 q 328 1371 309 1371 q 359 1358 347 1371 q 371 1326 371 1346 q 359 1295 371 1307 q 328 1283 347 1283 m 333 1122 l 455 1311 l 510 1311 l 378 1122 l 333 1122 z "},"Š":{"ha":701,"x_min":59,"x_max":642,"o":"m 304 -12 q 188 -2 249 -12 q 70 27 126 8 l 70 74 q 307 33 191 33 q 520 91 449 33 q 592 262 592 149 q 568 368 592 326 q 494 439 544 410 q 357 490 443 468 l 314 501 q 122 600 184 535 q 59 772 59 666 q 97 916 59 856 q 208 1008 134 976 q 390 1040 282 1040 q 500 1032 444 1040 q 602 1009 556 1024 l 602 962 q 387 994 498 994 q 179 938 249 994 q 109 775 109 882 q 131 670 109 713 q 201 599 153 628 q 331 549 249 570 l 374 538 q 578 437 513 502 q 642 264 642 372 q 555 59 642 131 q 304 -12 467 -12 m 492 1311 l 549 1311 l 382 1122 l 329 1122 l 163 1311 l 219 1311 l 356 1153 l 492 1311 z "},"Ṧ":{"ha":701,"x_min":59,"x_max":642,"o":"m 304 -12 q 188 -2 249 -12 q 70 27 126 8 l 70 74 q 307 33 191 33 q 520 91 449 33 q 592 262 592 149 q 568 368 592 326 q 494 439 544 410 q 357 490 443 468 l 314 501 q 122 600 184 535 q 59 772 59 666 q 97 916 59 856 q 208 1008 134 976 q 390 1040 282 1040 q 500 1032 444 1040 q 602 1009 556 1024 l 602 962 q 387 994 498 994 q 179 938 249 994 q 109 775 109 882 q 131 670 109 713 q 201 599 153 628 q 331 549 249 570 l 374 538 q 578 437 513 502 q 642 264 642 372 q 555 59 642 131 q 304 -12 467 -12 m 356 1311 q 325 1323 337 1311 q 313 1354 313 1335 q 325 1386 313 1374 q 356 1399 337 1399 q 386 1386 374 1399 q 399 1354 399 1374 q 386 1323 399 1335 q 356 1311 374 1311 m 492 1311 l 549 1311 l 382 1122 l 329 1122 l 163 1311 l 219 1311 l 356 1153 l 492 1311 z "},"Ş":{"ha":701,"x_min":59,"x_max":642,"o":"m 642 264 q 574 76 642 146 q 375 -8 505 6 l 375 -78 q 464 -106 431 -80 q 497 -178 497 -131 q 461 -252 497 -226 q 364 -278 425 -278 q 297 -271 331 -278 q 234 -251 263 -264 l 234 -212 q 302 -235 272 -228 q 364 -242 333 -242 q 433 -226 409 -242 q 458 -178 458 -210 q 363 -114 458 -114 l 336 -114 l 336 -12 q 304 -12 326 -12 q 188 -2 249 -12 q 70 27 126 8 l 70 74 q 307 33 191 33 q 520 91 449 33 q 592 262 592 149 q 568 368 592 326 q 494 439 544 410 q 357 490 443 468 l 314 501 q 122 600 184 535 q 59 772 59 666 q 97 916 59 856 q 208 1008 134 976 q 390 1040 282 1040 q 500 1032 444 1040 q 602 1009 556 1024 l 602 962 q 387 994 498 994 q 179 938 249 994 q 109 775 109 882 q 131 670 109 713 q 201 599 153 628 q 331 549 249 570 l 374 538 q 578 437 513 502 q 642 264 642 372 z "},"Ŝ":{"ha":701,"x_min":59,"x_max":642,"o":"m 304 -12 q 188 -2 249 -12 q 70 27 126 8 l 70 74 q 307 33 191 33 q 520 91 449 33 q 592 262 592 149 q 568 368 592 326 q 494 439 544 410 q 357 490 443 468 l 314 501 q 122 600 184 535 q 59 772 59 666 q 97 916 59 856 q 208 1008 134 976 q 390 1040 282 1040 q 500 1032 444 1040 q 602 1009 556 1024 l 602 962 q 387 994 498 994 q 179 938 249 994 q 109 775 109 882 q 131 670 109 713 q 201 599 153 628 q 331 549 249 570 l 374 538 q 578 437 513 502 q 642 264 642 372 q 555 59 642 131 q 304 -12 467 -12 m 549 1122 l 492 1122 l 356 1281 l 219 1122 l 163 1122 l 329 1311 l 382 1311 l 549 1122 z "},"Ș":{"ha":701,"x_min":59,"x_max":642,"o":"m 304 -12 q 188 -2 249 -12 q 70 27 126 8 l 70 74 q 307 33 191 33 q 520 91 449 33 q 592 262 592 149 q 568 368 592 326 q 494 439 544 410 q 357 490 443 468 l 314 501 q 122 600 184 535 q 59 772 59 666 q 97 916 59 856 q 208 1008 134 976 q 390 1040 282 1040 q 500 1032 444 1040 q 602 1009 556 1024 l 602 962 q 387 994 498 994 q 179 938 249 994 q 109 775 109 882 q 131 670 109 713 q 201 599 153 628 q 331 549 249 570 l 374 538 q 578 437 513 502 q 642 264 642 372 q 555 59 642 131 q 304 -12 467 -12 m 353 -128 q 386 -143 374 -128 q 399 -187 399 -158 q 391 -247 399 -214 q 368 -311 383 -281 l 338 -311 q 360 -215 357 -262 l 356 -215 q 325 -203 337 -215 q 313 -171 313 -190 q 324 -140 313 -152 q 353 -128 335 -128 z "},"Ṡ":{"ha":701,"x_min":59,"x_max":642,"o":"m 304 -12 q 188 -2 249 -12 q 70 27 126 8 l 70 74 q 307 33 191 33 q 520 91 449 33 q 592 262 592 149 q 568 368 592 326 q 494 439 544 410 q 357 490 443 468 l 314 501 q 122 600 184 535 q 59 772 59 666 q 97 916 59 856 q 208 1008 134 976 q 390 1040 282 1040 q 500 1032 444 1040 q 602 1009 556 1024 l 602 962 q 387 994 498 994 q 179 938 249 994 q 109 775 109 882 q 131 670 109 713 q 201 599 153 628 q 331 549 249 570 l 374 538 q 578 437 513 502 q 642 264 642 372 q 555 59 642 131 q 304 -12 467 -12 m 356 1174 q 325 1185 337 1174 q 313 1217 313 1197 q 325 1249 313 1236 q 356 1261 337 1261 q 386 1249 374 1261 q 399 1217 399 1236 q 386 1185 399 1197 q 356 1174 374 1174 z "},"Ṣ":{"ha":701,"x_min":59,"x_max":642,"o":"m 304 -12 q 188 -2 249 -12 q 70 27 126 8 l 70 74 q 307 33 191 33 q 520 91 449 33 q 592 262 592 149 q 568 368 592 326 q 494 439 544 410 q 357 490 443 468 l 314 501 q 122 600 184 535 q 59 772 59 666 q 97 916 59 856 q 208 1008 134 976 q 390 1040 282 1040 q 500 1032 444 1040 q 602 1009 556 1024 l 602 962 q 387 994 498 994 q 179 938 249 994 q 109 775 109 882 q 131 670 109 713 q 201 599 153 628 q 331 549 249 570 l 374 538 q 578 437 513 502 q 642 264 642 372 q 555 59 642 131 q 304 -12 467 -12 m 356 -215 q 325 -203 337 -215 q 313 -172 313 -192 q 325 -140 313 -153 q 356 -128 337 -128 q 386 -140 374 -128 q 399 -172 399 -153 q 386 -203 399 -192 q 356 -215 374 -215 z "},"Ṩ":{"ha":701,"x_min":59,"x_max":642,"o":"m 304 -12 q 188 -2 249 -12 q 70 27 126 8 l 70 74 q 307 33 191 33 q 520 91 449 33 q 592 262 592 149 q 568 368 592 326 q 494 439 544 410 q 357 490 443 468 l 314 501 q 122 600 184 535 q 59 772 59 666 q 97 916 59 856 q 208 1008 134 976 q 390 1040 282 1040 q 500 1032 444 1040 q 602 1009 556 1024 l 602 962 q 387 994 498 994 q 179 938 249 994 q 109 775 109 882 q 131 670 109 713 q 201 599 153 628 q 331 549 249 570 l 374 538 q 578 437 513 502 q 642 264 642 372 q 555 59 642 131 q 304 -12 467 -12 m 356 -215 q 325 -203 337 -215 q 313 -172 313 -192 q 325 -140 313 -153 q 356 -128 337 -128 q 386 -140 374 -128 q 399 -172 399 -153 q 386 -203 399 -192 q 356 -215 374 -215 m 356 1174 q 325 1185 337 1174 q 313 1217 313 1197 q 325 1249 313 1236 q 356 1261 337 1261 q 386 1249 374 1261 q 399 1217 399 1236 q 386 1185 399 1197 q 356 1174 374 1174 z "},"ẞ":{"ha":1126,"x_min":132,"x_max":1067,"o":"m 799 538 q 1003 437 938 502 q 1067 264 1067 372 q 980 59 1067 131 q 729 -12 892 -12 q 613 -2 674 -12 q 495 27 551 8 l 495 74 q 732 33 616 33 q 945 91 874 33 q 1017 262 1017 149 q 993 368 1017 326 q 919 439 969 410 q 782 490 868 468 l 739 501 q 547 600 609 535 q 484 772 484 666 q 510 895 484 842 q 588 984 537 949 q 483 994 541 994 q 310 960 376 994 q 211 853 243 925 q 179 667 179 781 l 179 0 l 132 0 l 132 660 q 169 876 132 792 q 284 1000 207 960 q 483 1040 362 1040 q 647 1014 581 1040 q 815 1040 717 1040 q 925 1032 869 1040 q 1027 1009 981 1024 l 1027 962 q 812 994 923 994 q 604 938 674 994 q 534 775 534 882 q 556 670 534 713 q 626 599 578 628 q 756 549 674 570 l 799 538 z "},"Ə":{"ha":951,"x_min":75,"x_max":869,"o":"m 390 1040 q 747 915 624 1040 q 869 513 869 790 q 766 113 869 239 q 475 -12 662 -12 q 180 112 284 -12 q 75 507 75 237 l 75 542 l 819 542 q 765 808 815 708 q 622 951 715 908 q 388 994 528 994 q 256 986 324 994 q 126 960 188 978 l 126 1008 q 390 1040 249 1040 m 475 34 q 727 142 637 34 q 819 496 817 250 l 125 496 q 217 141 128 249 q 475 34 307 34 z "},"T":{"ha":772,"x_min":10,"x_max":763,"o":"m 363 0 l 363 982 l 10 982 l 10 1028 l 763 1028 l 763 982 l 410 982 l 410 0 l 363 0 z "},"Ŧ":{"ha":772,"x_min":10,"x_max":763,"o":"m 763 982 l 410 982 l 410 576 l 644 576 l 644 535 l 410 535 l 410 0 l 363 0 l 363 535 l 128 535 l 128 576 l 363 576 l 363 982 l 10 982 l 10 1028 l 763 1028 l 763 982 z "},"Ť":{"ha":772,"x_min":10,"x_max":763,"o":"m 363 0 l 363 982 l 10 982 l 10 1028 l 763 1028 l 763 982 l 410 982 l 410 0 l 363 0 m 523 1311 l 579 1311 l 413 1122 l 360 1122 l 193 1311 l 249 1311 l 386 1153 l 523 1311 z "},"Ţ":{"ha":772,"x_min":10,"x_max":763,"o":"m 406 0 l 406 -78 q 494 -106 461 -80 q 527 -178 527 -131 q 491 -252 527 -226 q 394 -278 456 -278 q 327 -271 362 -278 q 265 -251 293 -264 l 265 -212 q 333 -235 302 -228 q 394 -242 363 -242 q 464 -226 440 -242 q 488 -178 488 -210 q 393 -114 488 -114 l 367 -114 l 367 0 l 363 0 l 363 982 l 10 982 l 10 1028 l 763 1028 l 763 982 l 410 982 l 410 0 l 406 0 z "},"Ț":{"ha":772,"x_min":10,"x_max":763,"o":"m 363 0 l 363 982 l 10 982 l 10 1028 l 763 1028 l 763 982 l 410 982 l 410 0 l 363 0 m 383 -128 q 417 -143 405 -128 q 429 -187 429 -158 q 422 -247 429 -214 q 399 -311 414 -281 l 368 -311 q 391 -215 388 -262 l 386 -215 q 355 -203 367 -215 q 343 -171 343 -190 q 355 -140 343 -152 q 383 -128 366 -128 z "},"Ṭ":{"ha":772,"x_min":10,"x_max":763,"o":"m 363 0 l 363 982 l 10 982 l 10 1028 l 763 1028 l 763 982 l 410 982 l 410 0 l 363 0 m 386 -215 q 355 -203 367 -215 q 343 -172 343 -192 q 355 -140 343 -153 q 386 -128 367 -128 q 417 -140 405 -128 q 429 -172 429 -153 q 417 -203 429 -192 q 386 -215 405 -215 z "},"Ṯ":{"ha":772,"x_min":10,"x_max":763,"o":"m 363 0 l 363 982 l 10 982 l 10 1028 l 763 1028 l 763 982 l 410 982 l 410 0 l 363 0 m 199 -193 l 199 -152 l 574 -152 l 574 -193 l 199 -193 z "},"U":{"ha":953,"x_min":126,"x_max":826,"o":"m 477 -12 q 279 28 356 -12 q 164 152 201 68 q 126 367 126 235 l 126 1028 l 174 1028 l 174 360 q 206 175 174 247 q 304 68 238 103 q 477 33 371 33 q 650 68 583 33 q 749 175 717 103 q 781 360 781 247 l 781 1028 l 826 1028 l 826 367 q 789 152 826 235 q 675 28 752 68 q 477 -12 598 -12 z "},"Ú":{"ha":953,"x_min":126,"x_max":826,"o":"m 477 -12 q 279 28 356 -12 q 164 152 201 68 q 126 367 126 235 l 126 1028 l 174 1028 l 174 360 q 206 175 174 247 q 304 68 238 103 q 477 33 371 33 q 650 68 583 33 q 749 175 717 103 q 781 360 781 247 l 781 1028 l 826 1028 l 826 367 q 789 152 826 235 q 675 28 752 68 q 477 -12 598 -12 m 455 1122 l 576 1311 l 631 1311 l 499 1122 l 455 1122 z "},"Ŭ":{"ha":953,"x_min":126,"x_max":826,"o":"m 477 -12 q 279 28 356 -12 q 164 152 201 68 q 126 367 126 235 l 126 1028 l 174 1028 l 174 360 q 206 175 174 247 q 304 68 238 103 q 477 33 371 33 q 650 68 583 33 q 749 175 717 103 q 781 360 781 247 l 781 1028 l 826 1028 l 826 367 q 789 152 826 235 q 675 28 752 68 q 477 -12 598 -12 m 478 1131 q 338 1173 388 1131 q 281 1292 288 1216 l 322 1292 q 366 1201 330 1231 q 478 1172 402 1172 q 590 1201 555 1172 q 633 1292 626 1231 l 673 1292 q 618 1173 667 1215 q 478 1131 569 1131 z "},"Û":{"ha":953,"x_min":126,"x_max":826,"o":"m 477 -12 q 279 28 356 -12 q 164 152 201 68 q 126 367 126 235 l 126 1028 l 174 1028 l 174 360 q 206 175 174 247 q 304 68 238 103 q 477 33 371 33 q 650 68 583 33 q 749 175 717 103 q 781 360 781 247 l 781 1028 l 826 1028 l 826 367 q 789 152 826 235 q 675 28 752 68 q 477 -12 598 -12 m 670 1122 l 614 1122 l 477 1281 l 340 1122 l 284 1122 l 451 1311 l 503 1311 l 670 1122 z "},"Ȕ":{"ha":953,"x_min":126,"x_max":826,"o":"m 477 -12 q 279 28 356 -12 q 164 152 201 68 q 126 367 126 235 l 126 1028 l 174 1028 l 174 360 q 206 175 174 247 q 304 68 238 103 q 477 33 371 33 q 650 68 583 33 q 749 175 717 103 q 781 360 781 247 l 781 1028 l 826 1028 l 826 367 q 789 152 826 235 q 675 28 752 68 q 477 -12 598 -12 m 353 1122 l 263 1311 l 310 1311 l 396 1122 l 353 1122 m 558 1122 l 468 1311 l 515 1311 l 601 1122 l 558 1122 z "},"Ü":{"ha":953,"x_min":126,"x_max":826,"o":"m 477 -12 q 279 28 356 -12 q 164 152 201 68 q 126 367 126 235 l 126 1028 l 174 1028 l 174 360 q 206 175 174 247 q 304 68 238 103 q 477 33 371 33 q 650 68 583 33 q 749 175 717 103 q 781 360 781 247 l 781 1028 l 826 1028 l 826 367 q 789 152 826 235 q 675 28 752 68 q 477 -12 598 -12 m 324 1174 q 293 1185 306 1174 q 281 1217 281 1197 q 293 1249 281 1236 q 324 1261 306 1261 q 355 1249 343 1261 q 367 1217 367 1236 q 355 1185 367 1197 q 324 1174 343 1174 m 630 1174 q 599 1185 611 1174 q 587 1217 587 1197 q 599 1249 587 1236 q 630 1261 611 1261 q 661 1249 649 1261 q 673 1217 673 1236 q 661 1185 673 1197 q 630 1174 649 1174 z "},"Ụ":{"ha":953,"x_min":126,"x_max":826,"o":"m 477 -12 q 279 28 356 -12 q 164 152 201 68 q 126 367 126 235 l 126 1028 l 174 1028 l 174 360 q 206 175 174 247 q 304 68 238 103 q 477 33 371 33 q 650 68 583 33 q 749 175 717 103 q 781 360 781 247 l 781 1028 l 826 1028 l 826 367 q 789 152 826 235 q 675 28 752 68 q 477 -12 598 -12 m 477 -215 q 446 -203 458 -215 q 434 -172 434 -192 q 446 -140 434 -153 q 477 -128 458 -128 q 508 -140 496 -128 q 520 -172 520 -153 q 508 -203 520 -192 q 477 -215 496 -215 z "},"Ù":{"ha":953,"x_min":126,"x_max":826,"o":"m 477 -12 q 279 28 356 -12 q 164 152 201 68 q 126 367 126 235 l 126 1028 l 174 1028 l 174 360 q 206 175 174 247 q 304 68 238 103 q 477 33 371 33 q 650 68 583 33 q 749 175 717 103 q 781 360 781 247 l 781 1028 l 826 1028 l 826 367 q 789 152 826 235 q 675 28 752 68 q 477 -12 598 -12 m 455 1122 l 323 1311 l 378 1311 l 499 1122 l 455 1122 z "},"Ủ":{"ha":953,"x_min":126,"x_max":826,"o":"m 477 -12 q 279 28 356 -12 q 164 152 201 68 q 126 367 126 235 l 126 1028 l 174 1028 l 174 360 q 206 175 174 247 q 304 68 238 103 q 477 33 371 33 q 650 68 583 33 q 749 175 717 103 q 781 360 781 247 l 781 1028 l 826 1028 l 826 367 q 789 152 826 235 q 675 28 752 68 q 477 -12 598 -12 m 455 1122 q 466 1156 456 1142 q 489 1176 476 1169 q 524 1193 502 1184 q 560 1213 549 1204 q 572 1237 572 1222 q 553 1264 572 1255 q 488 1274 535 1274 q 418 1267 451 1274 q 351 1248 386 1261 l 351 1286 q 488 1311 408 1311 q 581 1291 550 1311 q 613 1238 613 1271 q 597 1197 613 1210 q 551 1169 581 1183 q 513 1149 526 1158 q 499 1122 501 1140 l 455 1122 z "},"Ư":{"ha":953,"x_min":126,"x_max":988,"o":"m 477 -12 q 279 28 356 -12 q 164 152 201 68 q 126 367 126 235 l 126 1028 l 174 1028 l 174 360 q 206 175 174 247 q 304 68 238 103 q 477 33 371 33 q 650 68 583 33 q 749 175 717 103 q 781 360 781 247 l 781 1028 l 803 1028 q 906 1054 869 1028 q 942 1135 942 1080 q 938 1184 942 1162 q 924 1233 933 1206 l 970 1233 q 983 1186 979 1208 q 988 1133 988 1163 q 944 1026 988 1065 q 826 984 901 988 l 826 367 q 789 152 826 235 q 675 28 752 68 q 477 -12 598 -12 z "},"Ứ":{"ha":953,"x_min":126,"x_max":988,"o":"m 477 -12 q 279 28 356 -12 q 164 152 201 68 q 126 367 126 235 l 126 1028 l 174 1028 l 174 360 q 206 175 174 247 q 304 68 238 103 q 477 33 371 33 q 650 68 583 33 q 749 175 717 103 q 781 360 781 247 l 781 1028 l 803 1028 q 906 1054 869 1028 q 942 1135 942 1080 q 938 1184 942 1162 q 924 1233 933 1206 l 970 1233 q 983 1186 979 1208 q 988 1133 988 1163 q 944 1026 988 1065 q 826 984 901 988 l 826 367 q 789 152 826 235 q 675 28 752 68 q 477 -12 598 -12 m 455 1122 l 576 1311 l 631 1311 l 499 1122 l 455 1122 z "},"Ự":{"ha":953,"x_min":126,"x_max":988,"o":"m 477 -12 q 279 28 356 -12 q 164 152 201 68 q 126 367 126 235 l 126 1028 l 174 1028 l 174 360 q 206 175 174 247 q 304 68 238 103 q 477 33 371 33 q 650 68 583 33 q 749 175 717 103 q 781 360 781 247 l 781 1028 l 803 1028 q 906 1054 869 1028 q 942 1135 942 1080 q 938 1184 942 1162 q 924 1233 933 1206 l 970 1233 q 983 1186 979 1208 q 988 1133 988 1163 q 944 1026 988 1065 q 826 984 901 988 l 826 367 q 789 152 826 235 q 675 28 752 68 q 477 -12 598 -12 m 477 -215 q 446 -203 458 -215 q 434 -172 434 -192 q 446 -140 434 -153 q 477 -128 458 -128 q 508 -140 496 -128 q 520 -172 520 -153 q 508 -203 520 -192 q 477 -215 496 -215 z "},"Ừ":{"ha":953,"x_min":126,"x_max":988,"o":"m 477 -12 q 279 28 356 -12 q 164 152 201 68 q 126 367 126 235 l 126 1028 l 174 1028 l 174 360 q 206 175 174 247 q 304 68 238 103 q 477 33 371 33 q 650 68 583 33 q 749 175 717 103 q 781 360 781 247 l 781 1028 l 803 1028 q 906 1054 869 1028 q 942 1135 942 1080 q 938 1184 942 1162 q 924 1233 933 1206 l 970 1233 q 983 1186 979 1208 q 988 1133 988 1163 q 944 1026 988 1065 q 826 984 901 988 l 826 367 q 789 152 826 235 q 675 28 752 68 q 477 -12 598 -12 m 455 1122 l 323 1311 l 378 1311 l 499 1122 l 455 1122 z "},"Ử":{"ha":953,"x_min":126,"x_max":988,"o":"m 477 -12 q 279 28 356 -12 q 164 152 201 68 q 126 367 126 235 l 126 1028 l 174 1028 l 174 360 q 206 175 174 247 q 304 68 238 103 q 477 33 371 33 q 650 68 583 33 q 749 175 717 103 q 781 360 781 247 l 781 1028 l 803 1028 q 906 1054 869 1028 q 942 1135 942 1080 q 938 1184 942 1162 q 924 1233 933 1206 l 970 1233 q 983 1186 979 1208 q 988 1133 988 1163 q 944 1026 988 1065 q 826 984 901 988 l 826 367 q 789 152 826 235 q 675 28 752 68 q 477 -12 598 -12 m 455 1122 q 466 1156 456 1142 q 489 1176 476 1169 q 524 1193 502 1184 q 560 1213 549 1204 q 572 1237 572 1222 q 553 1264 572 1255 q 488 1274 535 1274 q 418 1267 451 1274 q 351 1248 386 1261 l 351 1286 q 488 1311 408 1311 q 581 1291 550 1311 q 613 1238 613 1271 q 597 1197 613 1210 q 551 1169 581 1183 q 513 1149 526 1158 q 499 1122 501 1140 l 455 1122 z "},"Ữ":{"ha":953,"x_min":126,"x_max":988,"o":"m 477 -12 q 279 28 356 -12 q 164 152 201 68 q 126 367 126 235 l 126 1028 l 174 1028 l 174 360 q 206 175 174 247 q 304 68 238 103 q 477 33 371 33 q 650 68 583 33 q 749 175 717 103 q 781 360 781 247 l 781 1028 l 803 1028 q 906 1054 869 1028 q 942 1135 942 1080 q 938 1184 942 1162 q 924 1233 933 1206 l 970 1233 q 983 1186 979 1208 q 988 1133 988 1163 q 944 1026 988 1065 q 826 984 901 988 l 826 367 q 789 152 826 235 q 675 28 752 68 q 477 -12 598 -12 m 577 1178 q 525 1186 550 1178 q 467 1207 501 1193 q 417 1225 438 1219 q 377 1231 397 1231 q 318 1219 343 1231 q 269 1182 292 1208 l 269 1228 q 377 1271 308 1271 q 429 1264 404 1271 q 487 1242 453 1256 q 537 1224 517 1230 q 577 1218 557 1218 q 636 1230 611 1218 q 685 1267 662 1242 l 685 1221 q 577 1178 647 1178 z "},"Ű":{"ha":953,"x_min":126,"x_max":826,"o":"m 477 -12 q 279 28 356 -12 q 164 152 201 68 q 126 367 126 235 l 126 1028 l 174 1028 l 174 360 q 206 175 174 247 q 304 68 238 103 q 477 33 371 33 q 650 68 583 33 q 749 175 717 103 q 781 360 781 247 l 781 1028 l 826 1028 l 826 367 q 789 152 826 235 q 675 28 752 68 q 477 -12 598 -12 m 353 1122 l 439 1311 l 486 1311 l 396 1122 l 353 1122 m 558 1122 l 644 1311 l 691 1311 l 601 1122 l 558 1122 z "},"Ȗ":{"ha":953,"x_min":126,"x_max":826,"o":"m 477 -12 q 279 28 356 -12 q 164 152 201 68 q 126 367 126 235 l 126 1028 l 174 1028 l 174 360 q 206 175 174 247 q 304 68 238 103 q 477 33 371 33 q 650 68 583 33 q 749 175 717 103 q 781 360 781 247 l 781 1028 l 826 1028 l 826 367 q 789 152 826 235 q 675 28 752 68 q 477 -12 598 -12 m 281 1142 q 336 1260 288 1218 q 476 1303 385 1303 q 617 1260 567 1303 q 673 1142 667 1217 l 633 1142 q 588 1232 624 1203 q 476 1262 552 1262 q 364 1232 399 1262 q 322 1142 328 1203 l 281 1142 z "},"Ū":{"ha":953,"x_min":126,"x_max":826,"o":"m 477 -12 q 279 28 356 -12 q 164 152 201 68 q 126 367 126 235 l 126 1028 l 174 1028 l 174 360 q 206 175 174 247 q 304 68 238 103 q 477 33 371 33 q 650 68 583 33 q 749 175 717 103 q 781 360 781 247 l 781 1028 l 826 1028 l 826 367 q 789 152 826 235 q 675 28 752 68 q 477 -12 598 -12 m 290 1197 l 290 1238 l 665 1238 l 665 1197 l 290 1197 z "},"Ṻ":{"ha":953,"x_min":126,"x_max":826,"o":"m 477 -12 q 279 28 356 -12 q 164 152 201 68 q 126 367 126 235 l 126 1028 l 174 1028 l 174 360 q 206 175 174 247 q 304 68 238 103 q 477 33 371 33 q 650 68 583 33 q 749 175 717 103 q 781 360 781 247 l 781 1028 l 826 1028 l 826 367 q 789 152 826 235 q 675 28 752 68 q 477 -12 598 -12 m 290 1197 l 290 1238 l 665 1238 l 665 1197 l 290 1197 m 324 1332 q 293 1344 306 1332 q 281 1375 281 1356 q 293 1407 281 1394 q 324 1419 306 1419 q 355 1407 343 1419 q 367 1375 367 1394 q 355 1344 367 1356 q 324 1332 343 1332 m 630 1332 q 599 1344 611 1332 q 587 1375 587 1356 q 599 1407 587 1394 q 630 1419 611 1419 q 661 1407 649 1419 q 673 1375 673 1394 q 661 1344 673 1356 q 630 1332 649 1332 z "},"Ų":{"ha":953,"x_min":126,"x_max":826,"o":"m 826 1028 l 826 367 q 776 125 826 215 q 613 3 725 35 q 435 -156 435 -48 q 462 -219 435 -198 q 540 -240 488 -240 q 594 -234 567 -240 q 658 -212 621 -227 l 658 -249 q 542 -276 599 -276 q 434 -245 471 -276 q 397 -156 397 -215 q 418 -77 397 -115 q 487 -12 440 -40 l 477 -12 q 279 28 356 -12 q 164 152 201 68 q 126 367 126 235 l 126 1028 l 174 1028 l 174 360 q 206 175 174 247 q 304 68 238 103 q 477 33 371 33 q 650 68 583 33 q 749 175 717 103 q 781 360 781 247 l 781 1028 l 826 1028 z "},"Ů":{"ha":953,"x_min":126,"x_max":826,"o":"m 477 -12 q 279 28 356 -12 q 164 152 201 68 q 126 367 126 235 l 126 1028 l 174 1028 l 174 360 q 206 175 174 247 q 304 68 238 103 q 477 33 371 33 q 650 68 583 33 q 749 175 717 103 q 781 360 781 247 l 781 1028 l 826 1028 l 826 367 q 789 152 826 235 q 675 28 752 68 q 477 -12 598 -12 m 477 1119 q 412 1135 441 1119 q 366 1181 383 1152 q 349 1247 349 1210 q 366 1312 349 1283 q 412 1358 383 1341 q 477 1374 441 1374 q 542 1358 513 1374 q 588 1312 572 1341 q 605 1247 605 1283 q 588 1181 605 1210 q 542 1135 572 1152 q 477 1119 513 1119 m 477 1155 q 542 1180 517 1155 q 567 1247 567 1204 q 542 1314 567 1289 q 477 1338 517 1338 q 412 1314 437 1338 q 387 1247 387 1289 q 412 1180 387 1204 q 477 1155 437 1155 z "},"Ũ":{"ha":953,"x_min":126,"x_max":826,"o":"m 477 -12 q 279 28 356 -12 q 164 152 201 68 q 126 367 126 235 l 126 1028 l 174 1028 l 174 360 q 206 175 174 247 q 304 68 238 103 q 477 33 371 33 q 650 68 583 33 q 749 175 717 103 q 781 360 781 247 l 781 1028 l 826 1028 l 826 367 q 789 152 826 235 q 675 28 752 68 q 477 -12 598 -12 m 577 1178 q 525 1186 550 1178 q 467 1207 501 1193 q 417 1225 438 1219 q 377 1231 397 1231 q 318 1219 343 1231 q 269 1182 292 1208 l 269 1228 q 377 1271 308 1271 q 429 1264 404 1271 q 487 1242 453 1256 q 537 1224 517 1230 q 577 1218 557 1218 q 636 1230 611 1218 q 685 1267 662 1242 l 685 1221 q 577 1178 647 1178 z "},"Ṹ":{"ha":953,"x_min":126,"x_max":826,"o":"m 477 -12 q 279 28 356 -12 q 164 152 201 68 q 126 367 126 235 l 126 1028 l 174 1028 l 174 360 q 206 175 174 247 q 304 68 238 103 q 477 33 371 33 q 650 68 583 33 q 749 175 717 103 q 781 360 781 247 l 781 1028 l 826 1028 l 826 367 q 789 152 826 235 q 675 28 752 68 q 477 -12 598 -12 m 455 1308 l 576 1469 l 631 1469 l 500 1308 l 455 1308 m 577 1178 q 525 1186 550 1178 q 467 1207 501 1193 q 417 1225 438 1219 q 377 1231 397 1231 q 318 1219 343 1231 q 269 1182 292 1208 l 269 1228 q 377 1271 308 1271 q 429 1264 404 1271 q 487 1242 453 1256 q 537 1224 517 1230 q 577 1218 557 1218 q 636 1230 611 1218 q 685 1267 662 1242 l 685 1221 q 577 1178 647 1178 z "},"V":{"ha":865,"x_min":12,"x_max":853,"o":"m 804 1028 l 853 1028 l 465 0 l 400 0 l 12 1028 l 64 1028 l 434 42 l 804 1028 z "},"W":{"ha":1403,"x_min":48,"x_max":1355,"o":"m 1307 1028 l 1355 1028 l 1055 0 l 990 0 l 702 974 l 414 0 l 349 0 l 48 1028 l 99 1028 l 382 47 l 669 1028 l 735 1028 l 1023 47 l 1307 1028 z "},"Ẃ":{"ha":1403,"x_min":48,"x_max":1355,"o":"m 1307 1028 l 1355 1028 l 1055 0 l 990 0 l 702 974 l 414 0 l 349 0 l 48 1028 l 99 1028 l 382 47 l 669 1028 l 735 1028 l 1023 47 l 1307 1028 m 681 1122 l 802 1311 l 857 1311 l 725 1122 l 681 1122 z "},"Ŵ":{"ha":1403,"x_min":48,"x_max":1355,"o":"m 1307 1028 l 1355 1028 l 1055 0 l 990 0 l 702 974 l 414 0 l 349 0 l 48 1028 l 99 1028 l 382 47 l 669 1028 l 735 1028 l 1023 47 l 1307 1028 m 896 1122 l 840 1122 l 703 1281 l 566 1122 l 510 1122 l 676 1311 l 729 1311 l 896 1122 z "},"Ẅ":{"ha":1403,"x_min":48,"x_max":1355,"o":"m 1307 1028 l 1355 1028 l 1055 0 l 990 0 l 702 974 l 414 0 l 349 0 l 48 1028 l 99 1028 l 382 47 l 669 1028 l 735 1028 l 1023 47 l 1307 1028 m 550 1174 q 519 1185 531 1174 q 507 1217 507 1197 q 519 1249 507 1236 q 550 1261 531 1261 q 581 1249 569 1261 q 593 1217 593 1236 q 581 1185 593 1197 q 550 1174 569 1174 m 856 1174 q 825 1185 837 1174 q 813 1217 813 1197 q 825 1249 813 1236 q 856 1261 837 1261 q 886 1249 874 1261 q 899 1217 899 1236 q 886 1185 899 1197 q 856 1174 874 1174 z "},"Ẁ":{"ha":1403,"x_min":48,"x_max":1355,"o":"m 1307 1028 l 1355 1028 l 1055 0 l 990 0 l 702 974 l 414 0 l 349 0 l 48 1028 l 99 1028 l 382 47 l 669 1028 l 735 1028 l 1023 47 l 1307 1028 m 681 1122 l 549 1311 l 603 1311 l 725 1122 l 681 1122 z "},"X":{"ha":849,"x_min":24,"x_max":824,"o":"m 453 519 l 824 0 l 764 0 l 424 478 l 83 0 l 24 0 l 395 519 l 31 1028 l 90 1028 l 424 560 l 759 1028 l 817 1028 l 453 519 z "},"Y":{"ha":772,"x_min":-13,"x_max":780,"o":"m 780 1028 l 410 472 l 410 0 l 363 0 l 363 472 l -13 1028 l 44 1028 l 387 518 l 724 1028 l 780 1028 z "},"Ý":{"ha":772,"x_min":-13,"x_max":780,"o":"m 780 1028 l 410 472 l 410 0 l 363 0 l 363 472 l -13 1028 l 44 1028 l 387 518 l 724 1028 l 780 1028 m 364 1122 l 485 1311 l 540 1311 l 408 1122 l 364 1122 z "},"Ŷ":{"ha":772,"x_min":-13,"x_max":780,"o":"m 780 1028 l 410 472 l 410 0 l 363 0 l 363 472 l -13 1028 l 44 1028 l 387 518 l 724 1028 l 780 1028 m 579 1122 l 523 1122 l 386 1281 l 249 1122 l 193 1122 l 360 1311 l 413 1311 l 579 1122 z "},"Ÿ":{"ha":772,"x_min":-13,"x_max":780,"o":"m 780 1028 l 410 472 l 410 0 l 363 0 l 363 472 l -13 1028 l 44 1028 l 387 518 l 724 1028 l 780 1028 m 233 1174 q 202 1185 215 1174 q 190 1217 190 1197 q 202 1249 190 1236 q 233 1261 215 1261 q 264 1249 252 1261 q 276 1217 276 1236 q 264 1185 276 1197 q 233 1174 252 1174 m 539 1174 q 508 1185 520 1174 q 496 1217 496 1197 q 508 1249 496 1236 q 539 1261 520 1261 q 570 1249 558 1261 q 582 1217 582 1236 q 570 1185 582 1197 q 539 1174 558 1174 z "},"Ẏ":{"ha":772,"x_min":-13,"x_max":780,"o":"m 780 1028 l 410 472 l 410 0 l 363 0 l 363 472 l -13 1028 l 44 1028 l 387 518 l 724 1028 l 780 1028 m 386 1174 q 355 1185 367 1174 q 343 1217 343 1197 q 355 1249 343 1236 q 386 1261 367 1261 q 417 1249 405 1261 q 429 1217 429 1236 q 417 1185 429 1197 q 386 1174 405 1174 z "},"Ỵ":{"ha":772,"x_min":-13,"x_max":780,"o":"m 780 1028 l 410 472 l 410 0 l 363 0 l 363 472 l -13 1028 l 44 1028 l 387 518 l 724 1028 l 780 1028 m 386 -215 q 355 -203 367 -215 q 343 -172 343 -192 q 355 -140 343 -153 q 386 -128 367 -128 q 417 -140 405 -128 q 429 -172 429 -153 q 417 -203 429 -192 q 386 -215 405 -215 z "},"Ỳ":{"ha":772,"x_min":-13,"x_max":780,"o":"m 780 1028 l 410 472 l 410 0 l 363 0 l 363 472 l -13 1028 l 44 1028 l 387 518 l 724 1028 l 780 1028 m 364 1122 l 232 1311 l 287 1311 l 408 1122 l 364 1122 z "},"Ỷ":{"ha":772,"x_min":-13,"x_max":780,"o":"m 780 1028 l 410 472 l 410 0 l 363 0 l 363 472 l -13 1028 l 44 1028 l 387 518 l 724 1028 l 780 1028 m 364 1122 q 375 1156 365 1142 q 398 1176 385 1169 q 433 1193 411 1184 q 469 1213 458 1204 q 481 1237 481 1222 q 462 1264 481 1255 q 397 1274 444 1274 q 327 1267 360 1274 q 260 1248 295 1261 l 260 1286 q 397 1311 317 1311 q 490 1291 459 1311 q 522 1238 522 1271 q 506 1197 522 1210 q 460 1169 490 1183 q 422 1149 435 1158 q 408 1122 410 1140 l 364 1122 z "},"Ȳ":{"ha":772,"x_min":-13,"x_max":780,"o":"m 780 1028 l 410 472 l 410 0 l 363 0 l 363 472 l -13 1028 l 44 1028 l 387 518 l 724 1028 l 780 1028 m 199 1197 l 199 1238 l 574 1238 l 574 1197 l 199 1197 z "},"Ỹ":{"ha":772,"x_min":-13,"x_max":780,"o":"m 780 1028 l 410 472 l 410 0 l 363 0 l 363 472 l -13 1028 l 44 1028 l 387 518 l 724 1028 l 780 1028 m 486 1178 q 434 1186 459 1178 q 376 1207 410 1193 q 326 1225 347 1219 q 286 1231 306 1231 q 227 1219 252 1231 q 178 1182 201 1208 l 178 1228 q 286 1271 217 1271 q 338 1264 313 1271 q 396 1242 363 1256 q 446 1224 426 1230 q 486 1218 466 1218 q 545 1230 520 1218 q 594 1267 571 1242 l 594 1221 q 486 1178 556 1178 z "},"Z":{"ha":766,"x_min":44,"x_max":722,"o":"m 109 44 l 722 44 l 722 0 l 44 0 l 44 28 l 649 983 l 52 983 l 52 1028 l 714 1028 l 714 1000 l 109 44 z "},"Ź":{"ha":766,"x_min":44,"x_max":722,"o":"m 109 44 l 722 44 l 722 0 l 44 0 l 44 28 l 649 983 l 52 983 l 52 1028 l 714 1028 l 714 1000 l 109 44 m 361 1122 l 483 1311 l 538 1311 l 406 1122 l 361 1122 z "},"Ž":{"ha":766,"x_min":44,"x_max":722,"o":"m 109 44 l 722 44 l 722 0 l 44 0 l 44 28 l 649 983 l 52 983 l 52 1028 l 714 1028 l 714 1000 l 109 44 m 520 1311 l 576 1311 l 410 1122 l 357 1122 l 190 1311 l 247 1311 l 383 1153 l 520 1311 z "},"Ż":{"ha":766,"x_min":44,"x_max":722,"o":"m 109 44 l 722 44 l 722 0 l 44 0 l 44 28 l 649 983 l 52 983 l 52 1028 l 714 1028 l 714 1000 l 109 44 m 383 1174 q 352 1185 365 1174 q 340 1217 340 1197 q 352 1249 340 1236 q 383 1261 365 1261 q 414 1249 402 1261 q 426 1217 426 1236 q 414 1185 426 1197 q 383 1174 402 1174 z "},"Ẓ":{"ha":766,"x_min":44,"x_max":722,"o":"m 109 44 l 722 44 l 722 0 l 44 0 l 44 28 l 649 983 l 52 983 l 52 1028 l 714 1028 l 714 1000 l 109 44 m 383 -215 q 352 -203 365 -215 q 340 -172 340 -192 q 352 -140 340 -153 q 383 -128 365 -128 q 414 -140 402 -128 q 426 -172 426 -153 q 414 -203 426 -192 q 383 -215 402 -215 z "},"a":{"ha":680,"x_min":75,"x_max":572,"o":"m 317 761 q 457 738 401 761 q 542 662 513 715 q 572 518 572 608 l 572 0 l 530 0 l 526 89 l 520 89 q 422 15 481 42 q 293 -11 362 -11 q 133 41 192 -11 q 75 185 75 92 q 135 332 75 280 q 324 399 195 383 l 524 422 l 524 518 q 501 638 524 594 q 432 698 477 681 q 317 715 388 715 q 219 707 272 715 q 115 680 167 698 l 115 727 q 212 752 158 743 q 317 761 267 761 m 295 35 q 419 64 360 35 q 524 153 479 92 l 524 376 l 323 353 q 173 301 219 341 q 126 190 126 262 q 169 74 126 113 q 295 35 211 35 z "},"á":{"ha":680,"x_min":75,"x_max":572,"o":"m 317 761 q 457 738 401 761 q 542 662 513 715 q 572 518 572 608 l 572 0 l 530 0 l 526 89 l 520 89 q 422 15 481 42 q 293 -11 362 -11 q 133 41 192 -11 q 75 185 75 92 q 135 332 75 280 q 324 399 195 383 l 524 422 l 524 518 q 501 638 524 594 q 432 698 477 681 q 317 715 388 715 q 219 707 272 715 q 115 680 167 698 l 115 727 q 212 752 158 743 q 317 761 267 761 m 295 35 q 419 64 360 35 q 524 153 479 92 l 524 376 l 323 353 q 173 301 219 341 q 126 190 126 262 q 169 74 126 113 q 295 35 211 35 m 315 878 l 459 1122 l 513 1122 l 359 878 l 315 878 z "},"ă":{"ha":680,"x_min":75,"x_max":572,"o":"m 317 761 q 457 738 401 761 q 542 662 513 715 q 572 518 572 608 l 572 0 l 530 0 l 526 89 l 520 89 q 422 15 481 42 q 293 -11 362 -11 q 133 41 192 -11 q 75 185 75 92 q 135 332 75 280 q 324 399 195 383 l 524 422 l 524 518 q 501 638 524 594 q 432 698 477 681 q 317 715 388 715 q 219 707 272 715 q 115 680 167 698 l 115 727 q 212 752 158 743 q 317 761 267 761 m 295 35 q 419 64 360 35 q 524 153 479 92 l 524 376 l 323 353 q 173 301 219 341 q 126 190 126 262 q 169 74 126 113 q 295 35 211 35 m 338 886 q 206 943 254 886 q 155 1103 158 1000 l 195 1103 q 235 970 201 1015 q 338 926 270 926 q 440 970 406 926 q 478 1103 474 1015 l 519 1103 q 468 943 515 999 q 338 886 422 886 z "},"ắ":{"ha":680,"x_min":75,"x_max":572,"o":"m 317 761 q 457 738 401 761 q 542 662 513 715 q 572 518 572 608 l 572 0 l 530 0 l 526 89 l 520 89 q 422 15 481 42 q 293 -11 362 -11 q 133 41 192 -11 q 75 185 75 92 q 135 332 75 280 q 324 399 195 383 l 524 422 l 524 518 q 501 638 524 594 q 432 698 477 681 q 317 715 388 715 q 219 707 272 715 q 115 680 167 698 l 115 727 q 212 752 158 743 q 317 761 267 761 m 295 35 q 419 64 360 35 q 524 153 479 92 l 524 376 l 323 353 q 173 301 219 341 q 126 190 126 262 q 169 74 126 113 q 295 35 211 35 m 315 1108 l 436 1297 l 491 1297 l 359 1108 l 315 1108 m 338 886 q 206 943 254 886 q 155 1103 158 1000 l 195 1103 q 235 970 201 1015 q 338 926 270 926 q 440 970 406 926 q 478 1103 474 1015 l 519 1103 q 468 943 515 999 q 338 886 422 886 z "},"ặ":{"ha":680,"x_min":75,"x_max":572,"o":"m 317 761 q 457 738 401 761 q 542 662 513 715 q 572 518 572 608 l 572 0 l 530 0 l 526 89 l 520 89 q 422 15 481 42 q 293 -11 362 -11 q 133 41 192 -11 q 75 185 75 92 q 135 332 75 280 q 324 399 195 383 l 524 422 l 524 518 q 501 638 524 594 q 432 698 477 681 q 317 715 388 715 q 219 707 272 715 q 115 680 167 698 l 115 727 q 212 752 158 743 q 317 761 267 761 m 295 35 q 419 64 360 35 q 524 153 479 92 l 524 376 l 323 353 q 173 301 219 341 q 126 190 126 262 q 169 74 126 113 q 295 35 211 35 m 347 -215 q 316 -203 328 -215 q 303 -172 303 -192 q 316 -140 303 -153 q 347 -128 328 -128 q 377 -140 365 -128 q 390 -172 390 -153 q 377 -203 390 -192 q 347 -215 365 -215 m 338 886 q 206 943 254 886 q 155 1103 158 1000 l 195 1103 q 235 970 201 1015 q 338 926 270 926 q 440 970 406 926 q 478 1103 474 1015 l 519 1103 q 468 943 515 999 q 338 886 422 886 z "},"ằ":{"ha":680,"x_min":75,"x_max":572,"o":"m 317 761 q 457 738 401 761 q 542 662 513 715 q 572 518 572 608 l 572 0 l 530 0 l 526 89 l 520 89 q 422 15 481 42 q 293 -11 362 -11 q 133 41 192 -11 q 75 185 75 92 q 135 332 75 280 q 324 399 195 383 l 524 422 l 524 518 q 501 638 524 594 q 432 698 477 681 q 317 715 388 715 q 219 707 272 715 q 115 680 167 698 l 115 727 q 212 752 158 743 q 317 761 267 761 m 295 35 q 419 64 360 35 q 524 153 479 92 l 524 376 l 323 353 q 173 301 219 341 q 126 190 126 262 q 169 74 126 113 q 295 35 211 35 m 315 1108 l 183 1297 l 238 1297 l 359 1108 l 315 1108 m 338 886 q 206 943 254 886 q 155 1103 158 1000 l 195 1103 q 235 970 201 1015 q 338 926 270 926 q 440 970 406 926 q 478 1103 474 1015 l 519 1103 q 468 943 515 999 q 338 886 422 886 z "},"ẳ":{"ha":680,"x_min":75,"x_max":572,"o":"m 317 761 q 457 738 401 761 q 542 662 513 715 q 572 518 572 608 l 572 0 l 530 0 l 526 89 l 520 89 q 422 15 481 42 q 293 -11 362 -11 q 133 41 192 -11 q 75 185 75 92 q 135 332 75 280 q 324 399 195 383 l 524 422 l 524 518 q 501 638 524 594 q 432 698 477 681 q 317 715 388 715 q 219 707 272 715 q 115 680 167 698 l 115 727 q 212 752 158 743 q 317 761 267 761 m 295 35 q 419 64 360 35 q 524 153 479 92 l 524 376 l 323 353 q 173 301 219 341 q 126 190 126 262 q 169 74 126 113 q 295 35 211 35 m 315 1108 q 325 1142 315 1128 q 349 1163 335 1155 q 383 1179 362 1170 q 420 1199 408 1190 q 431 1223 431 1208 q 413 1250 431 1241 q 347 1260 394 1260 q 278 1253 310 1260 q 210 1234 246 1247 l 210 1272 q 347 1297 268 1297 q 441 1277 410 1297 q 472 1224 472 1257 q 457 1183 472 1197 q 410 1156 441 1169 q 373 1135 385 1144 q 358 1108 360 1126 l 315 1108 m 338 886 q 206 943 254 886 q 155 1103 158 1000 l 195 1103 q 235 970 201 1015 q 338 926 270 926 q 440 970 406 926 q 478 1103 474 1015 l 519 1103 q 468 943 515 999 q 338 886 422 886 z "},"ẵ":{"ha":680,"x_min":75,"x_max":572,"o":"m 317 761 q 457 738 401 761 q 542 662 513 715 q 572 518 572 608 l 572 0 l 530 0 l 526 89 l 520 89 q 422 15 481 42 q 293 -11 362 -11 q 133 41 192 -11 q 75 185 75 92 q 135 332 75 280 q 324 399 195 383 l 524 422 l 524 518 q 501 638 524 594 q 432 698 477 681 q 317 715 388 715 q 219 707 272 715 q 115 680 167 698 l 115 727 q 212 752 158 743 q 317 761 267 761 m 295 35 q 419 64 360 35 q 524 153 479 92 l 524 376 l 323 353 q 173 301 219 341 q 126 190 126 262 q 169 74 126 113 q 295 35 211 35 m 430 1164 q 382 1171 405 1164 q 326 1192 358 1178 q 280 1211 299 1205 q 244 1217 262 1217 q 188 1205 213 1217 q 140 1167 163 1192 l 140 1214 q 244 1256 178 1256 q 292 1249 269 1256 q 347 1228 315 1242 q 393 1209 375 1215 q 430 1203 412 1203 q 486 1216 461 1203 q 533 1253 510 1228 l 533 1206 q 430 1164 495 1164 m 338 886 q 206 943 254 886 q 155 1103 158 1000 l 195 1103 q 235 970 201 1015 q 338 926 270 926 q 440 970 406 926 q 478 1103 474 1015 l 519 1103 q 468 943 515 999 q 338 886 422 886 z "},"â":{"ha":680,"x_min":75,"x_max":572,"o":"m 317 761 q 457 738 401 761 q 542 662 513 715 q 572 518 572 608 l 572 0 l 530 0 l 526 89 l 520 89 q 422 15 481 42 q 293 -11 362 -11 q 133 41 192 -11 q 75 185 75 92 q 135 332 75 280 q 324 399 195 383 l 524 422 l 524 518 q 501 638 524 594 q 432 698 477 681 q 317 715 388 715 q 219 707 272 715 q 115 680 167 698 l 115 727 q 212 752 158 743 q 317 761 267 761 m 295 35 q 419 64 360 35 q 524 153 479 92 l 524 376 l 323 353 q 173 301 219 341 q 126 190 126 262 q 169 74 126 113 q 295 35 211 35 m 515 878 l 465 878 l 337 1090 l 208 878 l 159 878 l 310 1122 l 363 1122 l 515 878 z "},"ấ":{"ha":680,"x_min":75,"x_max":653,"o":"m 317 761 q 457 738 401 761 q 542 662 513 715 q 572 518 572 608 l 572 0 l 530 0 l 526 89 l 520 89 q 422 15 481 42 q 293 -11 362 -11 q 133 41 192 -11 q 75 185 75 92 q 135 332 75 280 q 324 399 195 383 l 524 422 l 524 518 q 501 638 524 594 q 432 698 477 681 q 317 715 388 715 q 219 707 272 715 q 115 680 167 698 l 115 727 q 212 752 158 743 q 317 761 267 761 m 295 35 q 419 64 360 35 q 524 153 479 92 l 524 376 l 323 353 q 173 301 219 341 q 126 190 126 262 q 169 74 126 113 q 295 35 211 35 m 598 1297 l 653 1297 l 521 1108 l 476 1108 l 598 1297 m 310 1122 l 363 1122 l 515 878 l 465 878 l 337 1090 l 208 878 l 159 878 l 310 1122 z "},"ậ":{"ha":680,"x_min":75,"x_max":572,"o":"m 317 761 q 457 738 401 761 q 542 662 513 715 q 572 518 572 608 l 572 0 l 530 0 l 526 89 l 520 89 q 422 15 481 42 q 293 -11 362 -11 q 133 41 192 -11 q 75 185 75 92 q 135 332 75 280 q 324 399 195 383 l 524 422 l 524 518 q 501 638 524 594 q 432 698 477 681 q 317 715 388 715 q 219 707 272 715 q 115 680 167 698 l 115 727 q 212 752 158 743 q 317 761 267 761 m 295 35 q 419 64 360 35 q 524 153 479 92 l 524 376 l 323 353 q 173 301 219 341 q 126 190 126 262 q 169 74 126 113 q 295 35 211 35 m 347 -215 q 316 -203 328 -215 q 303 -172 303 -192 q 316 -140 303 -153 q 347 -128 328 -128 q 377 -140 365 -128 q 390 -172 390 -153 q 377 -203 390 -192 q 347 -215 365 -215 m 515 878 l 465 878 l 337 1090 l 208 878 l 159 878 l 310 1122 l 363 1122 l 515 878 z "},"ầ":{"ha":680,"x_min":75,"x_max":572,"o":"m 317 761 q 457 738 401 761 q 542 662 513 715 q 572 518 572 608 l 572 0 l 530 0 l 526 89 l 520 89 q 422 15 481 42 q 293 -11 362 -11 q 133 41 192 -11 q 75 185 75 92 q 135 332 75 280 q 324 399 195 383 l 524 422 l 524 518 q 501 638 524 594 q 432 698 477 681 q 317 715 388 715 q 219 707 272 715 q 115 680 167 698 l 115 727 q 212 752 158 743 q 317 761 267 761 m 295 35 q 419 64 360 35 q 524 153 479 92 l 524 376 l 323 353 q 173 301 219 341 q 126 190 126 262 q 169 74 126 113 q 295 35 211 35 m 530 1108 l 485 1108 l 353 1297 l 408 1297 l 530 1108 m 310 1122 l 363 1122 l 515 878 l 465 878 l 337 1090 l 208 878 l 159 878 l 310 1122 z "},"ẩ":{"ha":680,"x_min":75,"x_max":628,"o":"m 317 761 q 457 738 401 761 q 542 662 513 715 q 572 518 572 608 l 572 0 l 530 0 l 526 89 l 520 89 q 422 15 481 42 q 293 -11 362 -11 q 133 41 192 -11 q 75 185 75 92 q 135 332 75 280 q 324 399 195 383 l 524 422 l 524 518 q 501 638 524 594 q 432 698 477 681 q 317 715 388 715 q 219 707 272 715 q 115 680 167 698 l 115 727 q 212 752 158 743 q 317 761 267 761 m 295 35 q 419 64 360 35 q 524 153 479 92 l 524 376 l 323 353 q 173 301 219 341 q 126 190 126 262 q 169 74 126 113 q 295 35 211 35 m 503 1297 q 597 1277 566 1297 q 628 1224 628 1257 q 613 1183 628 1197 q 567 1156 597 1169 q 529 1135 542 1144 q 515 1108 517 1126 l 471 1108 q 482 1142 472 1128 q 505 1163 492 1155 q 540 1179 518 1170 q 576 1199 565 1190 q 588 1223 588 1208 q 569 1250 588 1241 q 503 1260 551 1260 q 434 1253 467 1260 q 367 1234 402 1247 l 367 1272 q 503 1297 424 1297 m 310 1122 l 363 1122 l 515 878 l 465 878 l 337 1090 l 208 878 l 159 878 l 310 1122 z "},"ẫ":{"ha":680,"x_min":75,"x_max":572,"o":"m 317 761 q 457 738 401 761 q 542 662 513 715 q 572 518 572 608 l 572 0 l 530 0 l 526 89 l 520 89 q 422 15 481 42 q 293 -11 362 -11 q 133 41 192 -11 q 75 185 75 92 q 135 332 75 280 q 324 399 195 383 l 524 422 l 524 518 q 501 638 524 594 q 432 698 477 681 q 317 715 388 715 q 219 707 272 715 q 115 680 167 698 l 115 727 q 212 752 158 743 q 317 761 267 761 m 295 35 q 419 64 360 35 q 524 153 479 92 l 524 376 l 323 353 q 173 301 219 341 q 126 190 126 262 q 169 74 126 113 q 295 35 211 35 m 430 1203 q 486 1216 461 1203 q 533 1253 510 1228 l 533 1206 q 430 1164 495 1164 q 382 1171 405 1164 q 326 1192 358 1178 q 280 1211 299 1205 q 244 1217 262 1217 q 188 1205 213 1217 q 140 1167 163 1192 l 140 1214 q 244 1256 178 1256 q 292 1249 269 1256 q 347 1228 315 1242 q 393 1209 375 1215 q 430 1203 412 1203 m 310 1122 l 363 1122 l 515 878 l 465 878 l 337 1090 l 208 878 l 159 878 l 310 1122 z "},"ȁ":{"ha":680,"x_min":75,"x_max":572,"o":"m 317 761 q 457 738 401 761 q 542 662 513 715 q 572 518 572 608 l 572 0 l 530 0 l 526 89 l 520 89 q 422 15 481 42 q 293 -11 362 -11 q 133 41 192 -11 q 75 185 75 92 q 135 332 75 280 q 324 399 195 383 l 524 422 l 524 518 q 501 638 524 594 q 432 698 477 681 q 317 715 388 715 q 219 707 272 715 q 115 680 167 698 l 115 727 q 212 752 158 743 q 317 761 267 761 m 295 35 q 419 64 360 35 q 524 153 479 92 l 524 376 l 323 353 q 173 301 219 341 q 126 190 126 262 q 169 74 126 113 q 295 35 211 35 m 213 878 l 115 1122 l 163 1122 l 256 878 l 213 878 m 418 878 l 319 1122 l 368 1122 l 460 878 l 418 878 z "},"ä":{"ha":680,"x_min":75,"x_max":572,"o":"m 317 761 q 457 738 401 761 q 542 662 513 715 q 572 518 572 608 l 572 0 l 530 0 l 526 89 l 520 89 q 422 15 481 42 q 293 -11 362 -11 q 133 41 192 -11 q 75 185 75 92 q 135 332 75 280 q 324 399 195 383 l 524 422 l 524 518 q 501 638 524 594 q 432 698 477 681 q 317 715 388 715 q 219 707 272 715 q 115 680 167 698 l 115 727 q 212 752 158 743 q 317 761 267 761 m 295 35 q 419 64 360 35 q 524 153 479 92 l 524 376 l 323 353 q 173 301 219 341 q 126 190 126 262 q 169 74 126 113 q 295 35 211 35 m 198 944 q 167 956 179 944 q 155 988 155 968 q 167 1019 155 1007 q 198 1032 179 1032 q 229 1019 217 1032 q 241 988 241 1007 q 229 956 241 968 q 198 944 217 944 m 476 944 q 445 956 457 944 q 433 988 433 968 q 445 1019 433 1007 q 476 1032 457 1032 q 507 1019 494 1032 q 519 988 519 1007 q 507 956 519 968 q 476 944 494 944 z "},"ạ":{"ha":680,"x_min":75,"x_max":572,"o":"m 317 761 q 457 738 401 761 q 542 662 513 715 q 572 518 572 608 l 572 0 l 530 0 l 526 89 l 520 89 q 422 15 481 42 q 293 -11 362 -11 q 133 41 192 -11 q 75 185 75 92 q 135 332 75 280 q 324 399 195 383 l 524 422 l 524 518 q 501 638 524 594 q 432 698 477 681 q 317 715 388 715 q 219 707 272 715 q 115 680 167 698 l 115 727 q 212 752 158 743 q 317 761 267 761 m 295 35 q 419 64 360 35 q 524 153 479 92 l 524 376 l 323 353 q 173 301 219 341 q 126 190 126 262 q 169 74 126 113 q 295 35 211 35 m 347 -215 q 316 -203 328 -215 q 303 -172 303 -192 q 316 -140 303 -153 q 347 -128 328 -128 q 377 -140 365 -128 q 390 -172 390 -153 q 377 -203 390 -192 q 347 -215 365 -215 z "},"à":{"ha":680,"x_min":75,"x_max":572,"o":"m 317 761 q 457 738 401 761 q 542 662 513 715 q 572 518 572 608 l 572 0 l 530 0 l 526 89 l 520 89 q 422 15 481 42 q 293 -11 362 -11 q 133 41 192 -11 q 75 185 75 92 q 135 332 75 280 q 324 399 195 383 l 524 422 l 524 518 q 501 638 524 594 q 432 698 477 681 q 317 715 388 715 q 219 707 272 715 q 115 680 167 698 l 115 727 q 212 752 158 743 q 317 761 267 761 m 295 35 q 419 64 360 35 q 524 153 479 92 l 524 376 l 323 353 q 173 301 219 341 q 126 190 126 262 q 169 74 126 113 q 295 35 211 35 m 315 878 l 160 1122 l 215 1122 l 359 878 l 315 878 z "},"ả":{"ha":680,"x_min":75,"x_max":572,"o":"m 317 761 q 457 738 401 761 q 542 662 513 715 q 572 518 572 608 l 572 0 l 530 0 l 526 89 l 520 89 q 422 15 481 42 q 293 -11 362 -11 q 133 41 192 -11 q 75 185 75 92 q 135 332 75 280 q 324 399 195 383 l 524 422 l 524 518 q 501 638 524 594 q 432 698 477 681 q 317 715 388 715 q 219 707 272 715 q 115 680 167 698 l 115 727 q 212 752 158 743 q 317 761 267 761 m 295 35 q 419 64 360 35 q 524 153 479 92 l 524 376 l 323 353 q 173 301 219 341 q 126 190 126 262 q 169 74 126 113 q 295 35 211 35 m 315 878 q 325 923 316 904 q 348 953 335 942 q 382 980 361 965 q 416 1008 406 997 q 427 1038 427 1020 q 406 1078 427 1065 q 338 1092 385 1092 q 283 1088 312 1092 q 232 1075 254 1083 l 232 1114 q 281 1126 253 1122 q 335 1131 308 1131 q 435 1107 403 1131 q 468 1039 468 1083 q 460 1002 468 1017 q 442 977 453 987 q 412 954 431 967 q 372 920 385 935 q 358 878 359 904 l 315 878 z "},"ȃ":{"ha":680,"x_min":75,"x_max":572,"o":"m 317 761 q 457 738 401 761 q 542 662 513 715 q 572 518 572 608 l 572 0 l 530 0 l 526 89 l 520 89 q 422 15 481 42 q 293 -11 362 -11 q 133 41 192 -11 q 75 185 75 92 q 135 332 75 280 q 324 399 195 383 l 524 422 l 524 518 q 501 638 524 594 q 432 698 477 681 q 317 715 388 715 q 219 707 272 715 q 115 680 167 698 l 115 727 q 212 752 158 743 q 317 761 267 761 m 295 35 q 419 64 360 35 q 524 153 479 92 l 524 376 l 323 353 q 173 301 219 341 q 126 190 126 262 q 169 74 126 113 q 295 35 211 35 m 155 897 q 205 1058 158 1002 q 335 1114 251 1114 q 467 1057 419 1114 q 519 897 515 1001 l 478 897 q 438 1029 473 985 q 335 1073 403 1073 q 234 1029 268 1073 q 195 897 199 985 l 155 897 z "},"ā":{"ha":680,"x_min":75,"x_max":572,"o":"m 317 761 q 457 738 401 761 q 542 662 513 715 q 572 518 572 608 l 572 0 l 530 0 l 526 89 l 520 89 q 422 15 481 42 q 293 -11 362 -11 q 133 41 192 -11 q 75 185 75 92 q 135 332 75 280 q 324 399 195 383 l 524 422 l 524 518 q 501 638 524 594 q 432 698 477 681 q 317 715 388 715 q 219 707 272 715 q 115 680 167 698 l 115 727 q 212 752 158 743 q 317 761 267 761 m 295 35 q 419 64 360 35 q 524 153 479 92 l 524 376 l 323 353 q 173 301 219 341 q 126 190 126 262 q 169 74 126 113 q 295 35 211 35 m 140 968 l 140 1009 l 533 1009 l 533 968 l 140 968 z "},"ą":{"ha":680,"x_min":75,"x_max":647,"o":"m 540 -242 q 647 -210 594 -242 l 647 -249 q 596 -270 624 -262 q 542 -278 568 -278 q 446 -247 481 -278 q 411 -160 411 -215 q 440 -67 411 -110 q 529 17 468 -24 l 526 89 l 520 89 q 422 15 481 42 q 293 -11 362 -11 q 133 41 192 -11 q 75 185 75 92 q 135 332 75 280 q 324 399 195 383 l 524 422 l 524 518 q 501 638 524 594 q 432 698 477 681 q 317 715 388 715 q 219 707 272 715 q 115 680 167 698 l 115 727 q 212 752 158 743 q 317 761 267 761 q 457 738 401 761 q 542 662 513 715 q 572 518 572 608 l 572 0 q 478 -77 507 -40 q 450 -158 450 -115 q 474 -220 450 -198 q 540 -242 498 -242 m 295 35 q 419 64 360 35 q 524 153 479 92 l 524 376 l 323 353 q 173 301 219 341 q 126 190 126 262 q 169 74 126 113 q 295 35 211 35 z "},"å":{"ha":680,"x_min":75,"x_max":572,"o":"m 317 761 q 457 738 401 761 q 542 662 513 715 q 572 518 572 608 l 572 0 l 530 0 l 526 89 l 520 89 q 422 15 481 42 q 293 -11 362 -11 q 133 41 192 -11 q 75 185 75 92 q 135 332 75 280 q 324 399 195 383 l 524 422 l 524 518 q 501 638 524 594 q 432 698 477 681 q 317 715 388 715 q 219 707 272 715 q 115 680 167 698 l 115 727 q 212 752 158 743 q 317 761 267 761 m 295 35 q 419 64 360 35 q 524 153 479 92 l 524 376 l 323 353 q 173 301 219 341 q 126 190 126 262 q 169 74 126 113 q 295 35 211 35 m 337 875 q 272 892 301 875 q 226 938 242 908 q 209 1003 209 967 q 226 1068 209 1039 q 272 1114 242 1097 q 337 1131 301 1131 q 402 1114 373 1131 q 448 1068 431 1097 q 465 1003 465 1039 q 448 938 465 967 q 402 892 431 908 q 337 875 373 875 m 337 911 q 402 936 377 911 q 427 1003 427 960 q 402 1070 427 1045 q 337 1094 377 1094 q 272 1070 297 1094 q 247 1003 247 1045 q 272 936 247 960 q 337 911 297 911 z "},"ǻ":{"ha":680,"x_min":75,"x_max":572,"o":"m 317 761 q 457 738 401 761 q 542 662 513 715 q 572 518 572 608 l 572 0 l 530 0 l 526 89 l 520 89 q 422 15 481 42 q 293 -11 362 -11 q 133 41 192 -11 q 75 185 75 92 q 135 332 75 280 q 324 399 195 383 l 524 422 l 524 518 q 501 638 524 594 q 432 698 477 681 q 317 715 388 715 q 219 707 272 715 q 115 680 167 698 l 115 727 q 212 752 158 743 q 317 761 267 761 m 295 35 q 419 64 360 35 q 524 153 479 92 l 524 376 l 323 353 q 173 301 219 341 q 126 190 126 262 q 169 74 126 113 q 295 35 211 35 m 432 1090 q 465 1003 465 1056 q 448 938 465 967 q 402 892 431 908 q 337 875 373 875 q 272 892 301 875 q 226 938 242 908 q 209 1003 209 967 q 226 1068 209 1039 q 272 1114 242 1097 q 337 1131 301 1131 q 404 1113 374 1131 l 507 1236 l 561 1236 l 432 1090 m 337 911 q 402 936 377 911 q 427 1003 427 960 q 402 1070 427 1045 q 337 1094 377 1094 q 272 1070 297 1094 q 247 1003 247 1045 q 272 936 247 960 q 337 911 297 911 z "},"ã":{"ha":680,"x_min":75,"x_max":572,"o":"m 317 761 q 457 738 401 761 q 542 662 513 715 q 572 518 572 608 l 572 0 l 530 0 l 526 89 l 520 89 q 422 15 481 42 q 293 -11 362 -11 q 133 41 192 -11 q 75 185 75 92 q 135 332 75 280 q 324 399 195 383 l 524 422 l 524 518 q 501 638 524 594 q 432 698 477 681 q 317 715 388 715 q 219 707 272 715 q 115 680 167 698 l 115 727 q 212 752 158 743 q 317 761 267 761 m 295 35 q 419 64 360 35 q 524 153 479 92 l 524 376 l 323 353 q 173 301 219 341 q 126 190 126 262 q 169 74 126 113 q 295 35 211 35 m 430 958 q 382 966 405 958 q 326 987 358 973 q 280 1005 299 999 q 244 1011 262 1011 q 188 999 213 1011 q 140 962 163 987 l 140 1008 q 244 1051 178 1051 q 292 1043 269 1051 q 347 1022 315 1036 q 393 1004 375 1010 q 430 998 412 998 q 486 1010 461 998 q 533 1047 510 1022 l 533 1001 q 430 958 495 958 z "},"æ":{"ha":1124,"x_min":75,"x_max":1061,"o":"m 1061 354 l 572 354 q 643 109 575 184 q 844 33 712 33 q 1026 67 922 33 l 1026 20 q 841 -12 931 -12 q 674 24 742 -12 q 569 137 606 60 q 440 22 509 56 q 294 -11 372 -11 q 179 12 228 -11 q 102 79 129 35 q 75 185 75 123 q 140 342 75 285 q 347 400 206 400 l 524 400 l 524 520 q 501 639 524 596 q 432 698 477 681 q 317 715 388 715 q 219 707 272 715 q 115 680 167 698 l 115 727 q 212 752 158 743 q 317 761 267 761 q 483 724 422 761 q 560 599 543 686 q 794 762 621 762 q 1061 376 1061 762 l 1061 354 m 794 716 q 632 642 690 716 q 572 400 574 567 l 1012 400 q 953 643 1008 569 q 794 716 898 716 m 297 35 q 435 71 369 35 q 549 188 501 107 q 524 354 526 258 l 344 354 q 178 310 229 354 q 126 189 126 266 q 170 74 126 113 q 297 35 213 35 z "},"ǽ":{"ha":1124,"x_min":75,"x_max":1061,"o":"m 1061 354 l 572 354 q 643 109 575 184 q 844 33 712 33 q 1026 67 922 33 l 1026 20 q 841 -12 931 -12 q 674 24 742 -12 q 569 137 606 60 q 440 22 509 56 q 294 -11 372 -11 q 179 12 228 -11 q 102 79 129 35 q 75 185 75 123 q 140 342 75 285 q 347 400 206 400 l 524 400 l 524 520 q 501 639 524 596 q 432 698 477 681 q 317 715 388 715 q 219 707 272 715 q 115 680 167 698 l 115 727 q 212 752 158 743 q 317 761 267 761 q 483 724 422 761 q 560 599 543 686 q 794 762 621 762 q 1061 376 1061 762 l 1061 354 m 794 716 q 632 642 690 716 q 572 400 574 567 l 1012 400 q 953 643 1008 569 q 794 716 898 716 m 297 35 q 435 71 369 35 q 549 188 501 107 q 524 354 526 258 l 344 354 q 178 310 229 354 q 126 189 126 266 q 170 74 126 113 q 297 35 213 35 m 526 878 l 670 1122 l 724 1122 l 570 878 l 526 878 z "},"b":{"ha":744,"x_min":118,"x_max":669,"o":"m 315 -12 q 214 -5 265 -12 q 118 17 163 3 l 118 1122 l 165 1122 l 165 670 l 169 670 q 262 736 207 711 q 385 761 317 761 q 591 673 513 761 q 669 389 669 585 q 315 -12 669 -12 m 318 33 q 543 117 468 33 q 619 383 619 201 q 556 640 619 565 q 382 715 492 715 q 260 687 317 715 q 165 603 203 659 l 165 54 q 236 39 196 45 q 318 33 276 33 z "},"c":{"ha":574,"x_min":75,"x_max":551,"o":"m 374 -12 q 151 80 226 -12 q 75 375 75 173 q 158 669 75 578 q 405 761 240 761 q 551 741 484 761 l 551 694 q 406 715 477 715 q 248 683 310 715 q 156 576 187 650 q 125 378 125 501 q 153 176 125 252 q 238 67 182 101 q 378 33 293 33 q 551 67 456 33 l 551 20 q 374 -12 462 -12 z "},"ć":{"ha":574,"x_min":75,"x_max":551,"o":"m 374 -12 q 151 80 226 -12 q 75 375 75 173 q 158 669 75 578 q 405 761 240 761 q 551 741 484 761 l 551 694 q 406 715 477 715 q 248 683 310 715 q 156 576 187 650 q 125 378 125 501 q 153 176 125 252 q 238 67 182 101 q 378 33 293 33 q 551 67 456 33 l 551 20 q 374 -12 462 -12 m 325 878 l 469 1122 l 524 1122 l 369 878 l 325 878 z "},"č":{"ha":574,"x_min":75,"x_max":551,"o":"m 374 -12 q 151 80 226 -12 q 75 375 75 173 q 158 669 75 578 q 405 761 240 761 q 551 741 484 761 l 551 694 q 406 715 477 715 q 248 683 310 715 q 156 576 187 650 q 125 378 125 501 q 153 176 125 252 q 238 67 182 101 q 378 33 293 33 q 551 67 456 33 l 551 20 q 374 -12 462 -12 m 478 1122 l 528 1122 l 374 878 l 321 878 l 167 1122 l 216 1122 l 347 909 l 478 1122 z "},"ç":{"ha":574,"x_min":75,"x_max":551,"o":"m 406 715 q 248 683 310 715 q 156 576 187 650 q 125 378 125 501 q 153 176 125 252 q 238 67 182 101 q 378 33 293 33 q 551 67 456 33 l 551 20 q 374 -12 462 -12 l 366 -12 l 366 -79 q 444 -108 417 -83 q 471 -178 471 -134 q 439 -251 471 -225 q 349 -278 406 -278 q 288 -271 319 -278 q 235 -252 257 -264 l 235 -213 q 351 -242 290 -242 q 433 -178 433 -242 q 349 -114 433 -114 l 327 -114 l 327 -10 q 139 97 203 3 q 75 375 75 190 q 158 669 75 578 q 405 761 240 761 q 551 741 484 761 l 551 694 q 406 715 477 715 z "},"ḉ":{"ha":574,"x_min":75,"x_max":551,"o":"m 524 1122 l 369 878 l 325 878 l 469 1122 l 524 1122 m 406 715 q 248 683 310 715 q 156 576 187 650 q 125 378 125 501 q 153 176 125 252 q 238 67 182 101 q 378 33 293 33 q 551 67 456 33 l 551 20 q 374 -12 462 -12 l 366 -12 l 366 -79 q 444 -108 417 -83 q 471 -178 471 -134 q 439 -251 471 -225 q 349 -278 406 -278 q 288 -271 319 -278 q 235 -252 257 -264 l 235 -213 q 351 -242 290 -242 q 433 -178 433 -242 q 349 -114 433 -114 l 327 -114 l 327 -10 q 139 97 203 3 q 75 375 75 190 q 158 669 75 578 q 405 761 240 761 q 551 741 484 761 l 551 694 q 406 715 477 715 z "},"ĉ":{"ha":574,"x_min":75,"x_max":551,"o":"m 374 -12 q 151 80 226 -12 q 75 375 75 173 q 158 669 75 578 q 405 761 240 761 q 551 741 484 761 l 551 694 q 406 715 477 715 q 248 683 310 715 q 156 576 187 650 q 125 378 125 501 q 153 176 125 252 q 238 67 182 101 q 378 33 293 33 q 551 67 456 33 l 551 20 q 374 -12 462 -12 m 525 878 l 476 878 l 347 1090 l 219 878 l 169 878 l 321 1122 l 374 1122 l 525 878 z "},"ċ":{"ha":574,"x_min":75,"x_max":551,"o":"m 374 -12 q 151 80 226 -12 q 75 375 75 173 q 158 669 75 578 q 405 761 240 761 q 551 741 484 761 l 551 694 q 406 715 477 715 q 248 683 310 715 q 156 576 187 650 q 125 378 125 501 q 153 176 125 252 q 238 67 182 101 q 378 33 293 33 q 551 67 456 33 l 551 20 q 374 -12 462 -12 m 347 944 q 316 956 328 944 q 304 988 304 968 q 316 1019 304 1007 q 347 1032 328 1032 q 378 1019 366 1032 q 390 988 390 1007 q 378 956 390 968 q 347 944 366 944 z "},"d":{"ha":744,"x_min":75,"x_max":626,"o":"m 363 -12 q 153 76 231 -12 q 75 360 75 165 q 166 663 75 564 q 435 761 257 761 q 578 749 503 761 l 578 1122 l 626 1122 l 626 0 l 584 0 l 580 83 l 574 83 q 483 13 538 39 q 363 -12 428 -12 m 365 33 q 485 63 428 33 q 578 151 542 92 l 578 699 q 510 711 549 707 q 433 715 471 715 q 201 632 278 715 q 125 365 125 548 q 188 109 125 184 q 365 33 251 33 z "},"ð":{"ha":735,"x_min":75,"x_max":658,"o":"m 492 922 q 614 668 569 806 q 658 396 658 531 q 582 88 658 189 q 369 -12 505 -12 q 152 81 230 -12 q 75 375 75 174 q 152 667 75 574 q 367 761 230 761 q 475 742 427 761 q 561 680 524 724 q 444 914 517 810 l 149 867 l 142 907 l 416 951 q 239 1122 340 1047 l 305 1122 q 465 959 392 1059 l 638 987 l 644 947 l 492 922 m 369 33 q 546 116 483 33 q 610 373 610 198 q 547 636 610 557 q 367 715 485 715 q 188 637 250 715 q 125 377 125 558 q 188 113 125 192 q 369 33 251 33 z "},"ď":{"ha":744,"x_min":75,"x_max":753,"o":"m 363 -12 q 153 76 231 -12 q 75 360 75 165 q 166 663 75 564 q 435 761 257 761 q 578 749 503 761 l 578 1122 l 626 1122 l 626 0 l 584 0 l 580 83 l 574 83 q 483 13 538 39 q 363 -12 428 -12 m 365 33 q 485 63 428 33 q 578 151 542 92 l 578 699 q 510 711 549 707 q 433 715 471 715 q 201 632 278 715 q 125 365 125 548 q 188 109 125 184 q 365 33 251 33 m 697 819 q 709 1122 709 929 l 753 1122 q 728 819 753 947 l 697 819 z "},"đ":{"ha":744,"x_min":75,"x_max":736,"o":"m 736 921 l 626 921 l 626 0 l 584 0 l 580 83 l 574 83 q 483 13 538 39 q 363 -12 428 -12 q 153 76 231 -12 q 75 360 75 165 q 166 663 75 564 q 435 761 257 761 q 578 749 503 761 l 578 921 l 326 921 l 326 963 l 578 963 l 578 1122 l 626 1122 l 626 963 l 736 963 l 736 921 m 578 699 q 510 711 549 707 q 433 715 471 715 q 201 632 278 715 q 125 365 125 548 q 188 109 125 184 q 365 33 251 33 q 485 63 428 33 q 578 151 542 92 l 578 699 z "},"ḍ":{"ha":744,"x_min":75,"x_max":626,"o":"m 363 -12 q 153 76 231 -12 q 75 360 75 165 q 166 663 75 564 q 435 761 257 761 q 578 749 503 761 l 578 1122 l 626 1122 l 626 0 l 584 0 l 580 83 l 574 83 q 483 13 538 39 q 363 -12 428 -12 m 365 33 q 485 63 428 33 q 578 151 542 92 l 578 699 q 510 711 549 707 q 433 715 471 715 q 201 632 278 715 q 125 365 125 548 q 188 109 125 184 q 365 33 251 33 m 370 -215 q 339 -203 351 -215 q 327 -172 327 -192 q 339 -140 327 -153 q 370 -128 351 -128 q 401 -140 389 -128 q 413 -172 413 -153 q 401 -203 413 -192 q 370 -215 389 -215 z "},"ḏ":{"ha":744,"x_min":75,"x_max":626,"o":"m 363 -12 q 153 76 231 -12 q 75 360 75 165 q 166 663 75 564 q 435 761 257 761 q 578 749 503 761 l 578 1122 l 626 1122 l 626 0 l 584 0 l 580 83 l 574 83 q 483 13 538 39 q 363 -12 428 -12 m 365 33 q 485 63 428 33 q 578 151 542 92 l 578 699 q 510 711 549 707 q 433 715 471 715 q 201 632 278 715 q 125 365 125 548 q 188 109 125 184 q 365 33 251 33 m 197 -193 l 197 -152 l 544 -152 l 544 -193 l 197 -193 z "},"ǳ":{"ha":1344,"x_min":75,"x_max":1305,"o":"m 363 -12 q 153 76 231 -12 q 75 360 75 165 q 166 663 75 564 q 435 761 257 761 q 578 749 503 761 l 578 1122 l 626 1122 l 626 0 l 584 0 l 580 83 l 574 83 q 483 13 538 39 q 363 -12 428 -12 m 365 33 q 485 63 428 33 q 578 151 542 92 l 578 699 q 510 711 549 707 q 433 715 471 715 q 201 632 278 715 q 125 365 125 548 q 188 109 125 184 q 365 33 251 33 m 851 44 l 1305 44 l 1305 0 l 786 0 l 786 28 l 1232 706 l 794 706 l 794 750 l 1297 750 l 1297 722 l 851 44 z "},"ǆ":{"ha":1344,"x_min":75,"x_max":1305,"o":"m 363 -12 q 153 76 231 -12 q 75 360 75 165 q 166 663 75 564 q 435 761 257 761 q 578 749 503 761 l 578 1122 l 626 1122 l 626 0 l 584 0 l 580 83 l 574 83 q 483 13 538 39 q 363 -12 428 -12 m 365 33 q 485 63 428 33 q 578 151 542 92 l 578 699 q 510 711 549 707 q 433 715 471 715 q 201 632 278 715 q 125 365 125 548 q 188 109 125 184 q 365 33 251 33 m 851 44 l 1305 44 l 1305 0 l 786 0 l 786 28 l 1232 706 l 794 706 l 794 750 l 1297 750 l 1297 722 l 851 44 m 1177 1122 l 1226 1122 l 1072 878 l 1019 878 l 865 1122 l 915 1122 l 1046 909 l 1177 1122 z "},"e":{"ha":683,"x_min":75,"x_max":620,"o":"m 620 354 l 125 354 q 198 108 128 183 q 400 33 267 33 q 585 67 479 33 l 585 20 q 397 -12 488 -12 q 157 80 239 -12 q 75 375 75 173 q 149 667 75 572 q 352 761 222 761 q 620 375 620 761 l 620 354 m 352 715 q 187 641 246 715 q 125 400 128 567 l 571 400 q 513 641 568 567 q 352 715 457 715 z "},"é":{"ha":683,"x_min":75,"x_max":620,"o":"m 620 354 l 125 354 q 198 108 128 183 q 400 33 267 33 q 585 67 479 33 l 585 20 q 397 -12 488 -12 q 157 80 239 -12 q 75 375 75 173 q 149 667 75 572 q 352 761 222 761 q 620 375 620 761 l 620 354 m 352 715 q 187 641 246 715 q 125 400 128 567 l 571 400 q 513 641 568 567 q 352 715 457 715 m 331 878 l 475 1122 l 529 1122 l 375 878 l 331 878 z "},"ĕ":{"ha":683,"x_min":75,"x_max":620,"o":"m 620 354 l 125 354 q 198 108 128 183 q 400 33 267 33 q 585 67 479 33 l 585 20 q 397 -12 488 -12 q 157 80 239 -12 q 75 375 75 173 q 149 667 75 572 q 352 761 222 761 q 620 375 620 761 l 620 354 m 352 715 q 187 641 246 715 q 125 400 128 567 l 571 400 q 513 641 568 567 q 352 715 457 715 m 354 886 q 222 943 270 886 q 171 1103 174 1000 l 211 1103 q 251 970 217 1015 q 354 926 286 926 q 456 970 422 926 q 494 1103 490 1015 l 535 1103 q 484 943 531 999 q 354 886 438 886 z "},"ě":{"ha":683,"x_min":75,"x_max":620,"o":"m 620 354 l 125 354 q 198 108 128 183 q 400 33 267 33 q 585 67 479 33 l 585 20 q 397 -12 488 -12 q 157 80 239 -12 q 75 375 75 173 q 149 667 75 572 q 352 761 222 761 q 620 375 620 761 l 620 354 m 352 715 q 187 641 246 715 q 125 400 128 567 l 571 400 q 513 641 568 567 q 352 715 457 715 m 484 1122 l 533 1122 l 379 878 l 326 878 l 172 1122 l 222 1122 l 353 909 l 484 1122 z "},"ḝ":{"ha":683,"x_min":75,"x_max":620,"o":"m 354 886 q 222 943 270 886 q 171 1103 174 1000 l 211 1103 q 251 970 217 1015 q 354 926 286 926 q 456 970 422 926 q 494 1103 490 1015 l 535 1103 q 484 943 531 999 q 354 886 438 886 m 620 354 l 125 354 q 198 108 128 183 q 400 33 267 33 q 585 67 479 33 l 585 20 q 397 -12 488 -12 q 374 -12 381 -12 l 374 -79 q 451 -108 424 -83 q 478 -178 478 -134 q 446 -251 478 -225 q 356 -278 414 -278 q 295 -271 326 -278 q 243 -252 265 -264 l 243 -213 q 358 -242 297 -242 q 440 -178 440 -242 q 357 -114 440 -114 l 335 -114 l 335 -8 q 141 101 207 8 q 75 375 75 194 q 149 667 75 572 q 352 761 222 761 q 620 375 620 761 l 620 354 m 352 715 q 187 641 246 715 q 125 400 128 567 l 571 400 q 513 641 568 567 q 352 715 457 715 z "},"ê":{"ha":683,"x_min":75,"x_max":620,"o":"m 620 354 l 125 354 q 198 108 128 183 q 400 33 267 33 q 585 67 479 33 l 585 20 q 397 -12 488 -12 q 157 80 239 -12 q 75 375 75 173 q 149 667 75 572 q 352 761 222 761 q 620 375 620 761 l 620 354 m 352 715 q 187 641 246 715 q 125 400 128 567 l 571 400 q 513 641 568 567 q 352 715 457 715 m 531 878 l 481 878 l 353 1090 l 224 878 l 175 878 l 326 1122 l 379 1122 l 531 878 z "},"ế":{"ha":683,"x_min":75,"x_max":669,"o":"m 620 354 l 125 354 q 198 108 128 183 q 400 33 267 33 q 585 67 479 33 l 585 20 q 397 -12 488 -12 q 157 80 239 -12 q 75 375 75 173 q 149 667 75 572 q 352 761 222 761 q 620 375 620 761 l 620 354 m 352 715 q 187 641 246 715 q 125 400 128 567 l 571 400 q 513 641 568 567 q 352 715 457 715 m 614 1297 l 669 1297 l 537 1108 l 492 1108 l 614 1297 m 326 1122 l 379 1122 l 531 878 l 481 878 l 353 1090 l 224 878 l 175 878 l 326 1122 z "},"ệ":{"ha":683,"x_min":75,"x_max":620,"o":"m 620 354 l 125 354 q 198 108 128 183 q 400 33 267 33 q 585 67 479 33 l 585 20 q 397 -12 488 -12 q 157 80 239 -12 q 75 375 75 173 q 149 667 75 572 q 352 761 222 761 q 620 375 620 761 l 620 354 m 352 715 q 187 641 246 715 q 125 400 128 567 l 571 400 q 513 641 568 567 q 352 715 457 715 m 353 -215 q 322 -203 334 -215 q 310 -172 310 -192 q 322 -140 310 -153 q 353 -128 334 -128 q 384 -140 372 -128 q 396 -172 396 -153 q 384 -203 396 -192 q 353 -215 372 -215 m 531 878 l 481 878 l 353 1090 l 224 878 l 175 878 l 326 1122 l 379 1122 l 531 878 z "},"ề":{"ha":683,"x_min":75,"x_max":620,"o":"m 620 354 l 125 354 q 198 108 128 183 q 400 33 267 33 q 585 67 479 33 l 585 20 q 397 -12 488 -12 q 157 80 239 -12 q 75 375 75 173 q 149 667 75 572 q 352 761 222 761 q 620 375 620 761 l 620 354 m 352 715 q 187 641 246 715 q 125 400 128 567 l 571 400 q 513 641 568 567 q 352 715 457 715 m 546 1108 l 501 1108 l 369 1297 l 424 1297 l 546 1108 m 326 1122 l 379 1122 l 531 878 l 481 878 l 353 1090 l 224 878 l 175 878 l 326 1122 z "},"ể":{"ha":683,"x_min":75,"x_max":644,"o":"m 620 354 l 125 354 q 198 108 128 183 q 400 33 267 33 q 585 67 479 33 l 585 20 q 397 -12 488 -12 q 157 80 239 -12 q 75 375 75 173 q 149 667 75 572 q 352 761 222 761 q 620 375 620 761 l 620 354 m 352 715 q 187 641 246 715 q 125 400 128 567 l 571 400 q 513 641 568 567 q 352 715 457 715 m 519 1297 q 613 1277 582 1297 q 644 1224 644 1257 q 629 1183 644 1197 q 583 1156 613 1169 q 545 1135 558 1144 q 531 1108 533 1126 l 487 1108 q 498 1142 488 1128 q 521 1163 508 1155 q 556 1179 534 1170 q 592 1199 581 1190 q 603 1223 603 1208 q 585 1250 603 1241 q 519 1260 567 1260 q 450 1253 483 1260 q 383 1234 418 1247 l 383 1272 q 519 1297 440 1297 m 326 1122 l 379 1122 l 531 878 l 481 878 l 353 1090 l 224 878 l 175 878 l 326 1122 z "},"ễ":{"ha":683,"x_min":75,"x_max":620,"o":"m 620 354 l 125 354 q 198 108 128 183 q 400 33 267 33 q 585 67 479 33 l 585 20 q 397 -12 488 -12 q 157 80 239 -12 q 75 375 75 173 q 149 667 75 572 q 352 761 222 761 q 620 375 620 761 l 620 354 m 352 715 q 187 641 246 715 q 125 400 128 567 l 571 400 q 513 641 568 567 q 352 715 457 715 m 446 1203 q 502 1216 477 1203 q 549 1253 526 1228 l 549 1206 q 446 1164 511 1164 q 398 1171 421 1164 q 342 1192 374 1178 q 296 1211 315 1205 q 260 1217 278 1217 q 204 1205 228 1217 q 156 1167 179 1192 l 156 1214 q 260 1256 194 1256 q 308 1249 285 1256 q 363 1228 331 1242 q 409 1209 391 1215 q 446 1203 428 1203 m 326 1122 l 379 1122 l 531 878 l 481 878 l 353 1090 l 224 878 l 175 878 l 326 1122 z "},"ȅ":{"ha":683,"x_min":75,"x_max":620,"o":"m 620 354 l 125 354 q 198 108 128 183 q 400 33 267 33 q 585 67 479 33 l 585 20 q 397 -12 488 -12 q 157 80 239 -12 q 75 375 75 173 q 149 667 75 572 q 352 761 222 761 q 620 375 620 761 l 620 354 m 352 715 q 187 641 246 715 q 125 400 128 567 l 571 400 q 513 641 568 567 q 352 715 457 715 m 229 878 l 131 1122 l 179 1122 l 272 878 l 229 878 m 434 878 l 335 1122 l 384 1122 l 476 878 l 434 878 z "},"ë":{"ha":683,"x_min":75,"x_max":620,"o":"m 620 354 l 125 354 q 198 108 128 183 q 400 33 267 33 q 585 67 479 33 l 585 20 q 397 -12 488 -12 q 157 80 239 -12 q 75 375 75 173 q 149 667 75 572 q 352 761 222 761 q 620 375 620 761 l 620 354 m 352 715 q 187 641 246 715 q 125 400 128 567 l 571 400 q 513 641 568 567 q 352 715 457 715 m 214 944 q 183 956 195 944 q 171 988 171 968 q 183 1019 171 1007 q 214 1032 195 1032 q 245 1019 233 1032 q 257 988 257 1007 q 245 956 257 968 q 214 944 233 944 m 492 944 q 461 956 473 944 q 449 988 449 968 q 461 1019 449 1007 q 492 1032 473 1032 q 523 1019 510 1032 q 535 988 535 1007 q 523 956 535 968 q 492 944 510 944 z "},"ė":{"ha":683,"x_min":75,"x_max":620,"o":"m 620 354 l 125 354 q 198 108 128 183 q 400 33 267 33 q 585 67 479 33 l 585 20 q 397 -12 488 -12 q 157 80 239 -12 q 75 375 75 173 q 149 667 75 572 q 352 761 222 761 q 620 375 620 761 l 620 354 m 352 715 q 187 641 246 715 q 125 400 128 567 l 571 400 q 513 641 568 567 q 352 715 457 715 m 353 944 q 322 956 334 944 q 310 988 310 968 q 322 1019 310 1007 q 353 1032 334 1032 q 384 1019 372 1032 q 396 988 396 1007 q 384 956 396 968 q 353 944 372 944 z "},"ẹ":{"ha":683,"x_min":75,"x_max":620,"o":"m 620 354 l 125 354 q 198 108 128 183 q 400 33 267 33 q 585 67 479 33 l 585 20 q 397 -12 488 -12 q 157 80 239 -12 q 75 375 75 173 q 149 667 75 572 q 352 761 222 761 q 620 375 620 761 l 620 354 m 352 715 q 187 641 246 715 q 125 400 128 567 l 571 400 q 513 641 568 567 q 352 715 457 715 m 353 -215 q 322 -203 334 -215 q 310 -172 310 -192 q 322 -140 310 -153 q 353 -128 334 -128 q 384 -140 372 -128 q 396 -172 396 -153 q 384 -203 396 -192 q 353 -215 372 -215 z "},"è":{"ha":683,"x_min":75,"x_max":620,"o":"m 620 354 l 125 354 q 198 108 128 183 q 400 33 267 33 q 585 67 479 33 l 585 20 q 397 -12 488 -12 q 157 80 239 -12 q 75 375 75 173 q 149 667 75 572 q 352 761 222 761 q 620 375 620 761 l 620 354 m 352 715 q 187 641 246 715 q 125 400 128 567 l 571 400 q 513 641 568 567 q 352 715 457 715 m 331 878 l 176 1122 l 231 1122 l 375 878 l 331 878 z "},"ẻ":{"ha":683,"x_min":75,"x_max":620,"o":"m 620 354 l 125 354 q 198 108 128 183 q 400 33 267 33 q 585 67 479 33 l 585 20 q 397 -12 488 -12 q 157 80 239 -12 q 75 375 75 173 q 149 667 75 572 q 352 761 222 761 q 620 375 620 761 l 620 354 m 352 715 q 187 641 246 715 q 125 400 128 567 l 571 400 q 513 641 568 567 q 352 715 457 715 m 331 878 q 341 923 332 904 q 364 953 351 942 q 398 980 377 965 q 432 1008 422 997 q 443 1038 443 1020 q 422 1078 443 1065 q 354 1092 401 1092 q 299 1088 328 1092 q 248 1075 270 1083 l 248 1114 q 297 1126 269 1122 q 351 1131 324 1131 q 451 1107 419 1131 q 484 1039 484 1083 q 476 1002 484 1017 q 458 977 469 987 q 428 954 447 967 q 388 920 401 935 q 374 878 375 904 l 331 878 z "},"ȇ":{"ha":683,"x_min":75,"x_max":620,"o":"m 620 354 l 125 354 q 198 108 128 183 q 400 33 267 33 q 585 67 479 33 l 585 20 q 397 -12 488 -12 q 157 80 239 -12 q 75 375 75 173 q 149 667 75 572 q 352 761 222 761 q 620 375 620 761 l 620 354 m 352 715 q 187 641 246 715 q 125 400 128 567 l 571 400 q 513 641 568 567 q 352 715 457 715 m 171 897 q 221 1058 174 1002 q 351 1114 267 1114 q 483 1057 435 1114 q 535 897 531 1001 l 494 897 q 454 1029 489 985 q 351 1073 419 1073 q 250 1029 284 1073 q 211 897 215 985 l 171 897 z "},"ē":{"ha":683,"x_min":75,"x_max":620,"o":"m 620 354 l 125 354 q 198 108 128 183 q 400 33 267 33 q 585 67 479 33 l 585 20 q 397 -12 488 -12 q 157 80 239 -12 q 75 375 75 173 q 149 667 75 572 q 352 761 222 761 q 620 375 620 761 l 620 354 m 352 715 q 187 641 246 715 q 125 400 128 567 l 571 400 q 513 641 568 567 q 352 715 457 715 m 156 968 l 156 1009 l 549 1009 l 549 968 l 156 968 z "},"ḗ":{"ha":683,"x_min":75,"x_max":620,"o":"m 620 354 l 125 354 q 198 108 128 183 q 400 33 267 33 q 585 67 479 33 l 585 20 q 397 -12 488 -12 q 157 80 239 -12 q 75 375 75 173 q 149 667 75 572 q 352 761 222 761 q 620 375 620 761 l 620 354 m 352 715 q 187 641 246 715 q 125 400 128 567 l 571 400 q 513 641 568 567 q 352 715 457 715 m 156 968 l 156 1009 l 549 1009 l 549 968 l 156 968 m 331 1108 l 452 1297 l 507 1297 l 375 1108 l 331 1108 z "},"ḕ":{"ha":683,"x_min":75,"x_max":620,"o":"m 620 354 l 125 354 q 198 108 128 183 q 400 33 267 33 q 585 67 479 33 l 585 20 q 397 -12 488 -12 q 157 80 239 -12 q 75 375 75 173 q 149 667 75 572 q 352 761 222 761 q 620 375 620 761 l 620 354 m 352 715 q 187 641 246 715 q 125 400 128 567 l 571 400 q 513 641 568 567 q 352 715 457 715 m 156 968 l 156 1009 l 549 1009 l 549 968 l 156 968 m 331 1108 l 199 1297 l 253 1297 l 375 1108 l 331 1108 z "},"ę":{"ha":683,"x_min":75,"x_max":620,"o":"m 620 354 l 125 354 q 198 108 128 183 q 400 33 267 33 q 585 67 479 33 l 585 20 q 389 -158 389 -43 q 413 -219 389 -197 q 479 -242 437 -242 q 585 -210 533 -242 l 585 -249 q 535 -270 563 -262 q 481 -278 507 -278 q 385 -247 420 -278 q 350 -160 350 -215 q 373 -77 350 -116 q 438 -10 395 -39 q 397 -12 417 -12 q 157 80 239 -12 q 75 375 75 173 q 149 667 75 572 q 352 761 222 761 q 620 375 620 761 l 620 354 m 352 715 q 187 641 246 715 q 125 400 128 567 l 571 400 q 513 641 568 567 q 352 715 457 715 z "},"ẽ":{"ha":683,"x_min":75,"x_max":620,"o":"m 620 354 l 125 354 q 198 108 128 183 q 400 33 267 33 q 585 67 479 33 l 585 20 q 397 -12 488 -12 q 157 80 239 -12 q 75 375 75 173 q 149 667 75 572 q 352 761 222 761 q 620 375 620 761 l 620 354 m 352 715 q 187 641 246 715 q 125 400 128 567 l 571 400 q 513 641 568 567 q 352 715 457 715 m 446 958 q 398 966 421 958 q 342 987 374 973 q 296 1005 315 999 q 260 1011 278 1011 q 204 999 228 1011 q 156 962 179 987 l 156 1008 q 260 1051 194 1051 q 308 1043 285 1051 q 363 1022 331 1036 q 409 1004 391 1010 q 446 998 428 998 q 502 1010 477 998 q 549 1047 526 1022 l 549 1001 q 446 958 511 958 z "},"ə":{"ha":683,"x_min":63,"x_max":608,"o":"m 286 763 q 526 670 444 763 q 608 375 608 577 q 535 83 608 178 q 331 -11 461 -11 q 63 375 63 -11 l 63 396 l 558 396 q 486 642 555 567 q 283 717 417 717 q 98 683 204 717 l 98 730 q 286 763 195 763 m 331 35 q 497 109 438 35 q 558 350 556 183 l 113 350 q 171 109 115 183 q 331 35 226 35 z "},"f":{"ha":463,"x_min":10,"x_max":495,"o":"m 395 1090 q 256 1046 301 1090 q 210 900 210 1002 l 210 750 l 468 750 l 468 706 l 210 706 l 210 0 l 163 0 l 163 706 l 10 706 l 10 750 l 163 750 l 163 898 q 222 1077 163 1018 q 398 1136 281 1136 q 495 1128 448 1136 l 495 1081 q 395 1090 443 1090 z "},"g":{"ha":744,"x_min":75,"x_max":626,"o":"m 324 -319 q 219 -310 275 -319 q 120 -284 164 -301 l 120 -237 q 324 -274 226 -274 q 467 -248 412 -274 q 551 -164 523 -222 q 578 -8 578 -106 l 578 78 l 574 78 q 482 13 537 38 q 359 -12 426 -12 q 153 75 231 -12 q 75 360 75 163 q 428 761 75 761 q 530 753 478 761 q 626 732 581 746 l 626 -5 q 551 -245 626 -172 q 324 -319 476 -319 m 362 33 q 484 62 426 33 q 578 145 542 90 l 578 697 q 507 710 547 705 q 426 715 467 715 q 200 631 276 715 q 125 365 125 547 q 188 108 125 183 q 362 33 251 33 z "},"ǵ":{"ha":744,"x_min":75,"x_max":626,"o":"m 324 -319 q 219 -310 275 -319 q 120 -284 164 -301 l 120 -237 q 324 -274 226 -274 q 467 -248 412 -274 q 551 -164 523 -222 q 578 -8 578 -106 l 578 78 l 574 78 q 482 13 537 38 q 359 -12 426 -12 q 153 75 231 -12 q 75 360 75 163 q 428 761 75 761 q 530 753 478 761 q 626 732 581 746 l 626 -5 q 551 -245 626 -172 q 324 -319 476 -319 m 362 33 q 484 62 426 33 q 578 145 542 90 l 578 697 q 507 710 547 705 q 426 715 467 715 q 200 631 276 715 q 125 365 125 547 q 188 108 125 183 q 362 33 251 33 m 362 878 l 506 1122 l 560 1122 l 406 878 l 362 878 z "},"ğ":{"ha":744,"x_min":75,"x_max":626,"o":"m 324 -319 q 219 -310 275 -319 q 120 -284 164 -301 l 120 -237 q 324 -274 226 -274 q 467 -248 412 -274 q 551 -164 523 -222 q 578 -8 578 -106 l 578 78 l 574 78 q 482 13 537 38 q 359 -12 426 -12 q 153 75 231 -12 q 75 360 75 163 q 428 761 75 761 q 530 753 478 761 q 626 732 581 746 l 626 -5 q 551 -245 626 -172 q 324 -319 476 -319 m 362 33 q 484 62 426 33 q 578 145 542 90 l 578 697 q 507 710 547 705 q 426 715 467 715 q 200 631 276 715 q 125 365 125 547 q 188 108 125 183 q 362 33 251 33 m 385 886 q 253 943 301 886 q 202 1103 206 1000 l 242 1103 q 283 970 248 1015 q 385 926 317 926 q 488 970 453 926 q 526 1103 522 1015 l 566 1103 q 516 943 563 999 q 385 886 469 886 z "},"ǧ":{"ha":744,"x_min":75,"x_max":626,"o":"m 324 -319 q 219 -310 275 -319 q 120 -284 164 -301 l 120 -237 q 324 -274 226 -274 q 467 -248 412 -274 q 551 -164 523 -222 q 578 -8 578 -106 l 578 78 l 574 78 q 482 13 537 38 q 359 -12 426 -12 q 153 75 231 -12 q 75 360 75 163 q 428 761 75 761 q 530 753 478 761 q 626 732 581 746 l 626 -5 q 551 -245 626 -172 q 324 -319 476 -319 m 362 33 q 484 62 426 33 q 578 145 542 90 l 578 697 q 507 710 547 705 q 426 715 467 715 q 200 631 276 715 q 125 365 125 547 q 188 108 125 183 q 362 33 251 33 m 515 1122 l 565 1122 l 410 878 l 358 878 l 203 1122 l 253 1122 l 384 909 l 515 1122 z "},"ĝ":{"ha":744,"x_min":75,"x_max":626,"o":"m 324 -319 q 219 -310 275 -319 q 120 -284 164 -301 l 120 -237 q 324 -274 226 -274 q 467 -248 412 -274 q 551 -164 523 -222 q 578 -8 578 -106 l 578 78 l 574 78 q 482 13 537 38 q 359 -12 426 -12 q 153 75 231 -12 q 75 360 75 163 q 428 761 75 761 q 530 753 478 761 q 626 732 581 746 l 626 -5 q 551 -245 626 -172 q 324 -319 476 -319 m 362 33 q 484 62 426 33 q 578 145 542 90 l 578 697 q 507 710 547 705 q 426 715 467 715 q 200 631 276 715 q 125 365 125 547 q 188 108 125 183 q 362 33 251 33 m 562 878 l 513 878 l 384 1090 l 256 878 l 206 878 l 358 1122 l 410 1122 l 562 878 z "},"ģ":{"ha":744,"x_min":75,"x_max":626,"o":"m 324 -319 q 219 -310 275 -319 q 120 -284 164 -301 l 120 -237 q 324 -274 226 -274 q 467 -248 412 -274 q 551 -164 523 -222 q 578 -8 578 -106 l 578 78 l 574 78 q 482 13 537 38 q 359 -12 426 -12 q 153 75 231 -12 q 75 360 75 163 q 428 761 75 761 q 530 753 478 761 q 626 732 581 746 l 626 -5 q 551 -245 626 -172 q 324 -319 476 -319 m 362 33 q 484 62 426 33 q 578 145 542 90 l 578 697 q 507 710 547 705 q 426 715 467 715 q 200 631 276 715 q 125 365 125 547 q 188 108 125 183 q 362 33 251 33 m 384 1032 q 415 1019 403 1032 q 427 988 427 1007 q 416 957 427 969 q 387 944 404 944 q 353 960 365 944 q 341 1004 341 975 q 349 1064 341 1031 q 372 1128 356 1097 l 402 1128 q 379 1032 383 1078 l 384 1032 z "},"ġ":{"ha":744,"x_min":75,"x_max":626,"o":"m 324 -319 q 219 -310 275 -319 q 120 -284 164 -301 l 120 -237 q 324 -274 226 -274 q 467 -248 412 -274 q 551 -164 523 -222 q 578 -8 578 -106 l 578 78 l 574 78 q 482 13 537 38 q 359 -12 426 -12 q 153 75 231 -12 q 75 360 75 163 q 428 761 75 761 q 530 753 478 761 q 626 732 581 746 l 626 -5 q 551 -245 626 -172 q 324 -319 476 -319 m 362 33 q 484 62 426 33 q 578 145 542 90 l 578 697 q 507 710 547 705 q 426 715 467 715 q 200 631 276 715 q 125 365 125 547 q 188 108 125 183 q 362 33 251 33 m 384 944 q 353 956 365 944 q 341 988 341 968 q 353 1019 341 1007 q 384 1032 365 1032 q 415 1019 403 1032 q 427 988 427 1007 q 415 956 427 968 q 384 944 403 944 z "},"ḡ":{"ha":744,"x_min":75,"x_max":626,"o":"m 324 -319 q 219 -310 275 -319 q 120 -284 164 -301 l 120 -237 q 324 -274 226 -274 q 467 -248 412 -274 q 551 -164 523 -222 q 578 -8 578 -106 l 578 78 l 574 78 q 482 13 537 38 q 359 -12 426 -12 q 153 75 231 -12 q 75 360 75 163 q 428 761 75 761 q 530 753 478 761 q 626 732 581 746 l 626 -5 q 551 -245 626 -172 q 324 -319 476 -319 m 362 33 q 484 62 426 33 q 578 145 542 90 l 578 697 q 507 710 547 705 q 426 715 467 715 q 200 631 276 715 q 125 365 125 547 q 188 108 125 183 q 362 33 251 33 m 188 968 l 188 1009 l 581 1009 l 581 968 l 188 968 z "},"h":{"ha":755,"x_min":118,"x_max":647,"o":"m 118 1122 l 165 1122 l 165 662 l 169 662 q 281 736 218 711 q 415 761 344 761 q 647 513 647 761 l 647 0 l 599 0 l 599 514 q 551 668 599 622 q 413 714 502 714 q 278 684 344 714 q 165 592 211 654 l 165 0 l 118 0 l 118 1122 z "},"ħ":{"ha":755,"x_min":8,"x_max":647,"o":"m 415 761 q 647 513 647 761 l 647 0 l 599 0 l 599 514 q 551 668 599 622 q 413 714 502 714 q 278 684 344 714 q 165 592 211 654 l 165 0 l 118 0 l 118 921 l 8 921 l 8 963 l 118 963 l 118 1122 l 165 1122 l 165 963 l 418 963 l 418 921 l 165 921 l 165 662 l 169 662 q 281 736 218 711 q 415 761 344 761 z "},"ḫ":{"ha":755,"x_min":118,"x_max":647,"o":"m 118 1122 l 165 1122 l 165 662 l 169 662 q 281 736 218 711 q 415 761 344 761 q 647 513 647 761 l 647 0 l 599 0 l 599 514 q 551 668 599 622 q 413 714 502 714 q 278 684 344 714 q 165 592 211 654 l 165 0 l 118 0 l 118 1122 m 384 -278 q 250 -233 299 -278 q 201 -111 202 -187 l 241 -111 q 280 -205 244 -172 q 384 -237 315 -237 q 524 -111 520 -237 l 565 -111 q 516 -233 563 -188 q 384 -278 469 -278 z "},"ĥ":{"ha":755,"x_min":118,"x_max":647,"o":"m 118 1122 l 165 1122 l 165 662 l 169 662 q 281 736 218 711 q 415 761 344 761 q 647 513 647 761 l 647 0 l 599 0 l 599 514 q 551 668 599 622 q 413 714 502 714 q 278 684 344 714 q 165 592 211 654 l 165 0 l 118 0 l 118 1122 m 576 1189 l 519 1189 l 383 1347 l 246 1189 l 190 1189 l 356 1378 l 409 1378 l 576 1189 z "},"ḥ":{"ha":755,"x_min":118,"x_max":647,"o":"m 118 1122 l 165 1122 l 165 662 l 169 662 q 281 736 218 711 q 415 761 344 761 q 647 513 647 761 l 647 0 l 599 0 l 599 514 q 551 668 599 622 q 413 714 502 714 q 278 684 344 714 q 165 592 211 654 l 165 0 l 118 0 l 118 1122 m 383 -215 q 352 -203 364 -215 q 340 -172 340 -192 q 352 -140 340 -153 q 383 -128 364 -128 q 414 -140 401 -128 q 426 -172 426 -153 q 414 -203 426 -192 q 383 -215 401 -215 z "},"i":{"ha":283,"x_min":99,"x_max":185,"o":"m 118 0 l 118 750 l 165 750 l 165 0 l 118 0 m 142 944 q 111 956 123 944 q 99 988 99 968 q 111 1019 99 1007 q 142 1032 123 1032 q 173 1019 160 1032 q 185 988 185 1007 q 173 956 185 968 q 142 944 160 944 z "},"ı":{"ha":283,"x_min":118,"x_max":165,"o":"m 118 0 l 118 750 l 165 750 l 165 0 l 118 0 z "},"í":{"ha":283,"x_min":118,"x_max":318,"o":"m 118 0 l 118 750 l 165 750 l 165 0 l 118 0 m 119 878 l 264 1122 l 318 1122 l 164 878 l 119 878 z "},"ĭ":{"ha":283,"x_min":-40,"x_max":324,"o":"m 118 0 l 118 750 l 165 750 l 165 0 l 118 0 m 143 886 q 11 943 59 886 q -40 1103 -37 1000 l 0 1103 q 40 970 6 1015 q 143 926 75 926 q 245 970 211 926 q 283 1103 279 1015 l 324 1103 q 273 943 320 999 q 143 886 226 886 z "},"î":{"ha":283,"x_min":-36,"x_max":319,"o":"m 118 0 l 118 750 l 165 750 l 165 0 l 118 0 m 319 878 l 270 878 l 142 1090 l 13 878 l -36 878 l 115 1122 l 168 1122 l 319 878 z "},"ȉ":{"ha":283,"x_min":-81,"x_max":265,"o":"m 118 0 l 118 750 l 165 750 l 165 0 l 118 0 m 18 878 l -81 1122 l -32 1122 l 60 878 l 18 878 m 223 878 l 124 1122 l 173 1122 l 265 878 l 223 878 z "},"ï":{"ha":283,"x_min":-40,"x_max":324,"o":"m 118 0 l 118 750 l 165 750 l 165 0 l 118 0 m 3 944 q -28 956 -16 944 q -40 988 -40 968 q -28 1019 -40 1007 q 3 1032 -16 1032 q 34 1019 22 1032 q 46 988 46 1007 q 34 956 46 968 q 3 944 22 944 m 281 944 q 250 956 262 944 q 238 988 238 968 q 250 1019 238 1007 q 281 1032 262 1032 q 311 1019 299 1032 q 324 988 324 1007 q 311 956 324 968 q 281 944 299 944 z "},"ḯ":{"ha":283,"x_min":-40,"x_max":324,"o":"m 118 0 l 118 750 l 165 750 l 165 0 l 118 0 m 3 944 q -28 956 -16 944 q -40 988 -40 968 q -28 1019 -40 1007 q 3 1032 -16 1032 q 34 1019 22 1032 q 46 988 46 1007 q 34 956 46 968 q 3 944 22 944 m 281 944 q 250 956 262 944 q 238 988 238 968 q 250 1019 238 1007 q 281 1032 262 1032 q 311 1019 299 1032 q 324 988 324 1007 q 311 956 324 968 q 281 944 299 944 m 119 1108 l 241 1297 l 296 1297 l 164 1108 l 119 1108 z "},"ị":{"ha":283,"x_min":99,"x_max":185,"o":"m 118 0 l 118 750 l 165 750 l 165 0 l 118 0 m 142 944 q 111 956 123 944 q 99 988 99 968 q 111 1019 99 1007 q 142 1032 123 1032 q 173 1019 160 1032 q 185 988 185 1007 q 173 956 185 968 q 142 944 160 944 m 142 -215 q 111 -203 123 -215 q 99 -172 99 -192 q 111 -140 99 -153 q 142 -128 123 -128 q 173 -140 160 -128 q 185 -172 185 -153 q 173 -203 185 -192 q 142 -215 160 -215 z "},"ì":{"ha":283,"x_min":-35,"x_max":165,"o":"m 118 0 l 118 750 l 165 750 l 165 0 l 118 0 m 119 878 l -35 1122 l 19 1122 l 164 878 l 119 878 z "},"ỉ":{"ha":283,"x_min":37,"x_max":273,"o":"m 118 0 l 118 750 l 165 750 l 165 0 l 118 0 m 120 878 q 130 923 121 904 q 153 953 140 942 q 187 980 166 965 q 221 1008 210 997 q 232 1038 232 1020 q 211 1078 232 1065 q 143 1092 190 1092 q 88 1088 117 1092 q 37 1075 59 1083 l 37 1114 q 85 1126 58 1122 q 140 1131 113 1131 q 240 1107 208 1131 q 273 1039 273 1083 q 265 1002 273 1017 q 247 977 258 987 q 217 954 235 967 q 177 920 190 935 q 163 878 164 904 l 120 878 z "},"ȋ":{"ha":283,"x_min":-40,"x_max":324,"o":"m 118 0 l 118 750 l 165 750 l 165 0 l 118 0 m -40 897 q 10 1058 -37 1002 q 140 1114 56 1114 q 272 1057 224 1114 q 324 897 320 1001 l 283 897 q 243 1029 278 985 q 140 1073 208 1073 q 39 1029 73 1073 q 0 897 4 985 l -40 897 z "},"ī":{"ha":283,"x_min":-55,"x_max":338,"o":"m 118 0 l 118 750 l 165 750 l 165 0 l 118 0 m -55 968 l -55 1009 l 338 1009 l 338 968 l -55 968 z "},"į":{"ha":283,"x_min":5,"x_max":240,"o":"m 142 944 q 111 956 123 944 q 99 988 99 968 q 111 1019 99 1007 q 142 1032 123 1032 q 173 1019 160 1032 q 185 988 185 1007 q 173 956 185 968 q 142 944 160 944 m 134 -242 q 240 -210 188 -242 l 240 -249 q 190 -270 218 -262 q 136 -278 162 -278 q 40 -247 75 -278 q 5 -160 5 -215 q 32 -69 5 -111 q 118 14 60 -26 l 118 750 l 165 750 l 165 0 q 72 -77 101 -40 q 44 -158 44 -115 q 68 -220 44 -198 q 134 -242 92 -242 z "},"ĩ":{"ha":283,"x_min":-55,"x_max":338,"o":"m 118 0 l 118 750 l 165 750 l 165 0 l 118 0 m 235 958 q 186 966 210 958 q 131 987 163 973 q 85 1005 103 999 q 49 1011 67 1011 q -7 999 17 1011 q -55 962 -32 987 l -55 1008 q 49 1051 -17 1051 q 97 1043 74 1051 q 152 1022 120 1036 q 198 1004 180 1010 q 235 998 217 998 q 291 1010 266 998 q 338 1047 315 1022 l 338 1001 q 235 958 300 958 z "},"j":{"ha":283,"x_min":-15,"x_max":185,"o":"m -15 -295 q 87 -103 56 -199 q 118 115 118 -8 l 118 750 l 165 750 l 165 120 q 131 -114 165 -13 q 19 -319 97 -214 l -15 -295 m 142 949 q 111 960 123 949 q 99 992 99 972 q 111 1024 99 1011 q 142 1036 123 1036 q 173 1024 160 1036 q 185 992 185 1011 q 173 960 185 972 q 142 949 160 949 z "},"ȷ":{"ha":283,"x_min":-15,"x_max":165,"o":"m -15 -295 q 87 -103 56 -199 q 118 115 118 -8 l 118 750 l 165 750 l 165 120 q 131 -114 165 -13 q 19 -319 97 -214 l -15 -295 z "},"ĵ":{"ha":283,"x_min":-36,"x_max":319,"o":"m -15 -295 q 87 -103 56 -199 q 118 115 118 -8 l 118 750 l 165 750 l 165 120 q 131 -114 165 -13 q 19 -319 97 -214 l -15 -295 m 319 882 l 270 882 l 142 1094 l 13 882 l -36 882 l 115 1126 l 168 1126 l 319 882 z "},"k":{"ha":665,"x_min":118,"x_max":675,"o":"m 616 0 l 313 361 l 165 361 l 165 0 l 118 0 l 118 1122 l 165 1122 l 165 406 l 312 406 l 594 750 l 653 750 l 353 383 l 675 0 l 616 0 z "},"ķ":{"ha":665,"x_min":118,"x_max":675,"o":"m 616 0 l 313 361 l 165 361 l 165 0 l 118 0 l 118 1122 l 165 1122 l 165 406 l 312 406 l 594 750 l 653 750 l 353 383 l 675 0 l 616 0 m 358 -128 q 391 -143 379 -128 q 403 -187 403 -158 q 396 -247 403 -214 q 373 -311 388 -281 l 342 -311 q 365 -215 362 -262 l 360 -215 q 330 -203 342 -215 q 317 -171 317 -190 q 329 -140 317 -152 q 358 -128 340 -128 z "},"ĸ":{"ha":665,"x_min":118,"x_max":675,"o":"m 616 0 l 313 361 l 165 361 l 165 0 l 118 0 l 118 750 l 165 750 l 165 406 l 312 406 l 594 750 l 653 750 l 353 383 l 675 0 l 616 0 z "},"l":{"ha":283,"x_min":118,"x_max":165,"o":"m 118 0 l 118 1122 l 165 1122 l 165 0 l 118 0 z "},"ĺ":{"ha":283,"x_min":118,"x_max":296,"o":"m 118 0 l 118 1122 l 165 1122 l 165 0 l 118 0 m 119 1189 l 241 1378 l 296 1378 l 164 1189 l 119 1189 z "},"ľ":{"ha":283,"x_min":118,"x_max":293,"o":"m 118 0 l 118 1122 l 165 1122 l 165 0 l 118 0 m 236 819 q 249 1122 249 929 l 293 1122 q 268 819 293 947 l 236 819 z "},"ļ":{"ha":283,"x_min":99,"x_max":185,"o":"m 118 0 l 118 1122 l 165 1122 l 165 0 l 118 0 m 139 -128 q 173 -143 160 -128 q 185 -187 185 -158 q 177 -247 185 -214 q 154 -311 169 -281 l 124 -311 q 147 -215 143 -262 l 142 -215 q 111 -203 123 -215 q 99 -171 99 -190 q 110 -140 99 -152 q 139 -128 122 -128 z "},"ŀ":{"ha":283,"x_min":118,"x_max":319,"o":"m 118 0 l 118 1122 l 165 1122 l 165 0 l 118 0 m 276 507 q 245 519 257 507 q 233 550 233 531 q 245 582 233 569 q 276 594 257 594 q 307 582 294 594 q 319 550 319 569 q 307 519 319 531 q 276 507 294 507 z "},"ḷ":{"ha":283,"x_min":99,"x_max":185,"o":"m 118 0 l 118 1122 l 165 1122 l 165 0 l 118 0 m 142 -215 q 111 -203 123 -215 q 99 -172 99 -192 q 111 -140 99 -153 q 142 -128 123 -128 q 173 -140 160 -128 q 185 -172 185 -153 q 173 -203 185 -192 q 142 -215 160 -215 z "},"ǉ":{"ha":567,"x_min":118,"x_max":468,"o":"m 118 0 l 118 1122 l 165 1122 l 165 0 l 118 0 m 269 -295 q 370 -103 339 -199 q 401 115 401 -8 l 401 750 l 449 750 l 449 120 q 414 -114 449 -13 q 303 -319 380 -214 l 269 -295 m 425 949 q 394 960 406 949 q 382 992 382 972 q 394 1024 382 1011 q 425 1036 406 1036 q 456 1024 444 1036 q 468 992 468 1011 q 456 960 468 972 q 425 949 444 949 z "},"ḻ":{"ha":283,"x_min":-32,"x_max":315,"o":"m 118 0 l 118 1122 l 165 1122 l 165 0 l 118 0 m -32 -193 l -32 -152 l 315 -152 l 315 -193 l -32 -193 z "},"ł":{"ha":283,"x_min":8,"x_max":276,"o":"m 276 586 l 165 489 l 165 0 l 118 0 l 118 447 l 35 375 l 8 406 l 118 501 l 118 1122 l 165 1122 l 165 543 l 249 617 l 276 586 z "},"m":{"ha":1133,"x_min":118,"x_max":1025,"o":"m 813 761 q 968 702 911 761 q 1025 513 1025 644 l 1025 0 l 978 0 l 978 513 q 810 715 978 715 q 692 686 752 715 q 591 592 633 657 q 597 513 597 556 l 597 0 l 550 0 l 550 513 q 507 668 550 621 q 385 715 464 715 q 266 684 326 715 q 165 588 206 653 l 165 0 l 118 0 l 118 750 l 160 750 l 164 660 l 169 660 q 270 735 213 710 q 390 761 328 761 q 576 647 531 761 q 688 734 626 707 q 813 761 750 761 z "},"ṃ":{"ha":1133,"x_min":118,"x_max":1025,"o":"m 813 761 q 968 702 911 761 q 1025 513 1025 644 l 1025 0 l 978 0 l 978 513 q 810 715 978 715 q 692 686 752 715 q 591 592 633 657 q 597 513 597 556 l 597 0 l 550 0 l 550 513 q 507 668 550 621 q 385 715 464 715 q 266 684 326 715 q 165 588 206 653 l 165 0 l 118 0 l 118 750 l 160 750 l 164 660 l 169 660 q 270 735 213 710 q 390 761 328 761 q 576 647 531 761 q 688 734 626 707 q 813 761 750 761 m 574 -215 q 543 -203 555 -215 q 531 -172 531 -192 q 543 -140 531 -153 q 574 -128 555 -128 q 605 -140 592 -128 q 617 -172 617 -153 q 605 -203 617 -192 q 574 -215 592 -215 z "},"n":{"ha":755,"x_min":118,"x_max":647,"o":"m 118 750 l 160 750 l 164 660 l 169 660 q 281 735 218 709 q 414 761 344 761 q 647 513 647 761 l 647 0 l 599 0 l 599 513 q 551 668 599 621 q 413 715 503 715 q 279 686 347 715 q 165 592 212 656 l 165 0 l 118 0 l 118 750 z "},"ń":{"ha":755,"x_min":118,"x_max":647,"o":"m 118 750 l 160 750 l 164 660 l 169 660 q 281 735 218 709 q 414 761 344 761 q 647 513 647 761 l 647 0 l 599 0 l 599 513 q 551 668 599 621 q 413 715 503 715 q 279 686 347 715 q 165 592 212 656 l 165 0 l 118 0 l 118 750 m 360 878 l 505 1122 l 559 1122 l 405 878 l 360 878 z "},"ŉ":{"ha":755,"x_min":9,"x_max":647,"o":"m 118 750 l 160 750 l 164 660 l 169 660 q 281 735 218 709 q 414 761 344 761 q 647 513 647 761 l 647 0 l 599 0 l 599 513 q 551 668 599 621 q 413 715 503 715 q 279 686 347 715 q 165 592 212 656 l 165 0 l 118 0 l 118 750 m 49 1128 q 83 1113 71 1128 q 95 1068 95 1097 q 88 1008 95 1042 q 65 944 80 975 l 34 944 q 57 1040 53 994 l 52 1040 q 21 1053 33 1040 q 9 1085 9 1065 q 20 1116 9 1103 q 49 1128 32 1128 z "},"ň":{"ha":755,"x_min":118,"x_max":647,"o":"m 118 750 l 160 750 l 164 660 l 169 660 q 281 735 218 709 q 414 761 344 761 q 647 513 647 761 l 647 0 l 599 0 l 599 513 q 551 668 599 621 q 413 715 503 715 q 279 686 347 715 q 165 592 212 656 l 165 0 l 118 0 l 118 750 m 514 1122 l 563 1122 l 409 878 l 356 878 l 202 1122 l 251 1122 l 383 909 l 514 1122 z "},"ņ":{"ha":755,"x_min":118,"x_max":647,"o":"m 118 750 l 160 750 l 164 660 l 169 660 q 281 735 218 709 q 414 761 344 761 q 647 513 647 761 l 647 0 l 599 0 l 599 513 q 551 668 599 621 q 413 715 503 715 q 279 686 347 715 q 165 592 212 656 l 165 0 l 118 0 l 118 750 m 380 -128 q 414 -143 401 -128 q 426 -187 426 -158 q 418 -247 426 -214 q 395 -311 410 -281 l 365 -311 q 388 -215 384 -262 l 383 -215 q 352 -203 364 -215 q 340 -171 340 -190 q 351 -140 340 -152 q 380 -128 363 -128 z "},"ṅ":{"ha":755,"x_min":118,"x_max":647,"o":"m 118 750 l 160 750 l 164 660 l 169 660 q 281 735 218 709 q 414 761 344 761 q 647 513 647 761 l 647 0 l 599 0 l 599 513 q 551 668 599 621 q 413 715 503 715 q 279 686 347 715 q 165 592 212 656 l 165 0 l 118 0 l 118 750 m 383 944 q 352 956 364 944 q 340 988 340 968 q 352 1019 340 1007 q 383 1032 364 1032 q 414 1019 401 1032 q 426 988 426 1007 q 414 956 426 968 q 383 944 401 944 z "},"ṇ":{"ha":755,"x_min":118,"x_max":647,"o":"m 118 750 l 160 750 l 164 660 l 169 660 q 281 735 218 709 q 414 761 344 761 q 647 513 647 761 l 647 0 l 599 0 l 599 513 q 551 668 599 621 q 413 715 503 715 q 279 686 347 715 q 165 592 212 656 l 165 0 l 118 0 l 118 750 m 383 -215 q 352 -203 364 -215 q 340 -172 340 -192 q 352 -140 340 -153 q 383 -128 364 -128 q 414 -140 401 -128 q 426 -172 426 -153 q 414 -203 426 -192 q 383 -215 401 -215 z "},"ŋ":{"ha":755,"x_min":118,"x_max":647,"o":"m 467 -295 q 568 -103 537 -199 q 599 115 599 -8 l 599 514 q 551 668 599 622 q 413 715 502 715 q 278 685 344 715 q 165 592 211 655 l 165 0 l 118 0 l 118 750 l 160 750 l 164 660 l 169 660 q 281 736 218 710 q 415 761 344 761 q 647 513 647 761 l 647 92 q 608 -124 641 -30 q 501 -319 575 -218 l 467 -295 z "},"ǌ":{"ha":1038,"x_min":118,"x_max":940,"o":"m 118 750 l 160 750 l 164 660 l 169 660 q 281 735 218 709 q 414 761 344 761 q 647 513 647 761 l 647 0 l 599 0 l 599 513 q 551 668 599 621 q 413 715 503 715 q 279 686 347 715 q 165 592 212 656 l 165 0 l 118 0 l 118 750 m 740 -295 q 842 -103 810 -199 q 873 115 873 -8 l 873 750 l 920 750 l 920 120 q 886 -114 920 -13 q 774 -319 851 -214 l 740 -295 m 897 949 q 866 960 878 949 q 853 992 853 972 q 866 1024 853 1011 q 897 1036 878 1036 q 927 1024 915 1036 q 940 992 940 1011 q 927 960 940 972 q 897 949 915 949 z "},"ṉ":{"ha":755,"x_min":118,"x_max":647,"o":"m 118 750 l 160 750 l 164 660 l 169 660 q 281 735 218 709 q 414 761 344 761 q 647 513 647 761 l 647 0 l 599 0 l 599 513 q 551 668 599 621 q 413 715 503 715 q 279 686 347 715 q 165 592 212 656 l 165 0 l 118 0 l 118 750 m 209 -193 l 209 -152 l 556 -152 l 556 -193 l 209 -193 z "},"ñ":{"ha":755,"x_min":118,"x_max":647,"o":"m 118 750 l 160 750 l 164 660 l 169 660 q 281 735 218 709 q 414 761 344 761 q 647 513 647 761 l 647 0 l 599 0 l 599 513 q 551 668 599 621 q 413 715 503 715 q 279 686 347 715 q 165 592 212 656 l 165 0 l 118 0 l 118 750 m 476 958 q 427 966 451 958 q 372 987 404 973 q 326 1005 344 999 q 290 1011 308 1011 q 234 999 258 1011 q 186 962 209 987 l 186 1008 q 290 1051 224 1051 q 338 1043 315 1051 q 393 1022 361 1036 q 439 1004 421 1010 q 476 998 458 998 q 532 1010 507 998 q 579 1047 556 1022 l 579 1001 q 476 958 541 958 z "},"o":{"ha":735,"x_min":75,"x_max":660,"o":"m 367 -12 q 152 81 229 -12 q 75 375 75 174 q 152 667 75 574 q 367 761 230 761 q 583 668 506 761 q 660 375 660 576 q 582 82 660 176 q 367 -12 505 -12 m 367 33 q 547 112 485 33 q 610 373 610 191 q 547 636 610 557 q 367 715 485 715 q 188 637 250 715 q 125 377 125 558 q 188 113 125 192 q 367 33 250 33 z "},"ó":{"ha":735,"x_min":75,"x_max":660,"o":"m 367 -12 q 152 81 229 -12 q 75 375 75 174 q 152 667 75 574 q 367 761 230 761 q 583 668 506 761 q 660 375 660 576 q 582 82 660 176 q 367 -12 505 -12 m 367 33 q 547 112 485 33 q 610 373 610 191 q 547 636 610 557 q 367 715 485 715 q 188 637 250 715 q 125 377 125 558 q 188 113 125 192 q 367 33 250 33 m 345 878 l 490 1122 l 544 1122 l 390 878 l 345 878 z "},"ŏ":{"ha":735,"x_min":75,"x_max":660,"o":"m 367 -12 q 152 81 229 -12 q 75 375 75 174 q 152 667 75 574 q 367 761 230 761 q 583 668 506 761 q 660 375 660 576 q 582 82 660 176 q 367 -12 505 -12 m 367 33 q 547 112 485 33 q 610 373 610 191 q 547 636 610 557 q 367 715 485 715 q 188 637 250 715 q 125 377 125 558 q 188 113 125 192 q 367 33 250 33 m 369 886 q 237 943 285 886 q 185 1103 189 1000 l 226 1103 q 266 970 231 1015 q 369 926 301 926 q 471 970 437 926 q 509 1103 505 1015 l 549 1103 q 499 943 546 999 q 369 886 452 886 z "},"ô":{"ha":735,"x_min":75,"x_max":660,"o":"m 367 -12 q 152 81 229 -12 q 75 375 75 174 q 152 667 75 574 q 367 761 230 761 q 583 668 506 761 q 660 375 660 576 q 582 82 660 176 q 367 -12 505 -12 m 367 33 q 547 112 485 33 q 610 373 610 191 q 547 636 610 557 q 367 715 485 715 q 188 637 250 715 q 125 377 125 558 q 188 113 125 192 q 367 33 250 33 m 545 878 l 496 878 l 367 1090 l 239 878 l 190 878 l 341 1122 l 394 1122 l 545 878 z "},"ố":{"ha":735,"x_min":75,"x_max":683,"o":"m 367 -12 q 152 81 229 -12 q 75 375 75 174 q 152 667 75 574 q 367 761 230 761 q 583 668 506 761 q 660 375 660 576 q 582 82 660 176 q 367 -12 505 -12 m 367 33 q 547 112 485 33 q 610 373 610 191 q 547 636 610 557 q 367 715 485 715 q 188 637 250 715 q 125 377 125 558 q 188 113 125 192 q 367 33 250 33 m 628 1297 l 683 1297 l 551 1108 l 507 1108 l 628 1297 m 341 1122 l 394 1122 l 545 878 l 496 878 l 367 1090 l 239 878 l 190 878 l 341 1122 z "},"ộ":{"ha":735,"x_min":75,"x_max":660,"o":"m 367 -12 q 152 81 229 -12 q 75 375 75 174 q 152 667 75 574 q 367 761 230 761 q 583 668 506 761 q 660 375 660 576 q 582 82 660 176 q 367 -12 505 -12 m 367 33 q 547 112 485 33 q 610 373 610 191 q 547 636 610 557 q 367 715 485 715 q 188 637 250 715 q 125 377 125 558 q 188 113 125 192 q 367 33 250 33 m 367 -215 q 336 -203 349 -215 q 324 -172 324 -192 q 336 -140 324 -153 q 367 -128 349 -128 q 398 -140 386 -128 q 410 -172 410 -153 q 398 -203 410 -192 q 367 -215 386 -215 m 545 878 l 496 878 l 367 1090 l 239 878 l 190 878 l 341 1122 l 394 1122 l 545 878 z "},"ồ":{"ha":735,"x_min":75,"x_max":660,"o":"m 367 -12 q 152 81 229 -12 q 75 375 75 174 q 152 667 75 574 q 367 761 230 761 q 583 668 506 761 q 660 375 660 576 q 582 82 660 176 q 367 -12 505 -12 m 367 33 q 547 112 485 33 q 610 373 610 191 q 547 636 610 557 q 367 715 485 715 q 188 637 250 715 q 125 377 125 558 q 188 113 125 192 q 367 33 250 33 m 560 1108 l 516 1108 l 384 1297 l 439 1297 l 560 1108 m 341 1122 l 394 1122 l 545 878 l 496 878 l 367 1090 l 239 878 l 190 878 l 341 1122 z "},"ổ":{"ha":735,"x_min":75,"x_max":660,"o":"m 367 -12 q 152 81 229 -12 q 75 375 75 174 q 152 667 75 574 q 367 761 230 761 q 583 668 506 761 q 660 375 660 576 q 582 82 660 176 q 367 -12 505 -12 m 367 33 q 547 112 485 33 q 610 373 610 191 q 547 636 610 557 q 367 715 485 715 q 188 637 250 715 q 125 377 125 558 q 188 113 125 192 q 367 33 250 33 m 534 1297 q 628 1277 597 1297 q 659 1224 659 1257 q 643 1183 659 1197 q 597 1156 628 1169 q 560 1135 572 1144 q 545 1108 547 1126 l 501 1108 q 512 1142 502 1128 q 535 1163 522 1155 q 570 1179 549 1170 q 607 1199 595 1190 q 618 1223 618 1208 q 600 1250 618 1241 q 534 1260 581 1260 q 465 1253 497 1260 q 397 1234 433 1247 l 397 1272 q 534 1297 455 1297 m 341 1122 l 394 1122 l 545 878 l 496 878 l 367 1090 l 239 878 l 190 878 l 341 1122 z "},"ỗ":{"ha":735,"x_min":75,"x_max":660,"o":"m 367 -12 q 152 81 229 -12 q 75 375 75 174 q 152 667 75 574 q 367 761 230 761 q 583 668 506 761 q 660 375 660 576 q 582 82 660 176 q 367 -12 505 -12 m 367 33 q 547 112 485 33 q 610 373 610 191 q 547 636 610 557 q 367 715 485 715 q 188 637 250 715 q 125 377 125 558 q 188 113 125 192 q 367 33 250 33 m 460 1203 q 516 1216 492 1203 q 564 1253 541 1228 l 564 1206 q 460 1164 526 1164 q 412 1171 435 1164 q 357 1192 389 1178 q 311 1211 329 1205 q 274 1217 292 1217 q 218 1205 243 1217 q 171 1167 194 1192 l 171 1214 q 274 1256 209 1256 q 323 1249 299 1256 q 378 1228 346 1242 q 424 1209 406 1215 q 460 1203 442 1203 m 341 1122 l 394 1122 l 545 878 l 496 878 l 367 1090 l 239 878 l 190 878 l 341 1122 z "},"ȍ":{"ha":735,"x_min":75,"x_max":660,"o":"m 367 -12 q 152 81 229 -12 q 75 375 75 174 q 152 667 75 574 q 367 761 230 761 q 583 668 506 761 q 660 375 660 576 q 582 82 660 176 q 367 -12 505 -12 m 367 33 q 547 112 485 33 q 610 373 610 191 q 547 636 610 557 q 367 715 485 715 q 188 637 250 715 q 125 377 125 558 q 188 113 125 192 q 367 33 250 33 m 244 878 l 145 1122 l 194 1122 l 286 878 l 244 878 m 449 878 l 350 1122 l 399 1122 l 491 878 l 449 878 z "},"ö":{"ha":735,"x_min":75,"x_max":660,"o":"m 367 -12 q 152 81 229 -12 q 75 375 75 174 q 152 667 75 574 q 367 761 230 761 q 583 668 506 761 q 660 375 660 576 q 582 82 660 176 q 367 -12 505 -12 m 367 33 q 547 112 485 33 q 610 373 610 191 q 547 636 610 557 q 367 715 485 715 q 188 637 250 715 q 125 377 125 558 q 188 113 125 192 q 367 33 250 33 m 228 944 q 198 956 210 944 q 185 988 185 968 q 198 1019 185 1007 q 228 1032 210 1032 q 259 1019 247 1032 q 272 988 272 1007 q 259 956 272 968 q 228 944 247 944 m 506 944 q 475 956 488 944 q 463 988 463 968 q 475 1019 463 1007 q 506 1032 488 1032 q 537 1019 525 1032 q 549 988 549 1007 q 537 956 549 968 q 506 944 525 944 z "},"ȫ":{"ha":735,"x_min":75,"x_max":660,"o":"m 367 -12 q 152 81 229 -12 q 75 375 75 174 q 152 667 75 574 q 367 761 230 761 q 583 668 506 761 q 660 375 660 576 q 582 82 660 176 q 367 -12 505 -12 m 367 33 q 547 112 485 33 q 610 373 610 191 q 547 636 610 557 q 367 715 485 715 q 188 637 250 715 q 125 377 125 558 q 188 113 125 192 q 367 33 250 33 m 228 944 q 198 956 210 944 q 185 988 185 968 q 198 1019 185 1007 q 228 1032 210 1032 q 259 1019 247 1032 q 272 988 272 1007 q 259 956 272 968 q 228 944 247 944 m 506 944 q 475 956 488 944 q 463 988 463 968 q 475 1019 463 1007 q 506 1032 488 1032 q 537 1019 525 1032 q 549 988 549 1007 q 537 956 549 968 q 506 944 525 944 m 171 1151 l 171 1192 l 564 1192 l 564 1151 l 171 1151 z "},"ȱ":{"ha":735,"x_min":75,"x_max":660,"o":"m 367 -12 q 152 81 229 -12 q 75 375 75 174 q 152 667 75 574 q 367 761 230 761 q 583 668 506 761 q 660 375 660 576 q 582 82 660 176 q 367 -12 505 -12 m 367 33 q 547 112 485 33 q 610 373 610 191 q 547 636 610 557 q 367 715 485 715 q 188 637 250 715 q 125 377 125 558 q 188 113 125 192 q 367 33 250 33 m 367 944 q 336 956 349 944 q 324 988 324 968 q 336 1019 324 1007 q 367 1032 349 1032 q 398 1019 386 1032 q 410 988 410 1007 q 398 956 410 968 q 367 944 386 944 m 171 1151 l 171 1192 l 564 1192 l 564 1151 l 171 1151 z "},"ọ":{"ha":735,"x_min":75,"x_max":660,"o":"m 367 -12 q 152 81 229 -12 q 75 375 75 174 q 152 667 75 574 q 367 761 230 761 q 583 668 506 761 q 660 375 660 576 q 582 82 660 176 q 367 -12 505 -12 m 367 33 q 547 112 485 33 q 610 373 610 191 q 547 636 610 557 q 367 715 485 715 q 188 637 250 715 q 125 377 125 558 q 188 113 125 192 q 367 33 250 33 m 367 -215 q 336 -203 349 -215 q 324 -172 324 -192 q 336 -140 324 -153 q 367 -128 349 -128 q 398 -140 386 -128 q 410 -172 410 -153 q 398 -203 410 -192 q 367 -215 386 -215 z "},"ò":{"ha":735,"x_min":75,"x_max":660,"o":"m 367 -12 q 152 81 229 -12 q 75 375 75 174 q 152 667 75 574 q 367 761 230 761 q 583 668 506 761 q 660 375 660 576 q 582 82 660 176 q 367 -12 505 -12 m 367 33 q 547 112 485 33 q 610 373 610 191 q 547 636 610 557 q 367 715 485 715 q 188 637 250 715 q 125 377 125 558 q 188 113 125 192 q 367 33 250 33 m 345 878 l 191 1122 l 245 1122 l 390 878 l 345 878 z "},"ỏ":{"ha":735,"x_min":75,"x_max":660,"o":"m 367 -12 q 152 81 229 -12 q 75 375 75 174 q 152 667 75 574 q 367 761 230 761 q 583 668 506 761 q 660 375 660 576 q 582 82 660 176 q 367 -12 505 -12 m 367 33 q 547 112 485 33 q 610 373 610 191 q 547 636 610 557 q 367 715 485 715 q 188 637 250 715 q 125 377 125 558 q 188 113 125 192 q 367 33 250 33 m 346 878 q 356 923 347 904 q 378 953 365 942 q 413 980 392 965 q 447 1008 436 997 q 458 1038 458 1020 q 436 1078 458 1065 q 369 1092 415 1092 q 314 1088 342 1092 q 263 1075 285 1083 l 263 1114 q 311 1126 283 1122 q 366 1131 339 1131 q 466 1107 433 1131 q 499 1039 499 1083 q 491 1002 499 1017 q 472 977 483 987 q 442 954 461 967 q 402 920 415 935 q 389 878 390 904 l 346 878 z "},"ơ":{"ha":735,"x_min":75,"x_max":674,"o":"m 538 712 q 630 582 599 666 q 660 375 660 499 q 582 82 660 176 q 367 -12 505 -12 q 152 81 229 -12 q 75 375 75 174 q 152 667 75 574 q 367 761 230 761 q 442 758 386 761 q 490 755 478 755 q 591 784 555 755 q 628 871 628 813 q 624 920 628 898 q 610 969 619 942 l 656 969 q 669 922 665 944 q 674 869 674 899 q 638 763 674 803 q 538 712 602 722 m 367 33 q 547 112 485 33 q 610 373 610 191 q 547 636 610 557 q 367 715 485 715 q 188 637 250 715 q 125 377 125 558 q 188 113 125 192 q 367 33 250 33 z "},"ớ":{"ha":735,"x_min":75,"x_max":674,"o":"m 538 712 q 630 582 599 666 q 660 375 660 499 q 582 82 660 176 q 367 -12 505 -12 q 152 81 229 -12 q 75 375 75 174 q 152 667 75 574 q 367 761 230 761 q 442 758 386 761 q 490 755 478 755 q 591 784 555 755 q 628 871 628 813 q 624 920 628 898 q 610 969 619 942 l 656 969 q 669 922 665 944 q 674 869 674 899 q 638 763 674 803 q 538 712 602 722 m 367 33 q 547 112 485 33 q 610 373 610 191 q 547 636 610 557 q 367 715 485 715 q 188 637 250 715 q 125 377 125 558 q 188 113 125 192 q 367 33 250 33 m 343 878 l 488 1122 l 542 1122 l 388 878 l 343 878 z "},"ợ":{"ha":735,"x_min":75,"x_max":674,"o":"m 538 712 q 630 582 599 666 q 660 375 660 499 q 582 82 660 176 q 367 -12 505 -12 q 152 81 229 -12 q 75 375 75 174 q 152 667 75 574 q 367 761 230 761 q 442 758 386 761 q 490 755 478 755 q 591 784 555 755 q 628 871 628 813 q 624 920 628 898 q 610 969 619 942 l 656 969 q 669 922 665 944 q 674 869 674 899 q 638 763 674 803 q 538 712 602 722 m 367 33 q 547 112 485 33 q 610 373 610 191 q 547 636 610 557 q 367 715 485 715 q 188 637 250 715 q 125 377 125 558 q 188 113 125 192 q 367 33 250 33 m 365 -215 q 334 -203 347 -215 q 322 -172 322 -192 q 334 -140 322 -153 q 365 -128 347 -128 q 396 -140 384 -128 q 408 -172 408 -153 q 396 -203 408 -192 q 365 -215 384 -215 z "},"ờ":{"ha":735,"x_min":75,"x_max":674,"o":"m 538 712 q 630 582 599 666 q 660 375 660 499 q 582 82 660 176 q 367 -12 505 -12 q 152 81 229 -12 q 75 375 75 174 q 152 667 75 574 q 367 761 230 761 q 442 758 386 761 q 490 755 478 755 q 591 784 555 755 q 628 871 628 813 q 624 920 628 898 q 610 969 619 942 l 656 969 q 669 922 665 944 q 674 869 674 899 q 638 763 674 803 q 538 712 602 722 m 367 33 q 547 112 485 33 q 610 373 610 191 q 547 636 610 557 q 367 715 485 715 q 188 637 250 715 q 125 377 125 558 q 188 113 125 192 q 367 33 250 33 m 343 878 l 189 1122 l 243 1122 l 388 878 l 343 878 z "},"ở":{"ha":735,"x_min":75,"x_max":674,"o":"m 538 712 q 630 582 599 666 q 660 375 660 499 q 582 82 660 176 q 367 -12 505 -12 q 152 81 229 -12 q 75 375 75 174 q 152 667 75 574 q 367 761 230 761 q 442 758 386 761 q 490 755 478 755 q 591 784 555 755 q 628 871 628 813 q 624 920 628 898 q 610 969 619 942 l 656 969 q 669 922 665 944 q 674 869 674 899 q 638 763 674 803 q 538 712 602 722 m 367 33 q 547 112 485 33 q 610 373 610 191 q 547 636 610 557 q 367 715 485 715 q 188 637 250 715 q 125 377 125 558 q 188 113 125 192 q 367 33 250 33 m 344 878 q 354 923 344 904 q 376 953 363 942 q 410 980 390 965 q 445 1008 434 997 q 456 1038 456 1020 q 434 1078 456 1065 q 367 1092 413 1092 q 311 1088 340 1092 q 260 1075 283 1083 l 260 1114 q 309 1126 281 1122 q 364 1131 337 1131 q 464 1107 431 1131 q 497 1039 497 1083 q 489 1002 497 1017 q 470 977 481 987 q 440 954 459 967 q 400 920 413 935 q 387 878 388 904 l 344 878 z "},"ỡ":{"ha":735,"x_min":75,"x_max":674,"o":"m 272 1011 q 216 999 241 1011 q 169 962 192 987 l 169 1008 q 272 1051 207 1051 q 320 1043 297 1051 q 376 1022 344 1036 q 422 1004 403 1010 q 458 998 440 998 q 514 1010 490 998 q 562 1047 539 1022 l 562 1001 q 458 958 524 958 q 410 966 433 958 q 355 987 387 973 q 309 1005 327 999 q 272 1011 290 1011 m 538 712 q 630 582 599 666 q 660 375 660 499 q 582 82 660 176 q 367 -12 505 -12 q 152 81 229 -12 q 75 375 75 174 q 152 667 75 574 q 367 761 230 761 q 442 758 386 761 q 490 755 478 755 q 591 784 555 755 q 628 871 628 813 q 624 920 628 898 q 610 969 619 942 l 656 969 q 669 922 665 944 q 674 869 674 899 q 638 763 674 803 q 538 712 602 722 m 367 33 q 547 112 485 33 q 610 373 610 191 q 547 636 610 557 q 367 715 485 715 q 188 637 250 715 q 125 377 125 558 q 188 113 125 192 q 367 33 250 33 z "},"ő":{"ha":735,"x_min":75,"x_max":660,"o":"m 367 -12 q 152 81 229 -12 q 75 375 75 174 q 152 667 75 574 q 367 761 230 761 q 583 668 506 761 q 660 375 660 576 q 582 82 660 176 q 367 -12 505 -12 m 367 33 q 547 112 485 33 q 610 373 610 191 q 547 636 610 557 q 367 715 485 715 q 188 637 250 715 q 125 377 125 558 q 188 113 125 192 q 367 33 250 33 m 246 878 l 339 1122 l 385 1122 l 286 878 l 246 878 m 449 878 l 542 1122 l 588 1122 l 489 878 l 449 878 z "},"ȏ":{"ha":735,"x_min":75,"x_max":660,"o":"m 367 -12 q 152 81 229 -12 q 75 375 75 174 q 152 667 75 574 q 367 761 230 761 q 583 668 506 761 q 660 375 660 576 q 582 82 660 176 q 367 -12 505 -12 m 367 33 q 547 112 485 33 q 610 373 610 191 q 547 636 610 557 q 367 715 485 715 q 188 637 250 715 q 125 377 125 558 q 188 113 125 192 q 367 33 250 33 m 185 897 q 235 1058 189 1002 q 366 1114 282 1114 q 498 1057 450 1114 q 549 897 546 1001 l 509 897 q 468 1029 503 985 q 366 1073 433 1073 q 264 1029 299 1073 q 226 897 230 985 l 185 897 z "},"ō":{"ha":735,"x_min":75,"x_max":660,"o":"m 367 -12 q 152 81 229 -12 q 75 375 75 174 q 152 667 75 574 q 367 761 230 761 q 583 668 506 761 q 660 375 660 576 q 582 82 660 176 q 367 -12 505 -12 m 367 33 q 547 112 485 33 q 610 373 610 191 q 547 636 610 557 q 367 715 485 715 q 188 637 250 715 q 125 377 125 558 q 188 113 125 192 q 367 33 250 33 m 171 968 l 171 1009 l 564 1009 l 564 968 l 171 968 z "},"ṓ":{"ha":735,"x_min":75,"x_max":660,"o":"m 367 -12 q 152 81 229 -12 q 75 375 75 174 q 152 667 75 574 q 367 761 230 761 q 583 668 506 761 q 660 375 660 576 q 582 82 660 176 q 367 -12 505 -12 m 367 33 q 547 112 485 33 q 610 373 610 191 q 547 636 610 557 q 367 715 485 715 q 188 637 250 715 q 125 377 125 558 q 188 113 125 192 q 367 33 250 33 m 171 968 l 171 1009 l 564 1009 l 564 968 l 171 968 m 345 1108 l 467 1297 l 522 1297 l 390 1108 l 345 1108 z "},"ṑ":{"ha":735,"x_min":75,"x_max":660,"o":"m 367 -12 q 152 81 229 -12 q 75 375 75 174 q 152 667 75 574 q 367 761 230 761 q 583 668 506 761 q 660 375 660 576 q 582 82 660 176 q 367 -12 505 -12 m 367 33 q 547 112 485 33 q 610 373 610 191 q 547 636 610 557 q 367 715 485 715 q 188 637 250 715 q 125 377 125 558 q 188 113 125 192 q 367 33 250 33 m 171 968 l 171 1009 l 564 1009 l 564 968 l 171 968 m 345 1108 l 213 1297 l 268 1297 l 390 1108 l 345 1108 z "},"ǫ":{"ha":735,"x_min":75,"x_max":660,"o":"m 460 0 q 343 -68 379 -25 q 308 -158 308 -110 q 332 -220 308 -199 q 398 -242 356 -242 q 491 -218 446 -242 l 504 -251 q 453 -271 481 -264 q 400 -278 426 -278 q 305 -247 340 -278 q 269 -160 269 -216 q 290 -79 269 -117 q 356 -12 311 -41 q 149 86 222 -8 q 75 375 75 180 q 152 667 75 574 q 367 761 230 761 q 583 668 506 761 q 660 375 660 576 q 460 0 660 60 m 125 377 q 188 113 125 192 q 367 33 250 33 q 547 112 485 33 q 610 373 610 191 q 547 636 610 557 q 367 715 485 715 q 188 637 250 715 q 125 377 125 558 z "},"ø":{"ha":735,"x_min":75,"x_max":660,"o":"m 592 655 q 660 375 660 558 q 582 82 660 176 q 367 -12 505 -12 q 171 60 243 -12 l 121 -11 l 85 14 l 142 94 q 75 375 75 192 q 152 667 75 574 q 367 761 230 761 q 564 690 492 761 l 614 761 l 649 736 l 592 655 m 367 715 q 188 637 250 715 q 125 377 125 558 q 172 137 125 221 l 535 650 q 367 715 477 715 m 367 33 q 547 112 485 33 q 610 373 610 191 q 563 613 610 529 l 199 99 q 367 33 257 33 z "},"ǿ":{"ha":735,"x_min":75,"x_max":660,"o":"m 592 655 q 660 375 660 558 q 582 82 660 176 q 367 -12 505 -12 q 171 60 243 -12 l 121 -11 l 85 14 l 142 94 q 75 375 75 192 q 152 667 75 574 q 367 761 230 761 q 564 690 492 761 l 614 761 l 649 736 l 592 655 m 367 715 q 188 637 250 715 q 125 377 125 558 q 172 137 125 221 l 535 650 q 367 715 477 715 m 367 33 q 547 112 485 33 q 610 373 610 191 q 563 613 610 529 l 199 99 q 367 33 257 33 m 341 878 l 485 1122 l 540 1122 l 385 878 l 341 878 z "},"õ":{"ha":735,"x_min":75,"x_max":660,"o":"m 367 -12 q 152 81 229 -12 q 75 375 75 174 q 152 667 75 574 q 367 761 230 761 q 583 668 506 761 q 660 375 660 576 q 582 82 660 176 q 367 -12 505 -12 m 367 33 q 547 112 485 33 q 610 373 610 191 q 547 636 610 557 q 367 715 485 715 q 188 637 250 715 q 125 377 125 558 q 188 113 125 192 q 367 33 250 33 m 460 958 q 412 966 435 958 q 357 987 389 973 q 311 1005 329 999 q 274 1011 292 1011 q 218 999 243 1011 q 171 962 194 987 l 171 1008 q 274 1051 209 1051 q 323 1043 299 1051 q 378 1022 346 1036 q 424 1004 406 1010 q 460 998 442 998 q 516 1010 492 998 q 564 1047 541 1022 l 564 1001 q 460 958 526 958 z "},"ṍ":{"ha":735,"x_min":75,"x_max":660,"o":"m 367 -12 q 152 81 229 -12 q 75 375 75 174 q 152 667 75 574 q 367 761 230 761 q 583 668 506 761 q 660 375 660 576 q 582 82 660 176 q 367 -12 505 -12 m 367 33 q 547 112 485 33 q 610 373 610 191 q 547 636 610 557 q 367 715 485 715 q 188 637 250 715 q 125 377 125 558 q 188 113 125 192 q 367 33 250 33 m 460 958 q 412 966 435 958 q 357 987 389 973 q 311 1005 329 999 q 274 1011 292 1011 q 218 999 243 1011 q 171 962 194 987 l 171 1008 q 274 1051 209 1051 q 323 1043 299 1051 q 378 1022 346 1036 q 424 1004 406 1010 q 460 998 442 998 q 516 1010 492 998 q 564 1047 541 1022 l 564 1001 q 460 958 526 958 m 345 1108 l 467 1297 l 522 1297 l 390 1108 l 345 1108 z "},"ṏ":{"ha":735,"x_min":75,"x_max":660,"o":"m 367 -12 q 152 81 229 -12 q 75 375 75 174 q 152 667 75 574 q 367 761 230 761 q 583 668 506 761 q 660 375 660 576 q 582 82 660 176 q 367 -12 505 -12 m 367 33 q 547 112 485 33 q 610 373 610 191 q 547 636 610 557 q 367 715 485 715 q 188 637 250 715 q 125 377 125 558 q 188 113 125 192 q 367 33 250 33 m 460 958 q 412 966 435 958 q 357 987 389 973 q 311 1005 329 999 q 274 1011 292 1011 q 218 999 243 1011 q 171 962 194 987 l 171 1008 q 274 1051 209 1051 q 323 1043 299 1051 q 378 1022 346 1036 q 424 1004 406 1010 q 460 998 442 998 q 516 1010 492 998 q 564 1047 541 1022 l 564 1001 q 460 958 526 958 m 228 1128 q 198 1140 210 1128 q 185 1171 185 1151 q 198 1203 185 1190 q 228 1215 210 1215 q 259 1203 247 1215 q 272 1171 272 1190 q 259 1140 272 1151 q 228 1128 247 1128 m 506 1128 q 475 1140 488 1128 q 463 1171 463 1151 q 475 1203 463 1190 q 506 1215 488 1215 q 537 1203 525 1215 q 549 1171 549 1190 q 537 1140 549 1151 q 506 1128 525 1128 z "},"ȭ":{"ha":735,"x_min":75,"x_max":660,"o":"m 367 -12 q 152 81 229 -12 q 75 375 75 174 q 152 667 75 574 q 367 761 230 761 q 583 668 506 761 q 660 375 660 576 q 582 82 660 176 q 367 -12 505 -12 m 367 33 q 547 112 485 33 q 610 373 610 191 q 547 636 610 557 q 367 715 485 715 q 188 637 250 715 q 125 377 125 558 q 188 113 125 192 q 367 33 250 33 m 460 958 q 412 966 435 958 q 357 987 389 973 q 311 1005 329 999 q 274 1011 292 1011 q 218 999 243 1011 q 171 962 194 987 l 171 1008 q 274 1051 209 1051 q 323 1043 299 1051 q 378 1022 346 1036 q 424 1004 406 1010 q 460 998 442 998 q 516 1010 492 998 q 564 1047 541 1022 l 564 1001 q 460 958 526 958 m 171 1151 l 171 1192 l 564 1192 l 564 1151 l 171 1151 z "},"œ":{"ha":1207,"x_min":75,"x_max":1144,"o":"m 1144 354 l 654 354 q 726 109 658 184 q 926 33 794 33 q 1109 67 1005 33 l 1109 20 q 924 -12 1014 -12 q 733 38 808 -12 q 628 197 659 89 q 532 39 599 90 q 365 -12 464 -12 q 152 81 228 -12 q 75 375 75 175 q 152 667 75 574 q 365 761 228 761 q 629 553 572 761 q 719 711 656 660 q 877 762 782 762 q 1144 376 1144 762 l 1144 354 m 877 716 q 715 642 773 716 q 654 400 657 567 l 1094 400 q 1036 643 1091 569 q 877 716 981 716 m 365 33 q 542 113 480 33 q 604 373 604 192 q 542 636 604 557 q 365 715 480 715 q 187 637 249 715 q 125 377 125 558 q 187 113 125 193 q 365 33 249 33 z "},"p":{"ha":744,"x_min":118,"x_max":669,"o":"m 118 750 l 160 750 l 165 666 l 169 666 q 260 735 206 710 q 381 761 315 761 q 590 673 512 761 q 669 389 669 585 q 578 86 669 185 q 308 -12 488 -12 q 165 -1 244 -12 l 165 -306 l 118 -306 l 118 750 m 310 33 q 542 117 466 33 q 619 383 619 201 q 555 640 619 565 q 378 715 492 715 q 259 686 315 715 q 165 598 202 657 l 165 49 q 234 38 194 42 q 310 33 273 33 z "},"þ":{"ha":744,"x_min":118,"x_max":669,"o":"m 118 1122 l 165 1122 l 165 669 l 169 669 q 262 736 207 711 q 385 761 317 761 q 591 673 513 761 q 669 389 669 585 q 578 86 669 185 q 308 -12 488 -12 q 165 -1 244 -12 l 165 -306 l 118 -306 l 118 1122 m 310 33 q 542 117 466 33 q 619 383 619 201 q 556 640 619 565 q 382 715 492 715 q 260 686 317 715 q 165 600 202 658 l 165 49 q 234 38 194 42 q 310 33 273 33 z "},"q":{"ha":744,"x_min":75,"x_max":626,"o":"m 578 78 l 574 78 q 482 13 537 38 q 359 -12 426 -12 q 153 75 231 -12 q 75 360 75 163 q 428 761 75 761 q 530 753 478 761 q 626 732 581 746 l 626 -306 l 578 -306 l 578 78 m 362 33 q 484 62 426 33 q 578 145 542 90 l 578 697 q 507 710 547 705 q 426 715 467 715 q 200 631 276 715 q 125 365 125 547 q 188 108 125 183 q 362 33 251 33 z "},"r":{"ha":467,"x_min":118,"x_max":458,"o":"m 118 750 l 160 750 l 164 648 l 169 648 q 273 727 211 699 q 400 756 335 756 q 458 751 432 756 l 458 703 q 399 707 434 707 q 270 674 335 707 q 165 581 206 642 l 165 0 l 118 0 l 118 750 z "},"ŕ":{"ha":467,"x_min":118,"x_max":458,"o":"m 118 750 l 160 750 l 164 648 l 169 648 q 273 727 211 699 q 400 756 335 756 q 458 751 432 756 l 458 703 q 399 707 434 707 q 270 674 335 707 q 165 581 206 642 l 165 0 l 118 0 l 118 750 m 257 878 l 401 1122 l 456 1122 l 301 878 l 257 878 z "},"ř":{"ha":467,"x_min":99,"x_max":460,"o":"m 118 750 l 160 750 l 164 648 l 169 648 q 273 727 211 699 q 400 756 335 756 q 458 751 432 756 l 458 703 q 399 707 434 707 q 270 674 335 707 q 165 581 206 642 l 165 0 l 118 0 l 118 750 m 410 1122 l 460 1122 l 306 878 l 253 878 l 99 1122 l 148 1122 l 279 909 l 410 1122 z "},"ŗ":{"ha":467,"x_min":99,"x_max":458,"o":"m 118 750 l 160 750 l 164 648 l 169 648 q 273 727 211 699 q 400 756 335 756 q 458 751 432 756 l 458 703 q 399 707 434 707 q 270 674 335 707 q 165 581 206 642 l 165 0 l 118 0 l 118 750 m 139 -128 q 173 -143 160 -128 q 185 -187 185 -158 q 177 -247 185 -214 q 154 -311 169 -281 l 124 -311 q 147 -215 143 -262 l 142 -215 q 111 -203 123 -215 q 99 -171 99 -190 q 110 -140 99 -152 q 139 -128 122 -128 z "},"ȑ":{"ha":467,"x_min":57,"x_max":458,"o":"m 118 750 l 160 750 l 164 648 l 169 648 q 273 727 211 699 q 400 756 335 756 q 458 751 432 756 l 458 703 q 399 707 434 707 q 270 674 335 707 q 165 581 206 642 l 165 0 l 118 0 l 118 750 m 156 878 l 57 1122 l 106 1122 l 198 878 l 156 878 m 360 878 l 262 1122 l 310 1122 l 403 878 l 360 878 z "},"ṛ":{"ha":467,"x_min":99,"x_max":458,"o":"m 118 750 l 160 750 l 164 648 l 169 648 q 273 727 211 699 q 400 756 335 756 q 458 751 432 756 l 458 703 q 399 707 434 707 q 270 674 335 707 q 165 581 206 642 l 165 0 l 118 0 l 118 750 m 142 -215 q 111 -203 123 -215 q 99 -172 99 -192 q 111 -140 99 -153 q 142 -128 123 -128 q 173 -140 160 -128 q 185 -172 185 -153 q 173 -203 185 -192 q 142 -215 160 -215 z "},"ȓ":{"ha":467,"x_min":97,"x_max":461,"o":"m 118 750 l 160 750 l 164 648 l 169 648 q 273 727 211 699 q 400 756 335 756 q 458 751 432 756 l 458 703 q 399 707 434 707 q 270 674 335 707 q 165 581 206 642 l 165 0 l 118 0 l 118 750 m 97 897 q 147 1058 101 1002 q 278 1114 194 1114 q 410 1057 362 1114 q 461 897 458 1001 l 421 897 q 380 1029 415 985 q 278 1073 345 1073 q 176 1029 210 1073 q 138 897 142 985 l 97 897 z "},"ṟ":{"ha":467,"x_min":-32,"x_max":458,"o":"m 118 750 l 160 750 l 164 648 l 169 648 q 273 727 211 699 q 400 756 335 756 q 458 751 432 756 l 458 703 q 399 707 434 707 q 270 674 335 707 q 165 581 206 642 l 165 0 l 118 0 l 118 750 m -32 -193 l -32 -152 l 315 -152 l 315 -193 l -32 -193 z "},"s":{"ha":594,"x_min":72,"x_max":539,"o":"m 272 -12 q 83 16 171 -12 l 83 63 q 182 40 138 47 q 274 33 226 33 q 436 74 383 33 q 490 190 490 114 q 457 290 490 255 q 346 342 424 324 l 256 361 q 115 432 158 384 q 72 558 72 480 q 101 663 72 617 q 190 735 131 709 q 337 761 249 761 q 500 740 421 761 l 500 693 q 417 710 454 706 q 337 715 380 715 q 174 673 227 715 q 122 560 122 631 q 153 464 122 501 q 260 411 185 428 l 349 392 q 495 320 452 368 q 539 194 539 273 q 471 42 539 97 q 272 -12 403 -12 z "},"ś":{"ha":594,"x_min":72,"x_max":539,"o":"m 272 -12 q 83 16 171 -12 l 83 63 q 182 40 138 47 q 274 33 226 33 q 436 74 383 33 q 490 190 490 114 q 457 290 490 255 q 346 342 424 324 l 256 361 q 115 432 158 384 q 72 558 72 480 q 101 663 72 617 q 190 735 131 709 q 337 761 249 761 q 500 740 421 761 l 500 693 q 417 710 454 706 q 337 715 380 715 q 174 673 227 715 q 122 560 122 631 q 153 464 122 501 q 260 411 185 428 l 349 392 q 495 320 452 368 q 539 194 539 273 q 471 42 539 97 q 272 -12 403 -12 m 279 878 l 424 1122 l 478 1122 l 324 878 l 279 878 z "},"ṥ":{"ha":594,"x_min":72,"x_max":539,"o":"m 272 -12 q 83 16 171 -12 l 83 63 q 182 40 138 47 q 274 33 226 33 q 436 74 383 33 q 490 190 490 114 q 457 290 490 255 q 346 342 424 324 l 256 361 q 115 432 158 384 q 72 558 72 480 q 101 663 72 617 q 190 735 131 709 q 337 761 249 761 q 500 740 421 761 l 500 693 q 417 710 454 706 q 337 715 380 715 q 174 673 227 715 q 122 560 122 631 q 153 464 122 501 q 260 411 185 428 l 349 392 q 495 320 452 368 q 539 194 539 273 q 471 42 539 97 q 272 -12 403 -12 m 274 1094 q 243 1106 255 1094 q 231 1138 231 1118 q 243 1169 231 1157 q 274 1182 255 1182 q 305 1169 292 1182 q 317 1138 317 1157 q 305 1106 317 1118 q 274 1094 292 1094 m 279 878 l 424 1122 l 478 1122 l 324 878 l 279 878 z "},"š":{"ha":594,"x_min":72,"x_max":539,"o":"m 272 -12 q 83 16 171 -12 l 83 63 q 182 40 138 47 q 274 33 226 33 q 436 74 383 33 q 490 190 490 114 q 457 290 490 255 q 346 342 424 324 l 256 361 q 115 432 158 384 q 72 558 72 480 q 101 663 72 617 q 190 735 131 709 q 337 761 249 761 q 500 740 421 761 l 500 693 q 417 710 454 706 q 337 715 380 715 q 174 673 227 715 q 122 560 122 631 q 153 464 122 501 q 260 411 185 428 l 349 392 q 495 320 452 368 q 539 194 539 273 q 471 42 539 97 q 272 -12 403 -12 m 433 1122 l 482 1122 l 328 878 l 275 878 l 121 1122 l 170 1122 l 301 909 l 433 1122 z "},"ṧ":{"ha":594,"x_min":72,"x_max":539,"o":"m 272 -12 q 83 16 171 -12 l 83 63 q 182 40 138 47 q 274 33 226 33 q 436 74 383 33 q 490 190 490 114 q 457 290 490 255 q 346 342 424 324 l 256 361 q 115 432 158 384 q 72 558 72 480 q 101 663 72 617 q 190 735 131 709 q 337 761 249 761 q 500 740 421 761 l 500 693 q 417 710 454 706 q 337 715 380 715 q 174 673 227 715 q 122 560 122 631 q 153 464 122 501 q 260 411 185 428 l 349 392 q 495 320 452 368 q 539 194 539 273 q 471 42 539 97 q 272 -12 403 -12 m 301 1121 q 270 1133 283 1121 q 258 1164 258 1144 q 270 1196 258 1183 q 301 1208 283 1208 q 332 1196 320 1208 q 344 1164 344 1183 q 332 1133 344 1144 q 301 1121 320 1121 m 433 1122 l 482 1122 l 328 878 l 275 878 l 121 1122 l 170 1122 l 301 909 l 433 1122 z "},"ş":{"ha":594,"x_min":72,"x_max":539,"o":"m 539 194 q 484 53 539 107 q 322 -10 429 0 l 322 -79 q 400 -108 373 -83 q 427 -178 427 -134 q 395 -251 427 -225 q 305 -278 363 -278 q 244 -271 275 -278 q 192 -252 213 -264 l 192 -213 q 307 -242 246 -242 q 389 -178 389 -242 q 306 -114 389 -114 l 283 -114 l 283 -12 l 272 -12 q 83 16 171 -12 l 83 63 q 182 40 138 47 q 274 33 226 33 q 436 74 383 33 q 490 190 490 114 q 457 290 490 255 q 346 342 424 324 l 256 361 q 115 432 158 384 q 72 558 72 480 q 101 663 72 617 q 190 735 131 709 q 337 761 249 761 q 500 740 421 761 l 500 693 q 417 710 454 706 q 337 715 380 715 q 174 673 227 715 q 122 560 122 631 q 153 464 122 501 q 260 411 185 428 l 349 392 q 495 320 452 368 q 539 194 539 273 z "},"ŝ":{"ha":594,"x_min":72,"x_max":539,"o":"m 272 -12 q 83 16 171 -12 l 83 63 q 182 40 138 47 q 274 33 226 33 q 436 74 383 33 q 490 190 490 114 q 457 290 490 255 q 346 342 424 324 l 256 361 q 115 432 158 384 q 72 558 72 480 q 101 663 72 617 q 190 735 131 709 q 337 761 249 761 q 500 740 421 761 l 500 693 q 417 710 454 706 q 337 715 380 715 q 174 673 227 715 q 122 560 122 631 q 153 464 122 501 q 260 411 185 428 l 349 392 q 495 320 452 368 q 539 194 539 273 q 471 42 539 97 q 272 -12 403 -12 m 479 878 l 430 878 l 301 1090 l 173 878 l 124 878 l 275 1122 l 328 1122 l 479 878 z "},"ș":{"ha":594,"x_min":72,"x_max":539,"o":"m 272 -12 q 83 16 171 -12 l 83 63 q 182 40 138 47 q 274 33 226 33 q 436 74 383 33 q 490 190 490 114 q 457 290 490 255 q 346 342 424 324 l 256 361 q 115 432 158 384 q 72 558 72 480 q 101 663 72 617 q 190 735 131 709 q 337 761 249 761 q 500 740 421 761 l 500 693 q 417 710 454 706 q 337 715 380 715 q 174 673 227 715 q 122 560 122 631 q 153 464 122 501 q 260 411 185 428 l 349 392 q 495 320 452 368 q 539 194 539 273 q 471 42 539 97 q 272 -12 403 -12 m 299 -128 q 332 -143 320 -128 q 344 -187 344 -158 q 337 -247 344 -214 q 314 -311 329 -281 l 283 -311 q 306 -215 303 -262 l 301 -215 q 270 -203 283 -215 q 258 -171 258 -190 q 270 -140 258 -152 q 299 -128 281 -128 z "},"ṡ":{"ha":594,"x_min":72,"x_max":539,"o":"m 272 -12 q 83 16 171 -12 l 83 63 q 182 40 138 47 q 274 33 226 33 q 436 74 383 33 q 490 190 490 114 q 457 290 490 255 q 346 342 424 324 l 256 361 q 115 432 158 384 q 72 558 72 480 q 101 663 72 617 q 190 735 131 709 q 337 761 249 761 q 500 740 421 761 l 500 693 q 417 710 454 706 q 337 715 380 715 q 174 673 227 715 q 122 560 122 631 q 153 464 122 501 q 260 411 185 428 l 349 392 q 495 320 452 368 q 539 194 539 273 q 471 42 539 97 q 272 -12 403 -12 m 301 944 q 270 956 283 944 q 258 988 258 968 q 270 1019 258 1007 q 301 1032 283 1032 q 332 1019 320 1032 q 344 988 344 1007 q 332 956 344 968 q 301 944 320 944 z "},"ṣ":{"ha":594,"x_min":72,"x_max":539,"o":"m 272 -12 q 83 16 171 -12 l 83 63 q 182 40 138 47 q 274 33 226 33 q 436 74 383 33 q 490 190 490 114 q 457 290 490 255 q 346 342 424 324 l 256 361 q 115 432 158 384 q 72 558 72 480 q 101 663 72 617 q 190 735 131 709 q 337 761 249 761 q 500 740 421 761 l 500 693 q 417 710 454 706 q 337 715 380 715 q 174 673 227 715 q 122 560 122 631 q 153 464 122 501 q 260 411 185 428 l 349 392 q 495 320 452 368 q 539 194 539 273 q 471 42 539 97 q 272 -12 403 -12 m 301 -215 q 270 -203 283 -215 q 258 -172 258 -192 q 270 -140 258 -153 q 301 -128 283 -128 q 332 -140 320 -128 q 344 -172 344 -153 q 332 -203 344 -192 q 301 -215 320 -215 z "},"ṩ":{"ha":594,"x_min":72,"x_max":539,"o":"m 272 -12 q 83 16 171 -12 l 83 63 q 182 40 138 47 q 274 33 226 33 q 436 74 383 33 q 490 190 490 114 q 457 290 490 255 q 346 342 424 324 l 256 361 q 115 432 158 384 q 72 558 72 480 q 101 663 72 617 q 190 735 131 709 q 337 761 249 761 q 500 740 421 761 l 500 693 q 417 710 454 706 q 337 715 380 715 q 174 673 227 715 q 122 560 122 631 q 153 464 122 501 q 260 411 185 428 l 349 392 q 495 320 452 368 q 539 194 539 273 q 471 42 539 97 q 272 -12 403 -12 m 301 -215 q 270 -203 283 -215 q 258 -172 258 -192 q 270 -140 258 -153 q 301 -128 283 -128 q 332 -140 320 -128 q 344 -172 344 -153 q 332 -203 344 -192 q 301 -215 320 -215 m 301 944 q 270 956 283 944 q 258 988 258 968 q 270 1019 258 1007 q 301 1032 283 1032 q 332 1019 320 1032 q 344 988 344 1007 q 332 956 344 968 q 301 944 320 944 z "},"ß":{"ha":894,"x_min":10,"x_max":839,"o":"m 649 392 q 796 321 753 368 q 839 194 839 274 q 771 42 839 97 q 574 -12 703 -12 q 383 15 469 -12 l 383 63 q 481 40 437 47 q 574 33 526 33 q 736 74 683 33 q 790 190 790 114 q 757 290 790 255 q 646 342 724 324 l 556 361 q 415 432 458 383 q 372 556 372 480 q 401 662 372 616 q 490 734 431 708 q 637 760 549 760 q 701 756 668 760 q 709 840 709 799 q 644 1032 709 973 q 468 1090 579 1090 q 276 1021 342 1090 q 210 796 210 951 l 210 0 l 163 0 l 163 704 l 10 704 l 10 750 l 163 750 l 163 800 q 242 1053 163 969 q 468 1136 322 1136 q 676 1063 598 1136 q 754 840 754 990 q 749 769 754 808 q 738 705 744 731 q 691 713 713 710 q 637 715 669 715 q 474 673 527 715 q 422 560 422 631 q 454 464 422 501 q 560 411 486 428 l 649 392 z "},"t":{"ha":482,"x_min":5,"x_max":478,"o":"m 379 33 q 478 47 422 33 l 478 -1 q 376 -12 426 -12 q 158 215 158 -12 l 158 706 l 5 706 l 5 750 l 158 750 l 163 1028 l 205 1028 l 205 750 l 463 750 l 463 706 l 205 706 l 205 224 q 248 78 205 122 q 379 33 292 33 z "},"ŧ":{"ha":482,"x_min":5,"x_max":478,"o":"m 379 33 q 478 47 422 33 l 478 -1 q 376 -12 426 -12 q 158 215 158 -12 l 158 438 l 47 438 l 47 479 l 158 479 l 158 706 l 5 706 l 5 750 l 158 750 l 163 1028 l 205 1028 l 205 750 l 463 750 l 463 706 l 205 706 l 205 479 l 430 479 l 430 438 l 205 438 l 205 224 q 248 78 205 122 q 379 33 292 33 z "},"ť":{"ha":482,"x_min":5,"x_max":478,"o":"m 379 33 q 478 47 422 33 l 478 -1 q 376 -12 426 -12 q 158 215 158 -12 l 158 706 l 5 706 l 5 750 l 158 750 l 163 1028 l 205 1028 l 205 750 l 463 750 l 463 706 l 205 706 l 205 224 q 248 78 205 122 q 379 33 292 33 m 332 819 q 344 1122 344 929 l 389 1122 q 364 819 389 947 l 332 819 z "},"ţ":{"ha":482,"x_min":5,"x_max":478,"o":"m 376 -12 q 339 -10 357 -12 l 339 -79 q 417 -108 390 -83 q 444 -178 444 -134 q 411 -251 444 -225 q 322 -278 379 -278 q 261 -271 292 -278 q 208 -252 230 -264 l 208 -213 q 324 -242 263 -242 q 406 -178 406 -242 q 322 -114 406 -114 l 300 -114 l 300 -4 q 158 215 158 32 l 158 706 l 5 706 l 5 750 l 158 750 l 163 1028 l 205 1028 l 205 750 l 463 750 l 463 706 l 205 706 l 205 224 q 248 78 205 122 q 379 33 292 33 q 478 47 422 33 l 478 -1 q 376 -12 426 -12 z "}}}
